G04 ================== begin FILE IDENTIFICATION RECORD ==================*
G04 Layout Name:  C:/Users/user/Desktop/workspace/avrusb/allegro/AVRUSB500.brd*
G04 Film Name:    BOTTOM*
G04 File Format:  Gerber RS274X*
G04 File Origin:  Cadence Allegro 16.6-S034*
G04 Origin Date:  Fri Jul 19 14:12:34 2019*
G04 *
G04 Layer:  ETCH/BOTTOM*
G04 Layer:  PIN/BOTTOM*
G04 Layer:  VIA CLASS/BOTTOM*
G04 *
G04 Offset:    (0.0000 0.0000)*
G04 Mirror:    No*
G04 Mode:      Positive*
G04 Rotation:  0*
G04 FullContactRelief:  No*
G04 UndefLineWidth:     0.0000*
G04 ================== end FILE IDENTIFICATION RECORD ====================*
%FSLAX55Y55*MOMM*%
%IR0*IPPOS*OFA0.00000B0.00000*MIA0B0*SFA1.00000B1.00000*%
%ADD10O,1.8999X1.1999*%
%ADD13C,.61*%
%ADD12C,1.3211*%
%ADD11R,1.3211X1.3211*%
%ADD14C,1.5751*%
%ADD15R,1.5751X1.5751*%
%ADD16C,.254*%
%ADD17C,.381*%
%ADD18C,.382*%
%ADD24C,2.0836*%
%ADD19O,2.4084X1.7084*%
%ADD21C,1.5756*%
%ADD25R,2.0836X2.0836*%
%ADD22C,1.8296*%
%ADD23R,1.5756X1.5756*%
%ADD20R,1.8296X1.8296*%
G75*
%LPD*%
G75*
G36*
G01X300010Y300010D02*
Y4199990D01*
X10699990D01*
Y300010D01*
X300010D01*
G37*
%LPC*%
G75*
G36*
G01X5124520Y3730080D02*
Y3018340D01*
G02X5035480I-44520J-33840D01*
G01Y3730080D01*
G02X5124520I44520J79920D01*
G37*
G36*
G01X4407610Y1809820D02*
X5810910Y3213120D01*
X6245590D01*
G02Y3136880I40910J-38120D01*
G01X5842490D01*
X4461520Y1755910D01*
Y1753810D01*
G02X4405510Y1809820I-55920J90D01*
G01X4407610D01*
G37*
G36*
G01X3093060Y1251020D02*
X3310060Y1468030D01*
X3310330Y1469630D01*
G02X3374630Y1405330I55170J-9130D01*
G01X3373030Y1405060D01*
X3129940Y1161980D01*
X2746920D01*
G02Y1251020I-79920J44520D01*
G01X3093060D01*
G37*
G36*
G01X3365590Y1214080D02*
X3363490D01*
X2873290Y723880D01*
X2440980D01*
Y670520D01*
X2258020D01*
Y853480D01*
X2440980D01*
Y800120D01*
X2841710D01*
X3309580Y1267990D01*
Y1270090D01*
G02X3365590Y1214080I55920J-90D01*
G37*
G54D24*
X6286500Y1079500D03*
Y1587500D03*
Y1333500D03*
X9398000Y889000D03*
X9144000D03*
X9652000D03*
X10414000Y3429000D03*
Y3175000D03*
Y2921000D03*
G54D19*
X698500Y1846000D03*
X1068500D03*
X698500Y821000D03*
X1068500D03*
G54D21*
X1016000Y2413000D03*
Y3048000D03*
Y3746500D03*
X2095500Y762000D03*
G54D25*
X6286500Y825500D03*
X8890000Y889000D03*
X10414000Y2667000D03*
G54D22*
X1651000Y1587500D03*
Y1206500D03*
Y1968500D03*
Y2349500D03*
X1778000Y3873500D03*
X2667000Y1587500D03*
Y1968500D03*
Y2349500D03*
X3429000Y2984500D03*
X2794000D03*
Y3873500D03*
X3429000Y3746500D03*
X4064000Y2984500D03*
X4191000Y3746500D03*
X4762500Y762000D03*
Y1143000D03*
Y1905000D03*
Y1524000D03*
X5778500Y762000D03*
Y1143000D03*
X6286500Y1841500D03*
X5778500Y1905000D03*
Y1524000D03*
X6096000Y3810000D03*
X6985000Y762000D03*
X7683500Y1206500D03*
X7429500Y1841500D03*
X8382000Y1206500D03*
X8191500Y1841500D03*
X8445500Y3556000D03*
X8890000Y2667000D03*
Y2286000D03*
Y3429000D03*
Y3048000D03*
Y3810000D03*
X9906000Y889000D03*
Y2667000D03*
Y2286000D03*
Y3429000D03*
Y3048000D03*
Y3810000D03*
X10414000Y3683000D03*
G54D23*
X2540000Y2984500D03*
X3175000D03*
X3810000D03*
X6731000Y762000D03*
X7429500Y1206500D03*
X8128000D03*
G54D20*
X762000Y2413000D03*
Y3048000D03*
Y3746500D03*
X8128000Y3556000D03*
%LPD*%
G75*
G54D10*
X1068500Y821000D03*
X698500D03*
X1068500Y1846000D03*
X698500D03*
G54D11*
X762000Y2413000D03*
Y3048000D03*
Y3746500D03*
X2349500Y762000D03*
X2540000Y2984500D03*
X3175000D03*
X3810000D03*
X6731000Y762000D03*
X7429500Y1206500D03*
X8128000D03*
Y3556000D03*
G54D12*
X1016000Y2413000D03*
Y3048000D03*
Y3746500D03*
X1651000Y1587500D03*
Y1206500D03*
Y1968500D03*
Y2349500D03*
X1778000Y3873500D03*
X2095500Y762000D03*
X2667000Y1587500D03*
Y1206500D03*
Y1968500D03*
Y2349500D03*
X3429000Y2984500D03*
X2794000D03*
Y3873500D03*
X3429000Y3746500D03*
X4064000Y2984500D03*
X4191000Y3746500D03*
X4762500Y762000D03*
Y1143000D03*
Y1905000D03*
Y1524000D03*
X5080000Y3810000D03*
X5778500Y762000D03*
Y1143000D03*
Y1905000D03*
Y1524000D03*
X6096000Y3810000D03*
X6985000Y762000D03*
X7683500Y1206500D03*
X7429500Y1841500D03*
X8382000Y1206500D03*
X8191500Y1841500D03*
X8445500Y3556000D03*
X8890000Y2667000D03*
Y2286000D03*
Y3429000D03*
Y3048000D03*
Y3810000D03*
X9906000Y2667000D03*
Y2286000D03*
Y3429000D03*
Y3048000D03*
Y3810000D03*
G54D13*
X3365500Y1460500D03*
Y1270000D03*
X4405600Y1753900D03*
X5080000Y2984500D03*
X6286500Y3175000D03*
G54D14*
Y1079500D03*
Y1841500D03*
Y1587500D03*
Y1333500D03*
X9398000Y889000D03*
X9144000D03*
X9906000D03*
X9652000D03*
X10414000Y3429000D03*
Y3175000D03*
Y2921000D03*
Y3683000D03*
G54D15*
X6286500Y825500D03*
X8890000Y889000D03*
X10414000Y2667000D03*
G54D16*
G01X2349500Y762000D02*
X2857500D01*
X3365500Y1270000D01*
G01X6286500Y3175000D02*
X5826700D01*
X4405600Y1753900D01*
G54D17*
G01X1016000Y2329140D02*
Y2413000D01*
G01D02*
Y2496860D01*
G01X932140Y2413000D02*
X1016000D01*
G01D02*
X1099860D01*
G01X1016000Y2964140D02*
Y3048000D01*
G01D02*
Y3131860D01*
G01X932140Y3048000D02*
X1016000D01*
G01D02*
X1099860D01*
G01X1016000Y3662640D02*
Y3746500D01*
G01D02*
Y3830360D01*
G01X932140Y3746500D02*
X1016000D01*
G01D02*
X1099860D01*
G01X2095500Y678140D02*
Y762000D01*
G01D02*
Y845860D01*
G01X2011640Y762000D02*
X2095500D01*
G01D02*
X2179360D01*
G01X2540000Y2900640D02*
Y2984500D01*
G01D02*
Y3068360D01*
G01X2456140Y2984500D02*
X2540000D01*
G01D02*
X2623860D01*
G01X3175000Y2900640D02*
Y2984500D01*
G01D02*
Y3068360D01*
G01X3091140Y2984500D02*
X3175000D01*
G01D02*
X3258860D01*
G01X3810000Y2900640D02*
Y2984500D01*
G01D02*
Y3068360D01*
G01X3726140Y2984500D02*
X3810000D01*
G01D02*
X3893860D01*
G01X6286500Y1744940D02*
Y1841500D01*
G01D02*
Y1938060D01*
G01X6189940Y1841500D02*
X6286500D01*
G01D02*
X6383060D01*
G01X6731000Y678140D02*
Y762000D01*
G01D02*
Y845860D01*
G01X6647140Y762000D02*
X6731000D01*
G01D02*
X6814860D01*
G01X7429500Y1122640D02*
Y1206500D01*
G01D02*
Y1290360D01*
G01X7345640Y1206500D02*
X7429500D01*
G01D02*
X7513360D01*
G01X8128000Y1122640D02*
Y1206500D01*
G01D02*
Y1290360D01*
G01X8044140Y1206500D02*
X8128000D01*
G01D02*
X8211860D01*
G01X9906000Y792440D02*
Y889000D01*
G01D02*
Y985560D01*
G01X9809440Y889000D02*
X9906000D01*
G01D02*
X10002560D01*
G01X10414000Y3586440D02*
Y3683000D01*
G01D02*
Y3779560D01*
G01X10317440Y3683000D02*
X10414000D01*
G01D02*
X10510560D01*
G54D18*
G01X3365500Y1460500D02*
X3111500Y1206500D01*
X2667000D01*
G01X5080000Y3810000D02*
Y2984500D01*
M02*
