G04 ================== begin FILE IDENTIFICATION RECORD ==================*
G04 Layout Name:  C:/Users/user/Desktop/workspace/avrusb/allegro/AVRUSB500.brd*
G04 Film Name:    MetalT*
G04 File Format:  Gerber RS274X*
G04 File Origin:  Cadence Allegro 16.6-S034*
G04 Origin Date:  Fri Jul 19 14:13:03 2019*
G04 *
G04 Layer:  PIN/PASTEMASK_TOP*
G04 Layer:  PACKAGE GEOMETRY/PASTEMASK_TOP*
G04 *
G04 Offset:    (0.0000 0.0000)*
G04 Mirror:    No*
G04 Mode:      Positive*
G04 Rotation:  0*
G04 FullContactRelief:  No*
G04 UndefLineWidth:     0.0000*
G04 ================== end FILE IDENTIFICATION RECORD ====================*
%FSLAX55Y55*MOMM*%
%IR0*IPPOS*OFA0.00000B0.00000*MIA0B0*SFA1.00000B1.00000*%
%ADD11R,1.7201X.4*%
%ADD13O,.4569X1.778*%
%ADD12O,1.778X.4569*%
%ADD14R,.4569X1.778*%
%ADD15R,1.778X.4569*%
%ADD10R,1.7X1.1001*%
%LPD*%
G75*
G54D10*
X1068500Y1103500D03*
Y1563500D03*
G54D11*
Y1203500D03*
Y1268500D03*
Y1333500D03*
Y1398500D03*
Y1463500D03*
G54D12*
X3556000Y1090900D03*
Y1571000D03*
Y1491000D03*
Y1411000D03*
Y1331000D03*
Y1251000D03*
Y1170900D03*
X4405600Y1090900D03*
Y1170900D03*
Y1251000D03*
Y1411000D03*
Y1491000D03*
Y1571000D03*
Y1651000D03*
X6667500Y3158500D03*
Y3078500D03*
Y2998500D03*
Y2918500D03*
Y2838500D03*
Y2758400D03*
Y2678400D03*
X7517100D03*
Y2758400D03*
Y2838500D03*
Y2998500D03*
Y3078500D03*
Y3158500D03*
Y3238500D03*
G54D13*
X3700800Y946200D03*
X3860800D03*
X3940800D03*
X4020800D03*
X4100800D03*
Y1795800D03*
X4020800D03*
X3940800D03*
X3780800D03*
X3700800D03*
X4180800Y946200D03*
X4260800D03*
Y1795800D03*
X4180800D03*
X6812300Y2533700D03*
X6972300D03*
X7052300D03*
X7132300D03*
X7212300D03*
Y3383300D03*
X7132300D03*
X7052300D03*
X6892300D03*
X6812300D03*
X7292300Y2533700D03*
X7372300D03*
Y3383300D03*
X7292300D03*
G54D14*
X3780800Y946200D03*
X3860800Y1795800D03*
X6892300Y2533700D03*
X6972300Y3383300D03*
G54D15*
X3556000Y1651000D03*
X4405600Y1331000D03*
X6667500Y3238500D03*
X7517100Y2918500D03*
M02*
