G04 ================== begin FILE IDENTIFICATION RECORD ==================*
G04 Layout Name:  C:/Users/user/Desktop/workspace/avrusb/allegro/AVRUSB500_0.brd*
G04 Film Name:    SilkTop*
G04 File Format:  Gerber RS274X*
G04 File Origin:  Cadence Allegro 17.2-P019*
G04 Origin Date:  Mon Jul 29 16:05:09 2019*
G04 *
G04 Layer:  MANUFACTURING/AUTOSILK_TOP*
G04 *
G04 Offset:    (0.0000 0.0000)*
G04 Mirror:    No*
G04 Mode:      Positive*
G04 Rotation:  0*
G04 FullContactRelief:  No*
G04 UndefLineWidth:     0.0000*
G04 ================== end FILE IDENTIFICATION RECORD ====================*
%FSLAX55Y55*MOMM*%
%IR0*IPPOS*OFA0.00000B0.00000*MIA0B0*SFA1.00000B1.00000*%
%ADD10C,.2*%
%ADD11C,.203*%
%ADD12C,.254*%
%ADD13C,.1524*%
G75*
%LPD*%
G75*
G54D10*
G01X-2844170Y-1627000D02*
X-2837500Y-1639000D01*
X-2829500Y-1647000D01*
X-2820170Y-1651000D01*
X-2809500Y-1647000D01*
X-2801500Y-1639000D01*
X-2793500Y-1627000D01*
X-2790830Y-1611000D01*
Y-1531000D01*
G01X-2747590Y-1551000D02*
X-2739590Y-1539000D01*
X-2730260Y-1533000D01*
X-2719590Y-1531000D01*
X-2706260Y-1535000D01*
X-2696930Y-1545000D01*
X-2694260Y-1557000D01*
X-2695590Y-1569000D01*
X-2700930Y-1579000D01*
X-2727590Y-1599000D01*
X-2739590Y-1613000D01*
X-2747590Y-1633000D01*
X-2750260Y-1651000D01*
X-2694260D01*
G01X-2207170Y-1326500D02*
X-2215170Y-1320500D01*
X-2224500Y-1316500D01*
X-2235170D01*
X-2247170Y-1322500D01*
X-2256500Y-1332500D01*
X-2263170Y-1344500D01*
X-2268500Y-1364500D01*
X-2269830Y-1382500D01*
X-2267170Y-1400500D01*
X-2263170Y-1412500D01*
X-2255170Y-1424500D01*
X-2245830Y-1432500D01*
X-2236500Y-1436500D01*
X-2227170D01*
X-2217830Y-1432500D01*
X-2209830Y-1426500D01*
X-2203170Y-1418500D01*
G01X-2163930Y-1422500D02*
X-2154590Y-1432500D01*
X-2143930Y-1436500D01*
X-2133260Y-1432500D01*
X-2123930Y-1420500D01*
X-2117260Y-1402500D01*
X-2114590Y-1384500D01*
Y-1362500D01*
X-2117260Y-1344500D01*
X-2123930Y-1328500D01*
X-2131930Y-1320500D01*
X-2141260Y-1316500D01*
X-2151930Y-1320500D01*
X-2159930Y-1328500D01*
X-2165260Y-1340500D01*
X-2167930Y-1356500D01*
X-2165260Y-1370500D01*
X-2158590Y-1384500D01*
X-2150590Y-1392500D01*
X-2141260Y-1394500D01*
X-2130590Y-1390500D01*
X-2122590Y-1380500D01*
X-2114590Y-1362500D01*
G01X-1519770Y-1372600D02*
X-1527770Y-1366600D01*
X-1537100Y-1362600D01*
X-1547770D01*
X-1559770Y-1368600D01*
X-1569100Y-1378600D01*
X-1575770Y-1390600D01*
X-1581100Y-1410600D01*
X-1582430Y-1428600D01*
X-1579770Y-1446600D01*
X-1575770Y-1458600D01*
X-1567770Y-1470600D01*
X-1558430Y-1478600D01*
X-1549100Y-1482600D01*
X-1539770D01*
X-1530430Y-1478600D01*
X-1522430Y-1472600D01*
X-1515770Y-1464600D01*
G01X-1483190D02*
X-1475190Y-1474600D01*
X-1465860Y-1480600D01*
X-1453860Y-1482600D01*
X-1441860Y-1478600D01*
X-1432530Y-1470600D01*
X-1425860Y-1456600D01*
X-1424530Y-1440600D01*
X-1427190Y-1424600D01*
X-1433860Y-1414600D01*
X-1443190Y-1406600D01*
X-1452530Y-1404600D01*
X-1461860Y-1406600D01*
X-1473860Y-1414600D01*
X-1469860Y-1362600D01*
X-1433860D01*
G01X-1643670Y-783000D02*
X-1651670Y-777000D01*
X-1661000Y-773000D01*
X-1671670D01*
X-1683670Y-779000D01*
X-1693000Y-789000D01*
X-1699670Y-801000D01*
X-1705000Y-821000D01*
X-1706330Y-839000D01*
X-1703670Y-857000D01*
X-1699670Y-869000D01*
X-1691670Y-881000D01*
X-1682330Y-889000D01*
X-1673000Y-893000D01*
X-1663670D01*
X-1654330Y-889000D01*
X-1646330Y-883000D01*
X-1639670Y-875000D01*
G01X-1603090Y-843000D02*
X-1593760Y-829000D01*
X-1585760Y-821000D01*
X-1575090Y-817000D01*
X-1565760Y-821000D01*
X-1559090Y-829000D01*
X-1553760Y-841000D01*
X-1552430Y-855000D01*
X-1553760Y-867000D01*
X-1559090Y-879000D01*
X-1567090Y-889000D01*
X-1576430Y-893000D01*
X-1587090Y-889000D01*
X-1596430Y-877000D01*
X-1601760Y-859000D01*
X-1603090Y-839000D01*
X-1600430Y-813000D01*
X-1596430Y-799000D01*
X-1589760Y-785000D01*
X-1580430Y-775000D01*
X-1571090Y-773000D01*
X-1561760Y-777000D01*
X-1555090Y-787000D01*
G01X-1358170Y-3161500D02*
X-1366170Y-3155500D01*
X-1375500Y-3151500D01*
X-1386170D01*
X-1398170Y-3157500D01*
X-1407500Y-3167500D01*
X-1414170Y-3179500D01*
X-1419500Y-3199500D01*
X-1420830Y-3217500D01*
X-1418170Y-3235500D01*
X-1414170Y-3247500D01*
X-1406170Y-3259500D01*
X-1396830Y-3267500D01*
X-1387500Y-3271500D01*
X-1378170D01*
X-1368830Y-3267500D01*
X-1360830Y-3261500D01*
X-1354170Y-3253500D01*
G01X-1276260Y-3271500D02*
Y-3151500D01*
X-1325590Y-3237500D01*
X-1258930D01*
G01X-1433670Y-2840000D02*
Y-2720000D01*
X-1400330D01*
X-1389670Y-2726000D01*
X-1383000Y-2734000D01*
X-1380330Y-2750000D01*
X-1383000Y-2766000D01*
X-1391000Y-2776000D01*
X-1400330Y-2782000D01*
X-1433670D01*
G01X-1400330D02*
X-1380330Y-2840000D01*
G01X-1311760D02*
X-1302430Y-2838000D01*
X-1291760Y-2832000D01*
X-1285090Y-2822000D01*
X-1282430Y-2808000D01*
X-1285090Y-2794000D01*
X-1293090Y-2782000D01*
X-1305090Y-2776000D01*
X-1318430D01*
X-1326430Y-2772000D01*
X-1333090Y-2762000D01*
X-1335760Y-2748000D01*
X-1331760Y-2734000D01*
X-1322430Y-2724000D01*
X-1311760Y-2720000D01*
X-1301090Y-2724000D01*
X-1291760Y-2734000D01*
X-1287760Y-2748000D01*
X-1290430Y-2762000D01*
X-1297090Y-2772000D01*
X-1305090Y-2776000D01*
X-1318430D01*
X-1330430Y-2782000D01*
X-1338430Y-2794000D01*
X-1341090Y-2808000D01*
X-1338430Y-2822000D01*
X-1331760Y-2832000D01*
X-1321090Y-2838000D01*
X-1311760Y-2840000D01*
G01X-1447170Y-1968500D02*
Y-1848500D01*
X-1413830D01*
X-1403170Y-1854500D01*
X-1396500Y-1862500D01*
X-1393830Y-1878500D01*
X-1396500Y-1894500D01*
X-1404500Y-1904500D01*
X-1413830Y-1910500D01*
X-1447170D01*
G01X-1413830D02*
X-1393830Y-1968500D01*
G01X-1350590Y-1918500D02*
X-1341260Y-1904500D01*
X-1333260Y-1896500D01*
X-1322590Y-1892500D01*
X-1313260Y-1896500D01*
X-1306590Y-1904500D01*
X-1301260Y-1916500D01*
X-1299930Y-1930500D01*
X-1301260Y-1942500D01*
X-1306590Y-1954500D01*
X-1314590Y-1964500D01*
X-1323930Y-1968500D01*
X-1334590Y-1964500D01*
X-1343930Y-1952500D01*
X-1349260Y-1934500D01*
X-1350590Y-1914500D01*
X-1347930Y-1888500D01*
X-1343930Y-1874500D01*
X-1337260Y-1860500D01*
X-1327930Y-1850500D01*
X-1318590Y-1848500D01*
X-1309260Y-1852500D01*
X-1302590Y-1862500D01*
G01X-1433670Y-2400000D02*
Y-2280000D01*
X-1400330D01*
X-1389670Y-2286000D01*
X-1383000Y-2294000D01*
X-1380330Y-2310000D01*
X-1383000Y-2326000D01*
X-1391000Y-2336000D01*
X-1400330Y-2342000D01*
X-1433670D01*
G01X-1400330D02*
X-1380330Y-2400000D01*
G01X-1341090Y-2382000D02*
X-1333090Y-2392000D01*
X-1323760Y-2398000D01*
X-1311760Y-2400000D01*
X-1299760Y-2396000D01*
X-1290430Y-2388000D01*
X-1283760Y-2374000D01*
X-1282430Y-2358000D01*
X-1285090Y-2342000D01*
X-1291760Y-2332000D01*
X-1301090Y-2324000D01*
X-1310430Y-2322000D01*
X-1319760Y-2324000D01*
X-1331760Y-2332000D01*
X-1327760Y-2280000D01*
X-1291760D01*
G01X-1264170Y-1350500D02*
X-1272170Y-1344500D01*
X-1281500Y-1340500D01*
X-1292170D01*
X-1304170Y-1346500D01*
X-1313500Y-1356500D01*
X-1320170Y-1368500D01*
X-1325500Y-1388500D01*
X-1326830Y-1406500D01*
X-1324170Y-1424500D01*
X-1320170Y-1436500D01*
X-1312170Y-1448500D01*
X-1302830Y-1456500D01*
X-1293500Y-1460500D01*
X-1284170D01*
X-1274830Y-1456500D01*
X-1266830Y-1450500D01*
X-1260170Y-1442500D01*
G01X-1198260Y-1460500D02*
Y-1340500D01*
X-1214260Y-1364500D01*
G01Y-1460500D02*
X-1182260D01*
G01X-629330Y-2180000D02*
Y-2266000D01*
X-624000Y-2284000D01*
X-613330Y-2296000D01*
X-600000Y-2300000D01*
X-586670Y-2296000D01*
X-576000Y-2284000D01*
X-570670Y-2266000D01*
Y-2180000D01*
G01X-504760Y-2300000D02*
Y-2180000D01*
X-520760Y-2204000D01*
G01Y-2300000D02*
X-488760D01*
G01X-483170Y-1940000D02*
Y-1820000D01*
X-449830D01*
X-439170Y-1826000D01*
X-432500Y-1834000D01*
X-429830Y-1850000D01*
X-432500Y-1866000D01*
X-440500Y-1876000D01*
X-449830Y-1882000D01*
X-483170D01*
G01X-449830D02*
X-429830Y-1940000D01*
G01X-363930D02*
X-361260Y-1914000D01*
X-357260Y-1892000D01*
X-351930Y-1872000D01*
X-345260Y-1850000D01*
X-334590Y-1820000D01*
X-387930D01*
G01X-438670Y-1350500D02*
X-446670Y-1344500D01*
X-456000Y-1340500D01*
X-466670D01*
X-478670Y-1346500D01*
X-488000Y-1356500D01*
X-494670Y-1368500D01*
X-500000Y-1388500D01*
X-501330Y-1406500D01*
X-498670Y-1424500D01*
X-494670Y-1436500D01*
X-486670Y-1448500D01*
X-477330Y-1456500D01*
X-468000Y-1460500D01*
X-458670D01*
X-449330Y-1456500D01*
X-441330Y-1450500D01*
X-434670Y-1442500D01*
G01X-398090Y-1360500D02*
X-390090Y-1348500D01*
X-380760Y-1342500D01*
X-370090Y-1340500D01*
X-356760Y-1344500D01*
X-347430Y-1354500D01*
X-344760Y-1366500D01*
X-346090Y-1378500D01*
X-351430Y-1388500D01*
X-378090Y-1408500D01*
X-390090Y-1422500D01*
X-398090Y-1442500D01*
X-400760Y-1460500D01*
X-344760D01*
G01X-465670Y-780000D02*
Y-660000D01*
X-432330D01*
X-421670Y-666000D01*
X-415000Y-674000D01*
X-412330Y-690000D01*
X-415000Y-706000D01*
X-423000Y-716000D01*
X-432330Y-722000D01*
X-465670D01*
G01X-432330D02*
X-412330Y-780000D01*
G01X-343760D02*
Y-660000D01*
X-359760Y-684000D01*
G01Y-780000D02*
X-327760D01*
G01X457830Y-3238500D02*
Y-3118500D01*
X491170D01*
X501830Y-3124500D01*
X508500Y-3132500D01*
X511170Y-3148500D01*
X508500Y-3164500D01*
X500500Y-3174500D01*
X491170Y-3180500D01*
X457830D01*
G01X491170D02*
X511170Y-3238500D01*
G01X579740D02*
Y-3118500D01*
X563740Y-3142500D01*
G01Y-3238500D02*
X595740D01*
G01X690980D02*
Y-3118500D01*
X641650Y-3204500D01*
X708310D01*
G01X522230Y-2868900D02*
Y-2748900D01*
X555570D01*
X566230Y-2754900D01*
X572900Y-2762900D01*
X575570Y-2778900D01*
X572900Y-2794900D01*
X564900Y-2804900D01*
X555570Y-2810900D01*
X522230D01*
G01X555570D02*
X575570Y-2868900D01*
G01X660140D02*
Y-2748900D01*
X610810Y-2834900D01*
X677470D01*
G01X413330Y-2360000D02*
Y-2240000D01*
X446670D01*
X457330Y-2246000D01*
X464000Y-2254000D01*
X466670Y-2270000D01*
X464000Y-2286000D01*
X456000Y-2296000D01*
X446670Y-2302000D01*
X413330D01*
G01X446670D02*
X466670Y-2360000D01*
G01X505910Y-2336000D02*
X513910Y-2350000D01*
X524570Y-2358000D01*
X536570Y-2360000D01*
X547240Y-2358000D01*
X557910Y-2348000D01*
X564570Y-2336000D01*
X565910Y-2324000D01*
X563240Y-2310000D01*
X553910Y-2300000D01*
X544570Y-2296000D01*
X532570D01*
G01X544570D02*
X552570Y-2290000D01*
X559240Y-2280000D01*
X561910Y-2268000D01*
X559240Y-2256000D01*
X552570Y-2246000D01*
X540570Y-2240000D01*
X528570Y-2242000D01*
X516570Y-2250000D01*
G01X323330Y-1350500D02*
X315330Y-1344500D01*
X306000Y-1340500D01*
X295330D01*
X283330Y-1346500D01*
X274000Y-1356500D01*
X267330Y-1368500D01*
X262000Y-1388500D01*
X260670Y-1406500D01*
X263330Y-1424500D01*
X267330Y-1436500D01*
X275330Y-1448500D01*
X284670Y-1456500D01*
X294000Y-1460500D01*
X303330D01*
X312670Y-1456500D01*
X320670Y-1450500D01*
X327330Y-1442500D01*
G01X359910Y-1436500D02*
X367910Y-1450500D01*
X378570Y-1458500D01*
X390570Y-1460500D01*
X401240Y-1458500D01*
X411910Y-1448500D01*
X418570Y-1436500D01*
X419910Y-1424500D01*
X417240Y-1410500D01*
X407910Y-1400500D01*
X398570Y-1396500D01*
X386570D01*
G01X398570D02*
X406570Y-1390500D01*
X413240Y-1380500D01*
X415910Y-1368500D01*
X413240Y-1356500D01*
X406570Y-1346500D01*
X394570Y-1340500D01*
X382570Y-1342500D01*
X370570Y-1350500D01*
G01X1473830Y-1905000D02*
Y-1785000D01*
X1507170D01*
X1517830Y-1791000D01*
X1524500Y-1799000D01*
X1527170Y-1815000D01*
X1524500Y-1831000D01*
X1516500Y-1841000D01*
X1507170Y-1847000D01*
X1473830D01*
G01X1507170D02*
X1527170Y-1905000D01*
G01X1570410Y-1805000D02*
X1578410Y-1793000D01*
X1587740Y-1787000D01*
X1598410Y-1785000D01*
X1611740Y-1789000D01*
X1621070Y-1799000D01*
X1623740Y-1811000D01*
X1622410Y-1823000D01*
X1617070Y-1833000D01*
X1590410Y-1853000D01*
X1578410Y-1867000D01*
X1570410Y-1887000D01*
X1567740Y-1905000D01*
X1623740D01*
G01X1537330Y-952500D02*
Y-832500D01*
X1570670D01*
X1581330Y-838500D01*
X1588000Y-846500D01*
X1590670Y-862500D01*
X1588000Y-878500D01*
X1580000Y-888500D01*
X1570670Y-894500D01*
X1537330D01*
G01X1570670D02*
X1590670Y-952500D01*
G01X1636570Y-938500D02*
X1645910Y-948500D01*
X1656570Y-952500D01*
X1667240Y-948500D01*
X1676570Y-936500D01*
X1683240Y-918500D01*
X1685910Y-900500D01*
Y-878500D01*
X1683240Y-860500D01*
X1676570Y-844500D01*
X1668570Y-836500D01*
X1659240Y-832500D01*
X1648570Y-836500D01*
X1640570Y-844500D01*
X1635240Y-856500D01*
X1632570Y-872500D01*
X1635240Y-886500D01*
X1641910Y-900500D01*
X1649910Y-908500D01*
X1659240Y-910500D01*
X1669910Y-906500D01*
X1677910Y-896500D01*
X1685910Y-878500D01*
G01X954000Y-780000D02*
Y-726000D01*
X927330Y-660000D01*
G01X980670D02*
X954000Y-726000D01*
G01X1023910Y-680000D02*
X1031910Y-668000D01*
X1041240Y-662000D01*
X1051910Y-660000D01*
X1065240Y-664000D01*
X1074570Y-674000D01*
X1077240Y-686000D01*
X1075910Y-698000D01*
X1070570Y-708000D01*
X1043910Y-728000D01*
X1031910Y-742000D01*
X1023910Y-762000D01*
X1021240Y-780000D01*
X1077240D01*
G01X1756830Y-3276000D02*
X1763500Y-3288000D01*
X1771500Y-3296000D01*
X1780830Y-3300000D01*
X1791500Y-3296000D01*
X1799500Y-3288000D01*
X1807500Y-3276000D01*
X1810170Y-3260000D01*
Y-3180000D01*
G01X1878740Y-3300000D02*
Y-3180000D01*
X1862740Y-3204000D01*
G01Y-3300000D02*
X1894740D01*
G01X1929000Y-451500D02*
X1961000D01*
G01X1945000D02*
Y-571500D01*
G01X1929000D02*
X1961000D01*
G01X2069570Y-461500D02*
X2061570Y-455500D01*
X2052240Y-451500D01*
X2041570D01*
X2029570Y-457500D01*
X2020240Y-467500D01*
X2013570Y-479500D01*
X2008240Y-499500D01*
X2006910Y-517500D01*
X2009570Y-535500D01*
X2013570Y-547500D01*
X2021570Y-559500D01*
X2030910Y-567500D01*
X2040240Y-571500D01*
X2049570D01*
X2058910Y-567500D01*
X2066910Y-561500D01*
X2073570Y-553500D01*
G01X2135480Y-571500D02*
Y-451500D01*
X2119480Y-475500D01*
G01Y-571500D02*
X2151480D01*
G01X2956330Y-3173500D02*
X2948330Y-3167500D01*
X2939000Y-3163500D01*
X2928330D01*
X2916330Y-3169500D01*
X2907000Y-3179500D01*
X2900330Y-3191500D01*
X2895000Y-3211500D01*
X2893670Y-3229500D01*
X2896330Y-3247500D01*
X2900330Y-3259500D01*
X2908330Y-3271500D01*
X2917670Y-3279500D01*
X2927000Y-3283500D01*
X2936330D01*
X2945670Y-3279500D01*
X2953670Y-3273500D01*
X2960330Y-3265500D01*
G01X3022240Y-3283500D02*
Y-3163500D01*
X3006240Y-3187500D01*
G01Y-3283500D02*
X3038240D01*
G01X3117480Y-3163500D02*
X3106810Y-3167500D01*
X3098810Y-3177500D01*
X3093480Y-3189500D01*
X3089480Y-3205500D01*
X3088150Y-3223500D01*
X3089480Y-3241500D01*
X3093480Y-3257500D01*
X3098810Y-3269500D01*
X3106810Y-3279500D01*
X3117480Y-3283500D01*
X3128150Y-3279500D01*
X3136150Y-3269500D01*
X3141480Y-3257500D01*
X3145480Y-3241500D01*
X3146810Y-3223500D01*
X3145480Y-3205500D01*
X3141480Y-3189500D01*
X3136150Y-3177500D01*
X3128150Y-3167500D01*
X3117480Y-3163500D01*
G01X2799830Y-2747500D02*
X2791830Y-2741500D01*
X2782500Y-2737500D01*
X2771830D01*
X2759830Y-2743500D01*
X2750500Y-2753500D01*
X2743830Y-2765500D01*
X2738500Y-2785500D01*
X2737170Y-2803500D01*
X2739830Y-2821500D01*
X2743830Y-2833500D01*
X2751830Y-2845500D01*
X2761170Y-2853500D01*
X2770500Y-2857500D01*
X2779830D01*
X2789170Y-2853500D01*
X2797170Y-2847500D01*
X2803830Y-2839500D01*
G01X2863070Y-2857500D02*
X2865740Y-2831500D01*
X2869740Y-2809500D01*
X2875070Y-2789500D01*
X2881740Y-2767500D01*
X2892410Y-2737500D01*
X2839070D01*
G01X3561830Y-2747500D02*
X3553830Y-2741500D01*
X3544500Y-2737500D01*
X3533830D01*
X3521830Y-2743500D01*
X3512500Y-2753500D01*
X3505830Y-2765500D01*
X3500500Y-2785500D01*
X3499170Y-2803500D01*
X3501830Y-2821500D01*
X3505830Y-2833500D01*
X3513830Y-2845500D01*
X3523170Y-2853500D01*
X3532500Y-2857500D01*
X3541830D01*
X3551170Y-2853500D01*
X3559170Y-2847500D01*
X3565830Y-2839500D01*
G01X3627740Y-2857500D02*
X3637070Y-2855500D01*
X3647740Y-2849500D01*
X3654410Y-2839500D01*
X3657070Y-2825500D01*
X3654410Y-2811500D01*
X3646410Y-2799500D01*
X3634410Y-2793500D01*
X3621070D01*
X3613070Y-2789500D01*
X3606410Y-2779500D01*
X3603740Y-2765500D01*
X3607740Y-2751500D01*
X3617070Y-2741500D01*
X3627740Y-2737500D01*
X3638410Y-2741500D01*
X3647740Y-2751500D01*
X3651740Y-2765500D01*
X3649070Y-2779500D01*
X3642410Y-2789500D01*
X3634410Y-2793500D01*
X3621070D01*
X3609070Y-2799500D01*
X3601070Y-2811500D01*
X3598410Y-2825500D01*
X3601070Y-2839500D01*
X3607740Y-2849500D01*
X3618410Y-2855500D01*
X3627740Y-2857500D01*
G01X3123480Y-1856520D02*
Y-1802520D01*
X3096810Y-1736520D01*
G01X3150150D02*
X3123480Y-1802520D01*
G01X3218720Y-1856520D02*
Y-1736520D01*
X3202720Y-1760520D01*
G01Y-1856520D02*
X3234720D01*
G01X4880610Y-3177020D02*
X4887280Y-3189020D01*
X4895280Y-3197020D01*
X4904610Y-3201020D01*
X4915280Y-3197020D01*
X4923280Y-3189020D01*
X4931280Y-3177020D01*
X4933950Y-3161020D01*
Y-3081020D01*
G01X5018520Y-3201020D02*
Y-3081020D01*
X4969190Y-3167020D01*
X5035850D01*
G01X4775830Y-2476500D02*
Y-2356500D01*
X4809170D01*
X4819830Y-2362500D01*
X4826500Y-2370500D01*
X4829170Y-2386500D01*
X4826500Y-2402500D01*
X4818500Y-2412500D01*
X4809170Y-2418500D01*
X4775830D01*
G01X4809170D02*
X4829170Y-2476500D01*
G01X4897740D02*
Y-2356500D01*
X4881740Y-2380500D01*
G01Y-2476500D02*
X4913740D01*
G01X4963650Y-2458500D02*
X4971650Y-2468500D01*
X4980980Y-2474500D01*
X4992980Y-2476500D01*
X5004980Y-2472500D01*
X5014310Y-2464500D01*
X5020980Y-2450500D01*
X5022310Y-2434500D01*
X5019650Y-2418500D01*
X5012980Y-2408500D01*
X5003650Y-2400500D01*
X4994310Y-2398500D01*
X4984980Y-2400500D01*
X4972980Y-2408500D01*
X4976980Y-2356500D01*
X5012980D01*
G01X4775830Y-2032000D02*
Y-1912000D01*
X4809170D01*
X4819830Y-1918000D01*
X4826500Y-1926000D01*
X4829170Y-1942000D01*
X4826500Y-1958000D01*
X4818500Y-1968000D01*
X4809170Y-1974000D01*
X4775830D01*
G01X4809170D02*
X4829170Y-2032000D01*
G01X4897740D02*
Y-1912000D01*
X4881740Y-1936000D01*
G01Y-2032000D02*
X4913740D01*
G01X4963650Y-2008000D02*
X4971650Y-2022000D01*
X4982310Y-2030000D01*
X4994310Y-2032000D01*
X5004980Y-2030000D01*
X5015650Y-2020000D01*
X5022310Y-2008000D01*
X5023650Y-1996000D01*
X5020980Y-1982000D01*
X5011650Y-1972000D01*
X5002310Y-1968000D01*
X4990310D01*
G01X5002310D02*
X5010310Y-1962000D01*
X5016980Y-1952000D01*
X5019650Y-1940000D01*
X5016980Y-1928000D01*
X5010310Y-1918000D01*
X4998310Y-1912000D01*
X4986310Y-1914000D01*
X4974310Y-1922000D01*
G01X4775830Y-1143000D02*
Y-1023000D01*
X4809170D01*
X4819830Y-1029000D01*
X4826500Y-1037000D01*
X4829170Y-1053000D01*
X4826500Y-1069000D01*
X4818500Y-1079000D01*
X4809170Y-1085000D01*
X4775830D01*
G01X4809170D02*
X4829170Y-1143000D01*
G01X4897740D02*
Y-1023000D01*
X4881740Y-1047000D01*
G01Y-1143000D02*
X4913740D01*
G01X4992980D02*
Y-1023000D01*
X4976980Y-1047000D01*
G01Y-1143000D02*
X5008980D01*
G01X4775830Y-1524000D02*
Y-1404000D01*
X4809170D01*
X4819830Y-1410000D01*
X4826500Y-1418000D01*
X4829170Y-1434000D01*
X4826500Y-1450000D01*
X4818500Y-1460000D01*
X4809170Y-1466000D01*
X4775830D01*
G01X4809170D02*
X4829170Y-1524000D01*
G01X4897740D02*
Y-1404000D01*
X4881740Y-1428000D01*
G01Y-1524000D02*
X4913740D01*
G01X4967650Y-1424000D02*
X4975650Y-1412000D01*
X4984980Y-1406000D01*
X4995650Y-1404000D01*
X5008980Y-1408000D01*
X5018310Y-1418000D01*
X5020980Y-1430000D01*
X5019650Y-1442000D01*
X5014310Y-1452000D01*
X4987650Y-1472000D01*
X4975650Y-1486000D01*
X4967650Y-1506000D01*
X4964980Y-1524000D01*
X5020980D01*
G01X5093330Y-810000D02*
X5100000Y-822000D01*
X5108000Y-830000D01*
X5117330Y-834000D01*
X5128000Y-830000D01*
X5136000Y-822000D01*
X5144000Y-810000D01*
X5146670Y-794000D01*
Y-714000D01*
G01X5185910Y-810000D02*
X5193910Y-824000D01*
X5204570Y-832000D01*
X5216570Y-834000D01*
X5227240Y-832000D01*
X5237910Y-822000D01*
X5244570Y-810000D01*
X5245910Y-798000D01*
X5243240Y-784000D01*
X5233910Y-774000D01*
X5224570Y-770000D01*
X5212570D01*
G01X5224570D02*
X5232570Y-764000D01*
X5239240Y-754000D01*
X5241910Y-742000D01*
X5239240Y-730000D01*
X5232570Y-720000D01*
X5220570Y-714000D01*
X5208570Y-716000D01*
X5196570Y-724000D01*
G01X4775830Y-698500D02*
Y-578500D01*
X4809170D01*
X4819830Y-584500D01*
X4826500Y-592500D01*
X4829170Y-608500D01*
X4826500Y-624500D01*
X4818500Y-634500D01*
X4809170Y-640500D01*
X4775830D01*
G01X4809170D02*
X4829170Y-698500D01*
G01X4897740D02*
Y-578500D01*
X4881740Y-602500D01*
G01Y-698500D02*
X4913740D01*
G01X4992980Y-578500D02*
X4982310Y-582500D01*
X4974310Y-592500D01*
X4968980Y-604500D01*
X4964980Y-620500D01*
X4963650Y-638500D01*
X4964980Y-656500D01*
X4968980Y-672500D01*
X4974310Y-684500D01*
X4982310Y-694500D01*
X4992980Y-698500D01*
X5003650Y-694500D01*
X5011650Y-684500D01*
X5016980Y-672500D01*
X5020980Y-656500D01*
X5022310Y-638500D01*
X5020980Y-620500D01*
X5016980Y-604500D01*
X5011650Y-592500D01*
X5003650Y-582500D01*
X4992980Y-578500D01*
G54D11*
G01X-2254300Y-1206500D02*
G03X-2540000Y-920800I-285700J0D01*
G01D02*
G03X-2825700Y-1206500I0J-285700D01*
G01D02*
G03X-2540000Y-1492200I285700J0D01*
G01D02*
G03X-2254300Y-1206500I0J285700D01*
G01X-1555800D02*
G03X-1841500Y-920800I-285700J0D01*
G01D02*
G03X-2127200Y-1206500I0J-285700D01*
G01D02*
G03X-1841500Y-1492200I285700J0D01*
G01D02*
G03X-1555800Y-1206500I0J285700D01*
G01Y-508000D02*
G03X-1841500Y-222300I-285700J0D01*
G01D02*
G03X-2127200Y-508000I0J-285700D01*
G01D02*
G03X-1841500Y-793700I285700J0D01*
G01D02*
G03X-1555800Y-508000I0J285700D01*
G01X-254000Y-317500D02*
X889000D01*
G01X-254000Y-825500D02*
Y-317500D01*
G01X889000Y-825500D02*
X-254000D01*
G01X889000Y-317500D02*
Y-825500D01*
G01X1968500Y-2222500D02*
Y-2476500D01*
G01D02*
Y-2730500D01*
G01D02*
Y-2984500D01*
G01D02*
Y-3124200D01*
G01D02*
X1714500D01*
G01D02*
Y-1828800D01*
G01X1968500D02*
Y-1968500D01*
G01D02*
Y-2222500D01*
G01X1714500Y-1828800D02*
X1968500D01*
G01X2032000Y-2159000D02*
Y-1651000D01*
G01X3175000Y-2159000D02*
X2032000D01*
G01Y-1651000D02*
X3175000D01*
G01X3873500Y-3238500D02*
X3619500D01*
G01D02*
X3479800D01*
G01D02*
Y-2984500D01*
G01D02*
X4775200D01*
G01X3175000Y-1651000D02*
Y-2159000D01*
G01X3524300Y-1079500D02*
G03X3841700Y-762000I0J317400D01*
G01X3524300Y-444500D02*
G03Y-1079500I0J-317500D01*
G01X3841700Y-762000D02*
G03X3524300Y-444500I-317400J100D01*
G01X4635500Y-3238500D02*
X4381500D01*
G01D02*
X4127500D01*
G01D02*
X3873500D01*
G01X4775200D02*
X4635500D01*
G01X4775200Y-2984500D02*
Y-3238500D01*
G01X5334000Y-1524000D02*
Y-1778000D01*
G01D02*
Y-2032000D01*
G01D02*
Y-2171700D01*
G01D02*
X5080000D01*
G01D02*
Y-876300D01*
G01X5334000D02*
Y-1016000D01*
G01D02*
Y-1270000D01*
G01D02*
Y-1524000D01*
G01X5080000Y-876300D02*
X5334000D01*
G54D12*
G01X-575300Y-2343700D02*
X-432600D01*
G01X2028200Y-629200D02*
X2170900D01*
G54D13*
G01X-2148840Y-3314700D02*
Y-2908300D01*
G01X-1452880Y-3314700D02*
X-2148840D01*
G01X-1470660Y-2870200D02*
X-2166620D01*
G01Y-2463800D02*
X-1470660D01*
G01X-2166620Y-2870200D02*
Y-2463800D01*
G01X-2148840Y-2908300D02*
X-1452880D01*
G01X-1470660Y-1981200D02*
X-2166620D01*
G01D02*
Y-1574800D01*
G01X-1470660Y-2425700D02*
X-2166620D01*
G01Y-2019300D02*
X-1470660D01*
G01X-2166620Y-2425700D02*
Y-2019300D01*
G01Y-1574800D02*
X-1470660D01*
G01X-1452880Y-2908300D02*
Y-3314700D01*
G01X-1470660Y-2463800D02*
Y-2870200D01*
G01X-518160Y-1981200D02*
X-1214120D01*
G01D02*
Y-1574800D01*
G01X-1470660D02*
Y-1981200D01*
G01Y-2019300D02*
Y-2425700D01*
G01X-1214120Y-1574800D02*
X-518160D01*
G01X-645160Y-1282700D02*
X-1341120D01*
G01D02*
Y-876300D01*
G01X-1196340Y-368300D02*
X-500380D01*
G01X-1196340Y-774700D02*
Y-368300D01*
G01X-500380Y-774700D02*
X-1196340D01*
G01X-1341120Y-876300D02*
X-645160D01*
G01X-518160Y-1574800D02*
Y-1981200D01*
G01X-645160Y-876300D02*
Y-1282700D01*
G01X116840D02*
X-579120D01*
G01D02*
Y-876300D01*
G01X-500380Y-368300D02*
Y-774700D01*
G01X-579120Y-876300D02*
X116840D01*
G01X1450340Y-3251200D02*
X754380D01*
G01D02*
Y-2844800D01*
G01D02*
X1450340D01*
G01Y-2806700D02*
X754380D01*
G01D02*
Y-2400300D01*
G01D02*
X1450340D01*
G01Y-2362200D02*
X754380D01*
G01Y-1955800D02*
X1450340D01*
G01X754380Y-2362200D02*
Y-1955800D01*
G01X1450340Y-1917700D02*
X754380D01*
G01D02*
Y-1511300D01*
G01D02*
X1450340D01*
G01X116840Y-876300D02*
Y-1282700D01*
G01X878840D02*
X182880D01*
G01D02*
Y-876300D01*
G01D02*
X878840D01*
G01X1450340Y-2844800D02*
Y-3251200D01*
G01Y-2400300D02*
Y-2806700D01*
G01Y-1955800D02*
Y-2362200D01*
G01Y-1511300D02*
Y-1917700D01*
G01X878840Y-876300D02*
Y-1282700D01*
G01X1704340Y-774700D02*
X1008380D01*
G01Y-368300D02*
X1704340D01*
G01X1008380Y-774700D02*
Y-368300D01*
G01X2847340Y-3314700D02*
X2151380D01*
G01D02*
Y-2908300D01*
G01D02*
X2847340D01*
G01Y-2679700D02*
X2151380D01*
G01D02*
Y-2273300D01*
G01D02*
X2847340D01*
G01X1704340Y-368300D02*
Y-774700D01*
G01X2847340Y-2908300D02*
Y-3314700D01*
G01Y-2273300D02*
Y-2679700D01*
G01X3609340D02*
X2913380D01*
G01D02*
Y-2273300D01*
G01D02*
X3609340D01*
G01D02*
Y-2679700D01*
G01X4752340Y-2489200D02*
X4056380D01*
G01D02*
Y-2082800D01*
G01X4752340Y-2044700D02*
X4056380D01*
G01D02*
Y-1638300D01*
G01Y-2082800D02*
X4752340D01*
G01Y-1155700D02*
X4056380D01*
G01D02*
Y-749300D01*
G01X4752340Y-1600200D02*
X4056380D01*
G01Y-1193800D02*
X4752340D01*
G01X4056380Y-1600200D02*
Y-1193800D01*
G01Y-1638300D02*
X4752340D01*
G01Y-711200D02*
X4056380D01*
G01Y-304800D02*
X4752340D01*
G01X4056380Y-711200D02*
Y-304800D01*
G01Y-749300D02*
X4752340D01*
G01Y-2082800D02*
Y-2489200D01*
G01Y-1638300D02*
Y-2044700D01*
G01Y-749300D02*
Y-1155700D01*
G01Y-1193800D02*
Y-1600200D01*
G01Y-304800D02*
Y-711200D01*
M02*
