G04 ================== begin FILE IDENTIFICATION RECORD ==================*
G04 Layout Name:  C:/Users/user/Desktop/workspace/avrusb/allegro/AVRUSB500.brd*
G04 Film Name:    SilkTop*
G04 File Format:  Gerber RS274X*
G04 File Origin:  Cadence Allegro 16.6-S034*
G04 Origin Date:  Fri Jul 19 14:12:34 2019*
G04 *
G04 Layer:  MANUFACTURING/AUTOSILK_TOP*
G04 *
G04 Offset:    (0.0000 0.0000)*
G04 Mirror:    No*
G04 Mode:      Positive*
G04 Rotation:  0*
G04 FullContactRelief:  No*
G04 UndefLineWidth:     0.0000*
G04 ================== end FILE IDENTIFICATION RECORD ====================*
%FSLAX55Y55*MOMM*%
%IR0*IPPOS*OFA0.00000B0.00000*MIA0B0*SFA1.00000B1.00000*%
%ADD10C,.2*%
%ADD11C,.203*%
%ADD12C,.254*%
G75*
%LPD*%
G75*
G54D10*
G01X788030Y2642100D02*
X780030Y2648100D01*
X770700Y2652100D01*
X760030D01*
X748030Y2646100D01*
X738700Y2636100D01*
X732030Y2624100D01*
X726700Y2604100D01*
X725370Y2586100D01*
X728030Y2568100D01*
X732030Y2556100D01*
X740030Y2544100D01*
X749370Y2536100D01*
X758700Y2532100D01*
X768030D01*
X777370Y2536100D01*
X785370Y2542100D01*
X792030Y2550100D01*
G01X831270Y2546100D02*
X840610Y2536100D01*
X851270Y2532100D01*
X861940Y2536100D01*
X871270Y2548100D01*
X877940Y2566100D01*
X880610Y2584100D01*
Y2606100D01*
X877940Y2624100D01*
X871270Y2640100D01*
X863270Y2648100D01*
X853940Y2652100D01*
X843270Y2648100D01*
X835270Y2640100D01*
X829940Y2628100D01*
X827270Y2612100D01*
X829940Y2598100D01*
X836610Y2584100D01*
X844610Y2576100D01*
X853940Y2574100D01*
X864610Y2578100D01*
X872610Y2588100D01*
X880610Y2606100D01*
G01X610230Y3454900D02*
X602230Y3460900D01*
X592900Y3464900D01*
X582230D01*
X570230Y3458900D01*
X560900Y3448900D01*
X554230Y3436900D01*
X548900Y3416900D01*
X547570Y3398900D01*
X550230Y3380900D01*
X554230Y3368900D01*
X562230Y3356900D01*
X571570Y3348900D01*
X580900Y3344900D01*
X590230D01*
X599570Y3348900D01*
X607570Y3354900D01*
X614230Y3362900D01*
G01X646810D02*
X654810Y3352900D01*
X664140Y3346900D01*
X676140Y3344900D01*
X688140Y3348900D01*
X697470Y3356900D01*
X704140Y3370900D01*
X705470Y3386900D01*
X702810Y3402900D01*
X696140Y3412900D01*
X686810Y3420900D01*
X677470Y3422900D01*
X668140Y3420900D01*
X656140Y3412900D01*
X660140Y3464900D01*
X696140D01*
G01X1219830Y1992500D02*
X1226500Y1980500D01*
X1234500Y1972500D01*
X1243830Y1968500D01*
X1254500Y1972500D01*
X1262500Y1980500D01*
X1270500Y1992500D01*
X1273170Y2008500D01*
Y2088500D01*
G01X1316410Y2068500D02*
X1324410Y2080500D01*
X1333740Y2086500D01*
X1344410Y2088500D01*
X1357740Y2084500D01*
X1367070Y2074500D01*
X1369740Y2062500D01*
X1368410Y2050500D01*
X1363070Y2040500D01*
X1336410Y2020500D01*
X1324410Y2006500D01*
X1316410Y1986500D01*
X1313740Y1968500D01*
X1369740D01*
G01X1275830Y4047000D02*
X1267830Y4053000D01*
X1258500Y4057000D01*
X1247830D01*
X1235830Y4051000D01*
X1226500Y4041000D01*
X1219830Y4029000D01*
X1214500Y4009000D01*
X1213170Y3991000D01*
X1215830Y3973000D01*
X1219830Y3961000D01*
X1227830Y3949000D01*
X1237170Y3941000D01*
X1246500Y3937000D01*
X1255830D01*
X1265170Y3941000D01*
X1273170Y3947000D01*
X1279830Y3955000D01*
G01X1316410Y3987000D02*
X1325740Y4001000D01*
X1333740Y4009000D01*
X1344410Y4013000D01*
X1353740Y4009000D01*
X1360410Y4001000D01*
X1365740Y3989000D01*
X1367070Y3975000D01*
X1365740Y3963000D01*
X1360410Y3951000D01*
X1352410Y3941000D01*
X1343070Y3937000D01*
X1332410Y3941000D01*
X1323070Y3953000D01*
X1317740Y3971000D01*
X1316410Y3991000D01*
X1319070Y4017000D01*
X1323070Y4031000D01*
X1329740Y4045000D01*
X1339070Y4055000D01*
X1348410Y4057000D01*
X1357740Y4053000D01*
X1364410Y4043000D01*
G01X2413930Y490430D02*
X2405930Y496430D01*
X2396600Y500430D01*
X2385930D01*
X2373930Y494430D01*
X2364600Y484430D01*
X2357930Y472430D01*
X2352600Y452430D01*
X2351270Y434430D01*
X2353930Y416430D01*
X2357930Y404430D01*
X2365930Y392430D01*
X2375270Y384430D01*
X2384600Y380430D01*
X2393930D01*
X2403270Y384430D01*
X2411270Y390430D01*
X2417930Y398430D01*
G01X2495840Y380430D02*
Y500430D01*
X2446510Y414430D01*
X2513170D01*
G01X2489830Y3556000D02*
Y3676000D01*
X2523170D01*
X2533830Y3670000D01*
X2540500Y3662000D01*
X2543170Y3646000D01*
X2540500Y3630000D01*
X2532500Y3620000D01*
X2523170Y3614000D01*
X2489830D01*
G01X2523170D02*
X2543170Y3556000D01*
G01X2611740D02*
Y3676000D01*
X2595740Y3652000D01*
G01Y3556000D02*
X2627740D01*
G01X2807330Y1587500D02*
Y1707500D01*
X2840670D01*
X2851330Y1701500D01*
X2858000Y1693500D01*
X2860670Y1677500D01*
X2858000Y1661500D01*
X2850000Y1651500D01*
X2840670Y1645500D01*
X2807330D01*
G01X2840670D02*
X2860670Y1587500D01*
G01X2899910Y1605500D02*
X2907910Y1595500D01*
X2917240Y1589500D01*
X2929240Y1587500D01*
X2941240Y1591500D01*
X2950570Y1599500D01*
X2957240Y1613500D01*
X2958570Y1629500D01*
X2955910Y1645500D01*
X2949240Y1655500D01*
X2939910Y1663500D01*
X2930570Y1665500D01*
X2921240Y1663500D01*
X2909240Y1655500D01*
X2913240Y1707500D01*
X2949240D01*
G01X2807330Y1206500D02*
Y1326500D01*
X2840670D01*
X2851330Y1320500D01*
X2858000Y1312500D01*
X2860670Y1296500D01*
X2858000Y1280500D01*
X2850000Y1270500D01*
X2840670Y1264500D01*
X2807330D01*
G01X2840670D02*
X2860670Y1206500D01*
G01X2929240D02*
X2938570Y1208500D01*
X2949240Y1214500D01*
X2955910Y1224500D01*
X2958570Y1238500D01*
X2955910Y1252500D01*
X2947910Y1264500D01*
X2935910Y1270500D01*
X2922570D01*
X2914570Y1274500D01*
X2907910Y1284500D01*
X2905240Y1298500D01*
X2909240Y1312500D01*
X2918570Y1322500D01*
X2929240Y1326500D01*
X2939910Y1322500D01*
X2949240Y1312500D01*
X2953240Y1298500D01*
X2950570Y1284500D01*
X2943910Y1274500D01*
X2935910Y1270500D01*
X2922570D01*
X2910570Y1264500D01*
X2902570Y1252500D01*
X2899910Y1238500D01*
X2902570Y1224500D01*
X2909240Y1214500D01*
X2919910Y1208500D01*
X2929240Y1206500D01*
G01X2807330Y1968500D02*
Y2088500D01*
X2840670D01*
X2851330Y2082500D01*
X2858000Y2074500D01*
X2860670Y2058500D01*
X2858000Y2042500D01*
X2850000Y2032500D01*
X2840670Y2026500D01*
X2807330D01*
G01X2840670D02*
X2860670Y1968500D01*
G01X2903910Y2018500D02*
X2913240Y2032500D01*
X2921240Y2040500D01*
X2931910Y2044500D01*
X2941240Y2040500D01*
X2947910Y2032500D01*
X2953240Y2020500D01*
X2954570Y2006500D01*
X2953240Y1994500D01*
X2947910Y1982500D01*
X2939910Y1972500D01*
X2930570Y1968500D01*
X2919910Y1972500D01*
X2910570Y1984500D01*
X2905240Y2002500D01*
X2903910Y2022500D01*
X2906570Y2048500D01*
X2910570Y2062500D01*
X2917240Y2076500D01*
X2926570Y2086500D01*
X2935910Y2088500D01*
X2945240Y2084500D01*
X2951910Y2074500D01*
G01X2807330Y2349500D02*
Y2469500D01*
X2840670D01*
X2851330Y2463500D01*
X2858000Y2455500D01*
X2860670Y2439500D01*
X2858000Y2423500D01*
X2850000Y2413500D01*
X2840670Y2407500D01*
X2807330D01*
G01X2840670D02*
X2860670Y2349500D01*
G01X2926570D02*
X2929240Y2375500D01*
X2933240Y2397500D01*
X2938570Y2417500D01*
X2945240Y2439500D01*
X2955910Y2469500D01*
X2902570D01*
G01X2926830Y3348500D02*
X2918830Y3354500D01*
X2909500Y3358500D01*
X2898830D01*
X2886830Y3352500D01*
X2877500Y3342500D01*
X2870830Y3330500D01*
X2865500Y3310500D01*
X2864170Y3292500D01*
X2866830Y3274500D01*
X2870830Y3262500D01*
X2878830Y3250500D01*
X2888170Y3242500D01*
X2897500Y3238500D01*
X2906830D01*
X2916170Y3242500D01*
X2924170Y3248500D01*
X2930830Y3256500D01*
G01X2992740Y3238500D02*
Y3358500D01*
X2976740Y3334500D01*
G01Y3238500D02*
X3008740D01*
G01X3439670Y2088500D02*
Y2002500D01*
X3445000Y1984500D01*
X3455670Y1972500D01*
X3469000Y1968500D01*
X3482330Y1972500D01*
X3493000Y1984500D01*
X3498330Y2002500D01*
Y2088500D01*
G01X3564240Y1968500D02*
Y2088500D01*
X3548240Y2064500D01*
G01Y1968500D02*
X3580240D01*
G01X3561830Y3348500D02*
X3553830Y3354500D01*
X3544500Y3358500D01*
X3533830D01*
X3521830Y3352500D01*
X3512500Y3342500D01*
X3505830Y3330500D01*
X3500500Y3310500D01*
X3499170Y3292500D01*
X3501830Y3274500D01*
X3505830Y3262500D01*
X3513830Y3250500D01*
X3523170Y3242500D01*
X3532500Y3238500D01*
X3541830D01*
X3551170Y3242500D01*
X3559170Y3248500D01*
X3565830Y3256500D01*
G01X3602410Y3338500D02*
X3610410Y3350500D01*
X3619740Y3356500D01*
X3630410Y3358500D01*
X3643740Y3354500D01*
X3653070Y3344500D01*
X3655740Y3332500D01*
X3654410Y3320500D01*
X3649070Y3310500D01*
X3622410Y3290500D01*
X3610410Y3276500D01*
X3602410Y3256500D01*
X3599740Y3238500D01*
X3655740D01*
G01X3532500Y4064000D02*
Y4118000D01*
X3505830Y4184000D01*
G01X3559170D02*
X3532500Y4118000D01*
G01X3602410Y4164000D02*
X3610410Y4176000D01*
X3619740Y4182000D01*
X3630410Y4184000D01*
X3643740Y4180000D01*
X3653070Y4170000D01*
X3655740Y4158000D01*
X3654410Y4146000D01*
X3649070Y4136000D01*
X3622410Y4116000D01*
X3610410Y4102000D01*
X3602410Y4082000D01*
X3599740Y4064000D01*
X3655740D01*
G01X4260330Y3348500D02*
X4252330Y3354500D01*
X4243000Y3358500D01*
X4232330D01*
X4220330Y3352500D01*
X4211000Y3342500D01*
X4204330Y3330500D01*
X4199000Y3310500D01*
X4197670Y3292500D01*
X4200330Y3274500D01*
X4204330Y3262500D01*
X4212330Y3250500D01*
X4221670Y3242500D01*
X4231000Y3238500D01*
X4240330D01*
X4249670Y3242500D01*
X4257670Y3248500D01*
X4264330Y3256500D01*
G01X4296910Y3262500D02*
X4304910Y3248500D01*
X4315570Y3240500D01*
X4327570Y3238500D01*
X4338240Y3240500D01*
X4348910Y3250500D01*
X4355570Y3262500D01*
X4356910Y3274500D01*
X4354240Y3288500D01*
X4344910Y3298500D01*
X4335570Y3302500D01*
X4323570D01*
G01X4335570D02*
X4343570Y3308500D01*
X4350240Y3318500D01*
X4352910Y3330500D01*
X4350240Y3342500D01*
X4343570Y3352500D01*
X4331570Y3358500D01*
X4319570Y3356500D01*
X4307570Y3348500D01*
G01X5093330Y3937000D02*
Y4057000D01*
X5126670D01*
X5137330Y4051000D01*
X5144000Y4043000D01*
X5146670Y4027000D01*
X5144000Y4011000D01*
X5136000Y4001000D01*
X5126670Y3995000D01*
X5093330D01*
G01X5126670D02*
X5146670Y3937000D01*
G01X5192570Y3951000D02*
X5201910Y3941000D01*
X5212570Y3937000D01*
X5223240Y3941000D01*
X5232570Y3953000D01*
X5239240Y3971000D01*
X5241910Y3989000D01*
Y4011000D01*
X5239240Y4029000D01*
X5232570Y4045000D01*
X5224570Y4053000D01*
X5215240Y4057000D01*
X5204570Y4053000D01*
X5196570Y4045000D01*
X5191240Y4033000D01*
X5188570Y4017000D01*
X5191240Y4003000D01*
X5197910Y3989000D01*
X5205910Y3981000D01*
X5215240Y3979000D01*
X5225910Y3983000D01*
X5233910Y3993000D01*
X5241910Y4011000D01*
G01X6299830Y532000D02*
X6306500Y520000D01*
X6314500Y512000D01*
X6323830Y508000D01*
X6334500Y512000D01*
X6342500Y520000D01*
X6350500Y532000D01*
X6353170Y548000D01*
Y628000D01*
G01X6421740Y508000D02*
Y628000D01*
X6405740Y604000D01*
G01Y508000D02*
X6437740D01*
G01X5728330D02*
Y628000D01*
X5761670D01*
X5772330Y622000D01*
X5779000Y614000D01*
X5781670Y598000D01*
X5779000Y582000D01*
X5771000Y572000D01*
X5761670Y566000D01*
X5728330D01*
G01X5761670D02*
X5781670Y508000D01*
G01X5850240D02*
Y628000D01*
X5834240Y604000D01*
G01Y508000D02*
X5866240D01*
G01X5961480D02*
Y628000D01*
X5912150Y542000D01*
X5978810D01*
G01X5728330Y889000D02*
Y1009000D01*
X5761670D01*
X5772330Y1003000D01*
X5779000Y995000D01*
X5781670Y979000D01*
X5779000Y963000D01*
X5771000Y953000D01*
X5761670Y947000D01*
X5728330D01*
G01X5761670D02*
X5781670Y889000D01*
G01X5866240D02*
Y1009000D01*
X5816910Y923000D01*
X5883570D01*
G01X5728330Y1651000D02*
Y1771000D01*
X5761670D01*
X5772330Y1765000D01*
X5779000Y1757000D01*
X5781670Y1741000D01*
X5779000Y1725000D01*
X5771000Y1715000D01*
X5761670Y1709000D01*
X5728330D01*
G01X5761670D02*
X5781670Y1651000D01*
G01X5824910Y1751000D02*
X5832910Y1763000D01*
X5842240Y1769000D01*
X5852910Y1771000D01*
X5866240Y1767000D01*
X5875570Y1757000D01*
X5878240Y1745000D01*
X5876910Y1733000D01*
X5871570Y1723000D01*
X5844910Y1703000D01*
X5832910Y1689000D01*
X5824910Y1669000D01*
X5822240Y1651000D01*
X5878240D01*
G01X5728330Y1270000D02*
Y1390000D01*
X5761670D01*
X5772330Y1384000D01*
X5779000Y1376000D01*
X5781670Y1360000D01*
X5779000Y1344000D01*
X5771000Y1334000D01*
X5761670Y1328000D01*
X5728330D01*
G01X5761670D02*
X5781670Y1270000D01*
G01X5820910Y1294000D02*
X5828910Y1280000D01*
X5839570Y1272000D01*
X5851570Y1270000D01*
X5862240Y1272000D01*
X5872910Y1282000D01*
X5879570Y1294000D01*
X5880910Y1306000D01*
X5878240Y1320000D01*
X5868910Y1330000D01*
X5859570Y1334000D01*
X5847570D01*
G01X5859570D02*
X5867570Y1340000D01*
X5874240Y1350000D01*
X5876910Y1362000D01*
X5874240Y1374000D01*
X5867570Y1384000D01*
X5855570Y1390000D01*
X5843570Y1388000D01*
X5831570Y1380000D01*
G01X7181330Y491000D02*
X7173330Y497000D01*
X7164000Y501000D01*
X7153330D01*
X7141330Y495000D01*
X7132000Y485000D01*
X7125330Y473000D01*
X7120000Y453000D01*
X7118670Y435000D01*
X7121330Y417000D01*
X7125330Y405000D01*
X7133330Y393000D01*
X7142670Y385000D01*
X7152000Y381000D01*
X7161330D01*
X7170670Y385000D01*
X7178670Y391000D01*
X7185330Y399000D01*
G01X7247240Y381000D02*
Y501000D01*
X7231240Y477000D01*
G01Y381000D02*
X7263240D01*
G01X7342480Y501000D02*
X7331810Y497000D01*
X7323810Y487000D01*
X7318480Y475000D01*
X7314480Y459000D01*
X7313150Y441000D01*
X7314480Y423000D01*
X7318480Y407000D01*
X7323810Y395000D01*
X7331810Y385000D01*
X7342480Y381000D01*
X7353150Y385000D01*
X7361150Y395000D01*
X7366480Y407000D01*
X7370480Y423000D01*
X7371810Y441000D01*
X7370480Y459000D01*
X7366480Y475000D01*
X7361150Y487000D01*
X7353150Y497000D01*
X7342480Y501000D01*
G01X6501000Y3612500D02*
X6533000D01*
G01X6517000D02*
Y3492500D01*
G01X6501000D02*
X6533000D01*
G01X6641570Y3602500D02*
X6633570Y3608500D01*
X6624240Y3612500D01*
X6613570D01*
X6601570Y3606500D01*
X6592240Y3596500D01*
X6585570Y3584500D01*
X6580240Y3564500D01*
X6578910Y3546500D01*
X6581570Y3528500D01*
X6585570Y3516500D01*
X6593570Y3504500D01*
X6602910Y3496500D01*
X6612240Y3492500D01*
X6621570D01*
X6630910Y3496500D01*
X6638910Y3502500D01*
X6645570Y3510500D01*
G01X6707480Y3492500D02*
Y3612500D01*
X6691480Y3588500D01*
G01Y3492500D02*
X6723480D01*
G01X7625830Y872000D02*
X7617830Y878000D01*
X7608500Y882000D01*
X7597830D01*
X7585830Y876000D01*
X7576500Y866000D01*
X7569830Y854000D01*
X7564500Y834000D01*
X7563170Y816000D01*
X7565830Y798000D01*
X7569830Y786000D01*
X7577830Y774000D01*
X7587170Y766000D01*
X7596500Y762000D01*
X7605830D01*
X7615170Y766000D01*
X7623170Y772000D01*
X7629830Y780000D01*
G01X7689070Y762000D02*
X7691740Y788000D01*
X7695740Y810000D01*
X7701070Y830000D01*
X7707740Y852000D01*
X7718410Y882000D01*
X7665070D01*
G01X7884670Y3873500D02*
Y3993500D01*
X7911330D01*
X7922000Y3987500D01*
X7930000Y3979500D01*
X7936670Y3967500D01*
X7942000Y3953500D01*
X7943330Y3933500D01*
X7942000Y3913500D01*
X7936670Y3899500D01*
X7930000Y3887500D01*
X7922000Y3879500D01*
X7911330Y3873500D01*
X7884670D01*
G01X8009240D02*
Y3993500D01*
X7993240Y3969500D01*
G01Y3873500D02*
X8025240D01*
G01X8387830Y872000D02*
X8379830Y878000D01*
X8370500Y882000D01*
X8359830D01*
X8347830Y876000D01*
X8338500Y866000D01*
X8331830Y854000D01*
X8326500Y834000D01*
X8325170Y816000D01*
X8327830Y798000D01*
X8331830Y786000D01*
X8339830Y774000D01*
X8349170Y766000D01*
X8358500Y762000D01*
X8367830D01*
X8377170Y766000D01*
X8385170Y772000D01*
X8391830Y780000D01*
G01X8453740Y762000D02*
X8463070Y764000D01*
X8473740Y770000D01*
X8480410Y780000D01*
X8483070Y794000D01*
X8480410Y808000D01*
X8472410Y820000D01*
X8460410Y826000D01*
X8447070D01*
X8439070Y830000D01*
X8432410Y840000D01*
X8429740Y854000D01*
X8433740Y868000D01*
X8443070Y878000D01*
X8453740Y882000D01*
X8464410Y878000D01*
X8473740Y868000D01*
X8477740Y854000D01*
X8475070Y840000D01*
X8468410Y830000D01*
X8460410Y826000D01*
X8447070D01*
X8435070Y820000D01*
X8427070Y808000D01*
X8424410Y794000D01*
X8427070Y780000D01*
X8433740Y770000D01*
X8444410Y764000D01*
X8453740Y762000D01*
G01X8168000Y2159000D02*
Y2213000D01*
X8141330Y2279000D01*
G01X8194670D02*
X8168000Y2213000D01*
G01X8263240Y2159000D02*
Y2279000D01*
X8247240Y2255000D01*
G01Y2159000D02*
X8279240D01*
G01X8839830Y595500D02*
X8846500Y583500D01*
X8854500Y575500D01*
X8863830Y571500D01*
X8874500Y575500D01*
X8882500Y583500D01*
X8890500Y595500D01*
X8893170Y611500D01*
Y691500D01*
G01X8977740Y571500D02*
Y691500D01*
X8928410Y605500D01*
X8995070D01*
G01X8776330Y2476500D02*
Y2596500D01*
X8809670D01*
X8820330Y2590500D01*
X8827000Y2582500D01*
X8829670Y2566500D01*
X8827000Y2550500D01*
X8819000Y2540500D01*
X8809670Y2534500D01*
X8776330D01*
G01X8809670D02*
X8829670Y2476500D01*
G01X8898240D02*
Y2596500D01*
X8882240Y2572500D01*
G01Y2476500D02*
X8914240D01*
G01X8964150Y2500500D02*
X8972150Y2486500D01*
X8982810Y2478500D01*
X8994810Y2476500D01*
X9005480Y2478500D01*
X9016150Y2488500D01*
X9022810Y2500500D01*
X9024150Y2512500D01*
X9021480Y2526500D01*
X9012150Y2536500D01*
X9002810Y2540500D01*
X8990810D01*
G01X9002810D02*
X9010810Y2546500D01*
X9017480Y2556500D01*
X9020150Y2568500D01*
X9017480Y2580500D01*
X9010810Y2590500D01*
X8998810Y2596500D01*
X8986810Y2594500D01*
X8974810Y2586500D01*
G01X8776330Y2095500D02*
Y2215500D01*
X8809670D01*
X8820330Y2209500D01*
X8827000Y2201500D01*
X8829670Y2185500D01*
X8827000Y2169500D01*
X8819000Y2159500D01*
X8809670Y2153500D01*
X8776330D01*
G01X8809670D02*
X8829670Y2095500D01*
G01X8898240D02*
Y2215500D01*
X8882240Y2191500D01*
G01Y2095500D02*
X8914240D01*
G01X8964150Y2113500D02*
X8972150Y2103500D01*
X8981480Y2097500D01*
X8993480Y2095500D01*
X9005480Y2099500D01*
X9014810Y2107500D01*
X9021480Y2121500D01*
X9022810Y2137500D01*
X9020150Y2153500D01*
X9013480Y2163500D01*
X9004150Y2171500D01*
X8994810Y2173500D01*
X8985480Y2171500D01*
X8973480Y2163500D01*
X8977480Y2215500D01*
X9013480D01*
G01X8776330Y3238500D02*
Y3358500D01*
X8809670D01*
X8820330Y3352500D01*
X8827000Y3344500D01*
X8829670Y3328500D01*
X8827000Y3312500D01*
X8819000Y3302500D01*
X8809670Y3296500D01*
X8776330D01*
G01X8809670D02*
X8829670Y3238500D01*
G01X8898240D02*
Y3358500D01*
X8882240Y3334500D01*
G01Y3238500D02*
X8914240D01*
G01X8993480D02*
Y3358500D01*
X8977480Y3334500D01*
G01Y3238500D02*
X9009480D01*
G01X8776330Y2857500D02*
Y2977500D01*
X8809670D01*
X8820330Y2971500D01*
X8827000Y2963500D01*
X8829670Y2947500D01*
X8827000Y2931500D01*
X8819000Y2921500D01*
X8809670Y2915500D01*
X8776330D01*
G01X8809670D02*
X8829670Y2857500D01*
G01X8898240D02*
Y2977500D01*
X8882240Y2953500D01*
G01Y2857500D02*
X8914240D01*
G01X8968150Y2957500D02*
X8976150Y2969500D01*
X8985480Y2975500D01*
X8996150Y2977500D01*
X9009480Y2973500D01*
X9018810Y2963500D01*
X9021480Y2951500D01*
X9020150Y2939500D01*
X9014810Y2929500D01*
X8988150Y2909500D01*
X8976150Y2895500D01*
X8968150Y2875500D01*
X8965480Y2857500D01*
X9021480D01*
G01X8776330Y3619500D02*
Y3739500D01*
X8809670D01*
X8820330Y3733500D01*
X8827000Y3725500D01*
X8829670Y3709500D01*
X8827000Y3693500D01*
X8819000Y3683500D01*
X8809670Y3677500D01*
X8776330D01*
G01X8809670D02*
X8829670Y3619500D01*
G01X8898240D02*
Y3739500D01*
X8882240Y3715500D01*
G01Y3619500D02*
X8914240D01*
G01X8993480Y3739500D02*
X8982810Y3735500D01*
X8974810Y3725500D01*
X8969480Y3713500D01*
X8965480Y3697500D01*
X8964150Y3679500D01*
X8965480Y3661500D01*
X8969480Y3645500D01*
X8974810Y3633500D01*
X8982810Y3623500D01*
X8993480Y3619500D01*
X9004150Y3623500D01*
X9012150Y3633500D01*
X9017480Y3645500D01*
X9021480Y3661500D01*
X9022810Y3679500D01*
X9021480Y3697500D01*
X9017480Y3713500D01*
X9012150Y3725500D01*
X9004150Y3735500D01*
X8993480Y3739500D01*
G01X10363830Y2373500D02*
X10370500Y2361500D01*
X10378500Y2353500D01*
X10387830Y2349500D01*
X10398500Y2353500D01*
X10406500Y2361500D01*
X10414500Y2373500D01*
X10417170Y2389500D01*
Y2469500D01*
G01X10456410Y2373500D02*
X10464410Y2359500D01*
X10475070Y2351500D01*
X10487070Y2349500D01*
X10497740Y2351500D01*
X10508410Y2361500D01*
X10515070Y2373500D01*
X10516410Y2385500D01*
X10513740Y2399500D01*
X10504410Y2409500D01*
X10495070Y2413500D01*
X10483070D01*
G01X10495070D02*
X10503070Y2419500D01*
X10509740Y2429500D01*
X10512410Y2441500D01*
X10509740Y2453500D01*
X10503070Y2463500D01*
X10491070Y2469500D01*
X10479070Y2467500D01*
X10467070Y2459500D01*
G54D11*
G01X1174700Y2413000D02*
G03X889000Y2698700I-285700J0D01*
G01D02*
G03X603300Y2413000I0J-285700D01*
G01D02*
G03X889000Y2127300I285700J0D01*
G01D02*
G03X1174700Y2413000I0J285700D01*
G01Y3048000D02*
G03X889000Y3333700I-285700J0D01*
G01D02*
G03X603300Y3048000I0J-285700D01*
G01D02*
G03X889000Y2762300I285700J0D01*
G01D02*
G03X1174700Y3048000I0J285700D01*
G01Y3746500D02*
G03X889000Y4032200I-285700J0D01*
G01D02*
G03X603300Y3746500I0J-285700D01*
G01D02*
G03X889000Y3460800I285700J0D01*
G01D02*
G03X1174700Y3746500I0J285700D01*
G01X2476500Y1079500D02*
X1841500D01*
G01D02*
Y1206500D01*
G01X2476500Y1460500D02*
X1841500D01*
G01Y1714500D02*
X2476500D01*
G01X1841500Y1587500D02*
Y1714500D01*
G01Y1460500D02*
Y1587500D01*
G01D02*
X1778000D01*
G01X2476500Y1841500D02*
X1841500D01*
G01D02*
Y1968500D01*
G01Y1333500D02*
X2476500D01*
G01X1841500Y1206500D02*
Y1333500D01*
G01Y1206500D02*
X1778000D01*
G01X1841500Y2095500D02*
X2476500D01*
G01X1841500Y1968500D02*
Y2095500D01*
G01Y1968500D02*
X1778000D01*
G01X2476500Y2222500D02*
X1841500D01*
G01Y2476500D02*
X2476500D01*
G01X1841500Y2349500D02*
Y2476500D01*
G01Y2222500D02*
Y2349500D01*
G01D02*
X1778000D01*
G01X2508200Y762000D02*
G03X2222500Y1047700I-285700J0D01*
G01D02*
G03X1936800Y762000I0J-285700D01*
G01D02*
G03X2222500Y476300I285700J0D01*
G01D02*
G03X2508200Y762000I0J285700D01*
G01X2476500Y1206500D02*
Y1079500D01*
G01Y1587500D02*
Y1460500D01*
G01Y1714500D02*
Y1587500D01*
G01D02*
X2540000D01*
G01X2476500Y1968500D02*
Y1841500D01*
G01Y1333500D02*
Y1206500D01*
G01D02*
X2540000D01*
G01X2476500Y2095500D02*
Y1968500D01*
G01D02*
X2540000D01*
G01X2476500Y2349500D02*
Y2222500D01*
G01Y2476500D02*
Y2349500D01*
G01D02*
X2540000D01*
G01X2667000Y3270200D02*
G03X2381300Y2984500I0J-285700D01*
G01D02*
G03X2667000Y2698800I285700J0D01*
G01X1968500Y4000500D02*
X2603500D01*
G01X1968500Y3873500D02*
Y4000500D01*
G01Y3746500D02*
Y3873500D01*
G01X2603500Y3746500D02*
X1968500D01*
G01X2603500Y3873500D02*
Y3746500D01*
G01Y4000500D02*
Y3873500D01*
G01X1968500D02*
X1905000D01*
G01X2603500D02*
X2667000D01*
G01X3587700Y2984500D02*
G03X3302000Y3270200I-285700J0D01*
G01D02*
G03X3016300Y2984500I0J-285700D01*
G01D02*
G03X3302000Y2698800I285700J0D01*
G01D02*
G03X3587700Y2984500I0J285700D01*
G01X2952700D02*
G03X2667000Y3270200I-285700J0D01*
G01Y2698800D02*
G03X2952700Y2984500I0J285700D01*
G01X3238500Y4000500D02*
X4381500D01*
G01X3238500Y3492500D02*
Y4000500D01*
G01X4381500Y3492500D02*
X3238500D01*
G01X4222700Y2984500D02*
G03X3937000Y3270200I-285700J0D01*
G01D02*
G03X3651300Y2984500I0J-285700D01*
G01D02*
G03X3937000Y2698800I285700J0D01*
G01D02*
G03X4222700Y2984500I0J285700D01*
G01X4953000Y762000D02*
X4889500D01*
G01X4953000Y1524000D02*
X4889500D01*
G01X4953000Y1143000D02*
X4889500D01*
G01X4953000Y1905000D02*
X4889500D01*
G01X4381500Y4000500D02*
Y3492500D01*
G01X5588000Y635000D02*
X4953000D01*
G01X5588000Y762000D02*
Y635000D01*
G01Y889000D02*
Y762000D01*
G01X4953000Y889000D02*
X5588000D01*
G01X4953000Y762000D02*
Y889000D01*
G01Y635000D02*
Y762000D01*
G01X5588000D02*
X5651500D01*
G01X5588000Y1016000D02*
X4953000D01*
G01X5588000Y1143000D02*
Y1016000D01*
G01X4953000D02*
Y1143000D01*
G01X5588000Y1778000D02*
X4953000D01*
G01X5588000Y1905000D02*
Y1778000D01*
G01X4953000D02*
Y1905000D01*
G01X5588000Y1397000D02*
X4953000D01*
G01X5588000Y1524000D02*
Y1397000D01*
G01Y1651000D02*
Y1524000D01*
G01X4953000Y1651000D02*
X5588000D01*
G01X4953000Y1524000D02*
Y1651000D01*
G01Y1397000D02*
Y1524000D01*
G01X5588000D02*
X5651500D01*
G01X5588000Y1270000D02*
Y1143000D01*
G01X4953000Y1270000D02*
X5588000D01*
G01X4953000Y1143000D02*
Y1270000D01*
G01X5588000Y1143000D02*
X5651500D01*
G01X5588000Y2032000D02*
Y1905000D01*
G01X4953000Y2032000D02*
X5588000D01*
G01X4953000Y1905000D02*
Y2032000D01*
G01X5588000Y1905000D02*
X5651500D01*
G01X5905500Y3683000D02*
X5270500D01*
G01Y3937000D02*
X5905500D01*
G01X5270500Y3810000D02*
Y3937000D01*
G01Y3683000D02*
Y3810000D01*
G01D02*
X5207000D01*
G01X6413500Y1333500D02*
Y1079500D01*
G01D02*
Y825500D01*
G01D02*
Y685800D01*
G01D02*
X6159500D01*
G01D02*
Y1981200D01*
G01X6413500D02*
Y1841500D01*
G01D02*
Y1587500D01*
G01D02*
Y1333500D01*
G01X6159500Y1981200D02*
X6413500D01*
G01X5905500Y3810000D02*
Y3683000D01*
G01Y3937000D02*
Y3810000D01*
G01D02*
X5969000D01*
G01X7143700Y762000D02*
G03X6858000Y1047700I-285700J0D01*
G01D02*
G03X6572300Y762000I0J-285700D01*
G01D02*
G03X6858000Y476300I285700J0D01*
G01D02*
G03X7143700Y762000I0J285700D01*
G01X7270800Y1206500D02*
G03X7556500Y920800I285700J0D01*
G01D02*
G03X7842200Y1206500I0J285700D01*
G01D02*
G03X7556500Y1492200I-285700J0D01*
G01D02*
G03X7270800Y1206500I0J-285700D01*
G01X7239000Y1587500D02*
Y2095500D01*
G01X8382000Y1587500D02*
X7239000D01*
G01Y2095500D02*
X8382000D01*
G01X7969300Y1206500D02*
G03X8255000Y920800I285700J0D01*
G01D02*
G03X8540700Y1206500I0J285700D01*
G01D02*
G03X8255000Y1492200I-285700J0D01*
G01D02*
G03X7969300Y1206500I0J-285700D01*
G01X8382000Y2095500D02*
Y1587500D01*
G01X8286700Y3238500D02*
G03Y3873500I0J317500D01*
G01X7969300Y3556000D02*
G03X8286700Y3238500I317400J-100D01*
G01Y3873500D02*
G03X7969300Y3556000I0J-317400D01*
G01X9652000Y762000D02*
X9398000D01*
G01D02*
X9144000D01*
G01D02*
X8890000D01*
G01D02*
X8750300D01*
G01D02*
Y1016000D01*
G01D02*
X10045700D01*
G01X9715500Y2540000D02*
X9080500D01*
G01D02*
Y2667000D01*
G01X9715500Y2159000D02*
X9080500D01*
G01Y2413000D02*
X9715500D01*
G01X9080500Y2286000D02*
Y2413000D01*
G01Y2159000D02*
Y2286000D01*
G01D02*
X9017000D01*
G01X9715500Y3302000D02*
X9080500D01*
G01D02*
Y3429000D01*
G01Y2794000D02*
X9715500D01*
G01X9080500Y2667000D02*
Y2794000D01*
G01Y2667000D02*
X9017000D01*
G01X9715500Y2921000D02*
X9080500D01*
G01Y3175000D02*
X9715500D01*
G01X9080500Y3048000D02*
Y3175000D01*
G01Y2921000D02*
Y3048000D01*
G01D02*
X9017000D01*
G01X9080500Y3556000D02*
X9715500D01*
G01X9080500Y3429000D02*
Y3556000D01*
G01Y3429000D02*
X9017000D01*
G01X9715500Y3683000D02*
X9080500D01*
G01Y3937000D02*
X9715500D01*
G01X9080500Y3810000D02*
Y3937000D01*
G01Y3683000D02*
Y3810000D01*
G01D02*
X9017000D01*
G01X10045700Y762000D02*
X9906000D01*
G01D02*
X9652000D01*
G01X10045700Y1016000D02*
Y762000D01*
G01X9715500Y2667000D02*
Y2540000D01*
G01Y2286000D02*
Y2159000D01*
G01Y2413000D02*
Y2286000D01*
G01D02*
X9779000D01*
G01X9715500Y3429000D02*
Y3302000D01*
G01Y2794000D02*
Y2667000D01*
G01D02*
X9779000D01*
G01X9715500Y3048000D02*
Y2921000D01*
G01Y3175000D02*
Y3048000D01*
G01D02*
X9779000D01*
G01X9715500Y3556000D02*
Y3429000D01*
G01D02*
X9779000D01*
G01X9715500Y3810000D02*
Y3683000D01*
G01Y3937000D02*
Y3810000D01*
G01D02*
X9779000D01*
G01X10541000Y2667000D02*
Y2527300D01*
G01D02*
X10287000D01*
G01D02*
Y3822700D01*
G01X10541000Y3429000D02*
Y3175000D01*
G01D02*
Y2921000D01*
G01D02*
Y2667000D01*
G01Y3822700D02*
Y3683000D01*
G01D02*
Y3429000D01*
G01X10287000Y3822700D02*
X10541000D01*
G54D12*
G01X3488700Y1720300D02*
X3631400D01*
G01X6600200Y3307800D02*
X6742900D01*
M02*
