G04 ================== begin FILE IDENTIFICATION RECORD ==================*
G04 Layout Name:  C:/Users/user/Desktop/workspace/avrusb/allegro/AVRUSB500.brd*
G04 Film Name:    SilkBot*
G04 File Format:  Gerber RS274X*
G04 File Origin:  Cadence Allegro 16.6-S034*
G04 Origin Date:  Fri Jul 19 14:12:34 2019*
G04 *
G04 Layer:  MANUFACTURING/AUTOSILK_BOTTOM*
G04 *
G04 Offset:    (0.0000 0.0000)*
G04 Mirror:    No*
G04 Mode:      Positive*
G04 Rotation:  0*
G04 FullContactRelief:  No*
G04 UndefLineWidth:     0.0000*
G04 ================== end FILE IDENTIFICATION RECORD ====================*
%FSLAX55Y55*MOMM*%
%IR0*IPPOS*OFA0.00000B0.00000*MIA0B0*SFA1.00000B1.00000*%
%ADD10C,.2*%
G75*
%LPD*%
G75*
G54D10*
G01X6201330Y2350000D02*
X6192000Y2342000D01*
X6184000Y2340000D01*
X6173330Y2344000D01*
X6165330Y2354000D01*
X6161330Y2372000D01*
Y2460000D01*
G01Y2492000D02*
X6164000Y2494000D01*
Y2498000D01*
X6161330Y2500000D01*
X6158670Y2498000D01*
Y2494000D01*
X6161330Y2492000D01*
G01X6107430Y2380000D02*
Y2500000D01*
G01Y2442000D02*
X6100760Y2452000D01*
X6094090Y2458000D01*
X6083430Y2460000D01*
X6075430Y2458000D01*
X6066090Y2450000D01*
X6062090Y2438000D01*
Y2380000D01*
G01X6017520Y2344000D02*
X6009520Y2340000D01*
X5998850Y2344000D01*
X5992190Y2352000D01*
X5986850Y2362000D01*
X5978850Y2394000D01*
X5961520Y2460000D01*
G01X6004190D02*
X5978850Y2394000D01*
G01X5916950Y2460000D02*
Y2404000D01*
X5911610Y2390000D01*
X5903610Y2382000D01*
X5894280Y2380000D01*
X5884950Y2382000D01*
X5876950Y2390000D01*
X5871610Y2404000D01*
G01Y2380000D02*
Y2460000D01*
G01X5821710Y2380000D02*
Y2460000D01*
G01Y2440000D02*
X5816370Y2450000D01*
X5808370Y2458000D01*
X5797710Y2460000D01*
X5788370Y2458000D01*
X5780370Y2450000D01*
X5776370Y2436000D01*
Y2380000D01*
G01X5608560D02*
Y2500000D01*
X5624560Y2476000D01*
G01Y2380000D02*
X5592560D01*
G01X5535990Y2394000D02*
X5526650Y2384000D01*
X5515990Y2380000D01*
X5505320Y2384000D01*
X5495990Y2396000D01*
X5489320Y2414000D01*
X5486650Y2432000D01*
Y2454000D01*
X5489320Y2472000D01*
X5495990Y2488000D01*
X5503990Y2496000D01*
X5513320Y2500000D01*
X5523990Y2496000D01*
X5531990Y2488000D01*
X5537320Y2476000D01*
X5539990Y2460000D01*
X5537320Y2446000D01*
X5530650Y2432000D01*
X5522650Y2424000D01*
X5513320Y2422000D01*
X5502650Y2426000D01*
X5494650Y2436000D01*
X5486650Y2454000D01*
G01X5418080Y2500000D02*
X5428750Y2496000D01*
X5436750Y2486000D01*
X5442080Y2474000D01*
X5446080Y2458000D01*
X5447410Y2440000D01*
X5446080Y2422000D01*
X5442080Y2406000D01*
X5436750Y2394000D01*
X5428750Y2384000D01*
X5418080Y2380000D01*
X5407410Y2384000D01*
X5399410Y2394000D01*
X5394080Y2406000D01*
X5390080Y2422000D01*
X5388750Y2440000D01*
X5390080Y2458000D01*
X5394080Y2474000D01*
X5399410Y2486000D01*
X5407410Y2496000D01*
X5418080Y2500000D01*
G01X5325510Y2380000D02*
X5322840Y2406000D01*
X5318840Y2428000D01*
X5313510Y2448000D01*
X5306840Y2470000D01*
X5296170Y2500000D01*
X5349510D01*
G01X5227600Y2380000D02*
Y2500000D01*
X5243600Y2476000D01*
G01Y2380000D02*
X5211600D01*
G01X5132360D02*
X5123030Y2382000D01*
X5112360Y2388000D01*
X5105690Y2398000D01*
X5103030Y2412000D01*
X5105690Y2426000D01*
X5113690Y2438000D01*
X5125690Y2444000D01*
X5139030D01*
X5147030Y2448000D01*
X5153690Y2458000D01*
X5156360Y2472000D01*
X5152360Y2486000D01*
X5143030Y2496000D01*
X5132360Y2500000D01*
X5121690Y2496000D01*
X5112360Y2486000D01*
X5108360Y2472000D01*
X5111030Y2458000D01*
X5117690Y2448000D01*
X5125690Y2444000D01*
X5139030D01*
X5151030Y2438000D01*
X5159030Y2426000D01*
X5161690Y2412000D01*
X5159030Y2398000D01*
X5152360Y2388000D01*
X5141690Y2382000D01*
X5132360Y2380000D01*
M02*
