G04 ================== begin FILE IDENTIFICATION RECORD ==================*
G04 Layout Name:  C:/Users/user/Desktop/workspace/avrusb/allegro/AVRUSB500.brd*
G04 Film Name:    SilkT*
G04 File Format:  Gerber RS274X*
G04 File Origin:  Cadence Allegro 16.6-S034*
G04 Origin Date:  Fri Jul 19 14:12:34 2019*
G04 *
G04 Layer:  REF DES/SILKSCREEN_TOP*
G04 Layer:  PACKAGE GEOMETRY/SILKSCREEN_TOP*
G04 Layer:  BOARD GEOMETRY/SILKSCREEN_TOP*
G04 *
G04 Offset:    (0.0000 0.0000)*
G04 Mirror:    No*
G04 Mode:      Positive*
G04 Rotation:  0*
G04 FullContactRelief:  No*
G04 UndefLineWidth:     0.2000*
G04 ================== end FILE IDENTIFICATION RECORD ====================*
%FSLAX55Y55*MOMM*%
%IR0*IPPOS*OFA0.00000B0.00000*MIA0B0*SFA1.00000B1.00000*%
%ADD10C,.203*%
%ADD11C,.254*%
%ADD12C,.2*%
G75*
%LPD*%
G75*
G54D10*
G01X1174700Y2413000D02*
G02I-285700J0D01*
G01Y3048000D02*
G02I-285700J0D01*
G01Y3746500D02*
G02I-285700J0D01*
G01X1841500Y1079500D02*
Y1206500D01*
G01X2476500Y1079500D02*
X1841500D01*
G01Y1587500D02*
X1778000D01*
G01X1841500Y1460500D02*
Y1587500D01*
G01D02*
Y1714500D01*
G01D02*
X2476500D01*
G01Y1460500D02*
X1841500D01*
G01Y1841500D02*
Y1968500D01*
G01X2476500Y1841500D02*
X1841500D01*
G01Y1206500D02*
X1778000D01*
G01X1841500D02*
Y1333500D01*
G01D02*
X2476500D01*
G01X1841500Y1968500D02*
X1778000D01*
G01X1841500D02*
Y2095500D01*
G01D02*
X2476500D01*
G01X1841500Y2349500D02*
X1778000D01*
G01X1841500Y2222500D02*
Y2349500D01*
G01D02*
Y2476500D01*
G01D02*
X2476500D01*
G01Y2222500D02*
X1841500D01*
G01X2508200Y762000D02*
G02I-285700J0D01*
G01X2476500Y1206500D02*
Y1079500D01*
G01Y1587500D02*
X2540000D01*
G01X2476500Y1714500D02*
Y1587500D01*
G01D02*
Y1460500D01*
G01Y1968500D02*
Y1841500D01*
G01Y1206500D02*
X2540000D01*
G01X2476500Y1333500D02*
Y1206500D01*
G01Y1968500D02*
X2540000D01*
G01X2476500Y2095500D02*
Y1968500D01*
G01Y2349500D02*
X2540000D01*
G01X2476500Y2476500D02*
Y2349500D01*
G01D02*
Y2222500D01*
G01X2952700Y2984500D02*
G02I-285700J0D01*
G01X2603500Y3873500D02*
X2667000D01*
G01X1968500D02*
X1905000D01*
G01X2603500Y4000500D02*
Y3873500D01*
G01D02*
Y3746500D01*
G01D02*
X1968500D01*
G01D02*
Y3873500D01*
G01D02*
Y4000500D01*
G01D02*
X2603500D01*
G01X3587700Y2984500D02*
G02I-285700J0D01*
G01X4381500Y3492500D02*
X3238500D01*
G01D02*
Y4000500D01*
G01D02*
X4381500D01*
G01X4222700Y2984500D02*
G02I-285700J0D01*
G01X4953000Y762000D02*
X4889500D01*
G01X4953000Y1524000D02*
X4889500D01*
G01X4953000Y1143000D02*
X4889500D01*
G01X4953000Y1905000D02*
X4889500D01*
G01X4381500Y4000500D02*
Y3492500D01*
G01X5588000Y762000D02*
X5651500D01*
G01X4953000Y635000D02*
Y762000D01*
G01D02*
Y889000D01*
G01D02*
X5588000D01*
G01D02*
Y762000D01*
G01D02*
Y635000D01*
G01D02*
X4953000D01*
G01Y1016000D02*
Y1143000D01*
G01X5588000D02*
Y1016000D01*
G01D02*
X4953000D01*
G01Y1778000D02*
Y1905000D01*
G01X5588000D02*
Y1778000D01*
G01D02*
X4953000D01*
G01X5588000Y1524000D02*
X5651500D01*
G01X4953000Y1397000D02*
Y1524000D01*
G01D02*
Y1651000D01*
G01D02*
X5588000D01*
G01D02*
Y1524000D01*
G01D02*
Y1397000D01*
G01D02*
X4953000D01*
G01X5588000Y1143000D02*
X5651500D01*
G01X4953000D02*
Y1270000D01*
G01D02*
X5588000D01*
G01D02*
Y1143000D01*
G01Y1905000D02*
X5651500D01*
G01X4953000D02*
Y2032000D01*
G01D02*
X5588000D01*
G01D02*
Y1905000D01*
G01X5270500Y3810000D02*
X5207000D01*
G01X5270500Y3683000D02*
Y3810000D01*
G01D02*
Y3937000D01*
G01D02*
X5905500D01*
G01Y3683000D02*
X5270500D01*
G01X6159500Y685800D02*
Y1981200D01*
G01X6413500Y685800D02*
X6159500D01*
G01X6413500Y825500D02*
Y685800D01*
G01Y1079500D02*
Y825500D01*
G01Y1333500D02*
Y1079500D01*
G01Y1587500D02*
Y1333500D01*
G01Y1841500D02*
Y1587500D01*
G01Y1981200D02*
Y1841500D01*
G01X6159500Y1981200D02*
X6413500D01*
G01X5905500Y3810000D02*
X5969000D01*
G01X5905500Y3937000D02*
Y3810000D01*
G01D02*
Y3683000D01*
G01X7143700Y762000D02*
G02I-285700J0D01*
G01X7842200Y1206500D02*
G02I-285700J0D01*
G01X8382000Y1587500D02*
X7239000D01*
G01D02*
Y2095500D01*
G01D02*
X8382000D01*
G01X8540700Y1206500D02*
G02I-285700J0D01*
G01X8382000Y2095500D02*
Y1587500D01*
G01X7969300Y3556000D02*
G02X8286700Y3873500I317400J100D01*
G02Y3238500I0J-317500D01*
G02X7969300Y3556000I0J317400D01*
G01X8750300Y1016000D02*
X10045700D01*
G01X8750300Y762000D02*
Y1016000D01*
G01X8890000Y762000D02*
X8750300D01*
G01X9144000D02*
X8890000D01*
G01X9398000D02*
X9144000D01*
G01X9652000D02*
X9398000D01*
G01X9080500Y2540000D02*
Y2667000D01*
G01X9715500Y2540000D02*
X9080500D01*
G01Y2286000D02*
X9017000D01*
G01X9080500Y2159000D02*
Y2286000D01*
G01D02*
Y2413000D01*
G01D02*
X9715500D01*
G01Y2159000D02*
X9080500D01*
G01Y3302000D02*
Y3429000D01*
G01X9715500Y3302000D02*
X9080500D01*
G01Y2667000D02*
X9017000D01*
G01X9080500D02*
Y2794000D01*
G01D02*
X9715500D01*
G01X9080500Y3048000D02*
X9017000D01*
G01X9080500Y2921000D02*
Y3048000D01*
G01D02*
Y3175000D01*
G01D02*
X9715500D01*
G01Y2921000D02*
X9080500D01*
G01Y3429000D02*
X9017000D01*
G01X9080500D02*
Y3556000D01*
G01D02*
X9715500D01*
G01X9080500Y3810000D02*
X9017000D01*
G01X9080500Y3683000D02*
Y3810000D01*
G01D02*
Y3937000D01*
G01D02*
X9715500D01*
G01Y3683000D02*
X9080500D01*
G01X10045700Y1016000D02*
Y762000D01*
G01X9906000D02*
X9652000D01*
G01X10045700D02*
X9906000D01*
G01X9715500Y2667000D02*
Y2540000D01*
G01Y2286000D02*
X9779000D01*
G01X9715500Y2413000D02*
Y2286000D01*
G01D02*
Y2159000D01*
G01Y3429000D02*
Y3302000D01*
G01Y2667000D02*
X9779000D01*
G01X9715500Y2794000D02*
Y2667000D01*
G01Y3048000D02*
X9779000D01*
G01X9715500Y3175000D02*
Y3048000D01*
G01D02*
Y2921000D01*
G01Y3429000D02*
X9779000D01*
G01X9715500Y3556000D02*
Y3429000D01*
G01Y3810000D02*
X9779000D01*
G01X9715500Y3937000D02*
Y3810000D01*
G01D02*
Y3683000D01*
G01X10287000Y2527300D02*
Y3822700D01*
G01X10541000Y2527300D02*
X10287000D01*
G01X10541000Y2667000D02*
Y2527300D01*
G01Y2921000D02*
Y2667000D01*
G01Y3175000D02*
Y2921000D01*
G01Y3429000D02*
Y3175000D01*
G01X10287000Y3822700D02*
X10541000D01*
G01Y3683000D02*
Y3429000D01*
G01Y3822700D02*
Y3683000D01*
G54D11*
G01X3488700Y1720300D02*
X3631400D01*
G01X6600200Y3307800D02*
X6742900D01*
G54D12*
G01X713430Y3461320D02*
X703780Y3467670D01*
X692530Y3471900D01*
X679660D01*
X665180Y3465550D01*
X653930Y3454970D01*
X645880Y3442270D01*
X639450Y3421100D01*
X637840Y3402050D01*
X641060Y3383000D01*
X645880Y3370300D01*
X655530Y3357600D01*
X666790Y3349130D01*
X678050Y3344900D01*
X689310D01*
X700570Y3349130D01*
X710220Y3355480D01*
X718260Y3363950D01*
G01X772170D02*
X781810Y3353360D01*
X793070Y3347020D01*
X807550Y3344900D01*
X822030Y3349130D01*
X833280Y3357600D01*
X841330Y3372410D01*
X842930Y3389350D01*
X839720Y3406280D01*
X831670Y3416870D01*
X820420Y3425330D01*
X809160Y3427450D01*
X797900Y3425330D01*
X783430Y3416870D01*
X788250Y3471900D01*
X831670D01*
G01X713430Y2826320D02*
X703780Y2832670D01*
X692530Y2836900D01*
X679660D01*
X665180Y2830550D01*
X653930Y2819970D01*
X645880Y2807270D01*
X639450Y2786100D01*
X637840Y2767050D01*
X641060Y2748000D01*
X645880Y2735300D01*
X655530Y2722600D01*
X666790Y2714130D01*
X678050Y2709900D01*
X689310D01*
X700570Y2714130D01*
X710220Y2720480D01*
X718260Y2728950D01*
G01X780210Y2724710D02*
X791470Y2714130D01*
X804330Y2709900D01*
X817200Y2714130D01*
X828460Y2726830D01*
X836500Y2745880D01*
X839720Y2764930D01*
Y2788220D01*
X836500Y2807270D01*
X828460Y2824200D01*
X818810Y2832670D01*
X807550Y2836900D01*
X794680Y2832670D01*
X785030Y2824200D01*
X778600Y2811500D01*
X775380Y2794560D01*
X778600Y2779750D01*
X786640Y2764930D01*
X796290Y2756460D01*
X807550Y2754350D01*
X820420Y2758580D01*
X830070Y2769170D01*
X839720Y2788220D01*
G01X713430Y4159820D02*
X703780Y4166170D01*
X692530Y4170400D01*
X679660D01*
X665180Y4164050D01*
X653930Y4153470D01*
X645880Y4140770D01*
X639450Y4119600D01*
X637840Y4100550D01*
X641060Y4081500D01*
X645880Y4068800D01*
X655530Y4056100D01*
X666790Y4047630D01*
X678050Y4043400D01*
X689310D01*
X700570Y4047630D01*
X710220Y4053980D01*
X718260Y4062450D01*
G01X776990Y4096310D02*
X788250Y4111130D01*
X797900Y4119600D01*
X810770Y4123830D01*
X822030Y4119600D01*
X830070Y4111130D01*
X836500Y4098430D01*
X838110Y4083620D01*
X836500Y4070910D01*
X830070Y4058210D01*
X820420Y4047630D01*
X809160Y4043400D01*
X796290Y4047630D01*
X785030Y4060330D01*
X778600Y4079380D01*
X776990Y4100550D01*
X780210Y4128060D01*
X785030Y4142890D01*
X793070Y4157700D01*
X804330Y4168280D01*
X815590Y4170400D01*
X826850Y4166170D01*
X834890Y4155580D01*
G01X1251200Y1866730D02*
X1244850Y1863350D01*
X1240620Y1859290D01*
X1238500Y1854550D01*
X1240620Y1849140D01*
X1244850Y1845080D01*
X1251200Y1841020D01*
X1259670Y1839670D01*
X1302000D01*
G01X1291420Y1810260D02*
X1297770Y1806200D01*
X1300940Y1801460D01*
X1302000Y1796050D01*
X1299880Y1789280D01*
X1294590Y1784540D01*
X1288240Y1783190D01*
X1281890Y1783870D01*
X1276600Y1786570D01*
X1266020Y1800110D01*
X1258610Y1806200D01*
X1248020Y1810260D01*
X1238500Y1811610D01*
Y1783190D01*
G01X2398070Y348680D02*
X2407720Y342330D01*
X2418970Y338100D01*
X2431840D01*
X2446320Y344450D01*
X2457570Y355030D01*
X2465620Y367730D01*
X2472050Y388900D01*
X2473660Y407950D01*
X2470440Y427000D01*
X2465620Y439700D01*
X2455970Y452400D01*
X2444710Y460870D01*
X2433450Y465100D01*
X2422190D01*
X2410930Y460870D01*
X2401280Y454520D01*
X2393240Y446050D01*
G01X2284650Y465100D02*
Y338100D01*
X2344160Y429120D01*
X2263740D01*
G01X1947580Y1725600D02*
Y1852600D01*
X1987790D01*
X2000660Y1846250D01*
X2008700Y1837780D01*
X2011920Y1820850D01*
X2008700Y1803920D01*
X1999050Y1793330D01*
X1987790Y1786980D01*
X1947580D01*
G01X1987790D02*
X2011920Y1725600D01*
G01X2073870Y1744650D02*
X2083510Y1734060D01*
X2094770Y1727720D01*
X2109250Y1725600D01*
X2123730Y1729830D01*
X2134980Y1738300D01*
X2143030Y1753110D01*
X2144630Y1770050D01*
X2141420Y1786980D01*
X2133370Y1797570D01*
X2122120Y1806030D01*
X2110860Y1808150D01*
X2099600Y1806030D01*
X2085130Y1797570D01*
X2089950Y1852600D01*
X2133370D01*
G01X1947580Y1344600D02*
Y1471600D01*
X1987790D01*
X2000660Y1465250D01*
X2008700Y1456780D01*
X2011920Y1439850D01*
X2008700Y1422920D01*
X1999050Y1412330D01*
X1987790Y1405980D01*
X1947580D01*
G01X1987790D02*
X2011920Y1344600D01*
G01X2109250D02*
X2120510Y1346720D01*
X2133370Y1353060D01*
X2141420Y1363650D01*
X2144630Y1378470D01*
X2141420Y1393280D01*
X2131770Y1405980D01*
X2117290Y1412330D01*
X2101210D01*
X2091560Y1416570D01*
X2083510Y1427150D01*
X2080300Y1441970D01*
X2085130Y1456780D01*
X2096380Y1467370D01*
X2109250Y1471600D01*
X2122120Y1467370D01*
X2133370Y1456780D01*
X2138200Y1441970D01*
X2134980Y1427150D01*
X2126940Y1416570D01*
X2117290Y1412330D01*
X2101210D01*
X2086730Y1405980D01*
X2077080Y1393280D01*
X2073870Y1378470D01*
X2077080Y1363650D01*
X2085130Y1353060D01*
X2097990Y1346720D01*
X2109250Y1344600D01*
G01X1947580Y2106600D02*
Y2233600D01*
X1987790D01*
X2000660Y2227250D01*
X2008700Y2218780D01*
X2011920Y2201850D01*
X2008700Y2184920D01*
X1999050Y2174330D01*
X1987790Y2167980D01*
X1947580D01*
G01X1987790D02*
X2011920Y2106600D01*
G01X2078690Y2159510D02*
X2089950Y2174330D01*
X2099600Y2182800D01*
X2112470Y2187030D01*
X2123730Y2182800D01*
X2131770Y2174330D01*
X2138200Y2161630D01*
X2139810Y2146820D01*
X2138200Y2134110D01*
X2131770Y2121410D01*
X2122120Y2110830D01*
X2110860Y2106600D01*
X2097990Y2110830D01*
X2086730Y2123530D01*
X2080300Y2142580D01*
X2078690Y2163750D01*
X2081910Y2191260D01*
X2086730Y2206090D01*
X2094770Y2220900D01*
X2106030Y2231480D01*
X2117290Y2233600D01*
X2128550Y2229370D01*
X2136590Y2218780D01*
G01X1947580Y2487600D02*
Y2614600D01*
X1987790D01*
X2000660Y2608250D01*
X2008700Y2599780D01*
X2011920Y2582850D01*
X2008700Y2565920D01*
X1999050Y2555330D01*
X1987790Y2548980D01*
X1947580D01*
G01X1987790D02*
X2011920Y2487600D01*
G01X2106030D02*
X2109250Y2515110D01*
X2114080Y2538400D01*
X2120510Y2559570D01*
X2128550Y2582850D01*
X2141420Y2614600D01*
X2077080D01*
G01X2491430Y3397820D02*
X2481780Y3404170D01*
X2470530Y3408400D01*
X2457660D01*
X2443180Y3402050D01*
X2431930Y3391470D01*
X2423880Y3378770D01*
X2417450Y3357600D01*
X2415840Y3338550D01*
X2419060Y3319500D01*
X2423880Y3306800D01*
X2433530Y3294100D01*
X2444790Y3285630D01*
X2456050Y3281400D01*
X2467310D01*
X2478570Y3285630D01*
X2488220Y3291980D01*
X2496260Y3300450D01*
G01X2585550Y3281400D02*
Y3408400D01*
X2566250Y3383000D01*
G01Y3281400D02*
X2604850D01*
G01X2497420Y3735400D02*
Y3608400D01*
X2457210D01*
X2444340Y3614750D01*
X2436300Y3623220D01*
X2433080Y3640150D01*
X2436300Y3657080D01*
X2445950Y3667670D01*
X2457210Y3674020D01*
X2497420D01*
G01X2457210D02*
X2433080Y3735400D01*
G01X2335750D02*
Y3608400D01*
X2355050Y3633800D01*
G01Y3735400D02*
X2316450D01*
G01X3126430Y3397820D02*
X3116780Y3404170D01*
X3105530Y3408400D01*
X3092660D01*
X3078180Y3402050D01*
X3066930Y3391470D01*
X3058880Y3378770D01*
X3052450Y3357600D01*
X3050840Y3338550D01*
X3054060Y3319500D01*
X3058880Y3306800D01*
X3068530Y3294100D01*
X3079790Y3285630D01*
X3091050Y3281400D01*
X3102310D01*
X3113570Y3285630D01*
X3123220Y3291980D01*
X3131260Y3300450D01*
G01X3189990Y3387230D02*
X3199640Y3399930D01*
X3210900Y3406280D01*
X3223770Y3408400D01*
X3239850Y3404170D01*
X3251110Y3393580D01*
X3254330Y3380890D01*
X3252720Y3368180D01*
X3246280Y3357600D01*
X3214120Y3336430D01*
X3199640Y3321620D01*
X3189990Y3300450D01*
X3186770Y3281400D01*
X3254330D01*
G01X3642600Y2284130D02*
X3551580D01*
X3532530Y2277700D01*
X3519830Y2264830D01*
X3515600Y2248750D01*
X3519830Y2232670D01*
X3532530Y2219800D01*
X3551580Y2213370D01*
X3642600D01*
G01X3515600Y2119250D02*
X3642600D01*
X3617200Y2138550D01*
G01X3515600D02*
Y2099950D01*
G01X3761430Y3397820D02*
X3751780Y3404170D01*
X3740530Y3408400D01*
X3727660D01*
X3713180Y3402050D01*
X3701930Y3391470D01*
X3693880Y3378770D01*
X3687450Y3357600D01*
X3685840Y3338550D01*
X3689060Y3319500D01*
X3693880Y3306800D01*
X3703530Y3294100D01*
X3714790Y3285630D01*
X3726050Y3281400D01*
X3737310D01*
X3748570Y3285630D01*
X3758220Y3291980D01*
X3766260Y3300450D01*
G01X3820170Y3306800D02*
X3829810Y3291980D01*
X3842680Y3283520D01*
X3857160Y3281400D01*
X3870030Y3283520D01*
X3882890Y3294100D01*
X3890930Y3306800D01*
X3892540Y3319500D01*
X3889330Y3334310D01*
X3878070Y3344900D01*
X3866810Y3349130D01*
X3852330D01*
G01X3866810D02*
X3876460Y3355480D01*
X3884500Y3366060D01*
X3887720Y3378770D01*
X3884500Y3391470D01*
X3876460Y3402050D01*
X3861980Y3408400D01*
X3847510Y3406280D01*
X3833030Y3397820D01*
G01X3599050Y4011600D02*
Y4068750D01*
X3566880Y4138600D01*
G01X3631220D02*
X3599050Y4068750D01*
G01X3697990Y4117430D02*
X3707640Y4130130D01*
X3718900Y4136480D01*
X3731770Y4138600D01*
X3747850Y4134370D01*
X3759110Y4123780D01*
X3762330Y4111090D01*
X3760720Y4098380D01*
X3754280Y4087800D01*
X3722120Y4066630D01*
X3707640Y4051820D01*
X3697990Y4030650D01*
X3694770Y4011600D01*
X3762330D01*
G01X5059080Y900100D02*
Y1027100D01*
X5099290D01*
X5112160Y1020750D01*
X5120200Y1012280D01*
X5123420Y995350D01*
X5120200Y978420D01*
X5110550Y967830D01*
X5099290Y961480D01*
X5059080D01*
G01X5099290D02*
X5123420Y900100D01*
G01X5220750D02*
Y1027100D01*
X5201450Y1001700D01*
G01Y900100D02*
X5240050D01*
G01X5369550D02*
Y1027100D01*
X5310040Y936080D01*
X5390460D01*
G01X5059080Y1662100D02*
Y1789100D01*
X5099290D01*
X5112160Y1782750D01*
X5120200Y1774280D01*
X5123420Y1757350D01*
X5120200Y1740420D01*
X5110550Y1729830D01*
X5099290Y1723480D01*
X5059080D01*
G01X5099290D02*
X5123420Y1662100D01*
G01X5185370Y1687500D02*
X5195010Y1672680D01*
X5207880Y1664220D01*
X5222360Y1662100D01*
X5235230Y1664220D01*
X5248090Y1674800D01*
X5256130Y1687500D01*
X5257740Y1700200D01*
X5254530Y1715010D01*
X5243270Y1725600D01*
X5232010Y1729830D01*
X5217530D01*
G01X5232010D02*
X5241660Y1736180D01*
X5249700Y1746760D01*
X5252920Y1759470D01*
X5249700Y1772170D01*
X5241660Y1782750D01*
X5227180Y1789100D01*
X5212710Y1786980D01*
X5198230Y1778520D01*
G01X5059080Y1281100D02*
Y1408100D01*
X5099290D01*
X5112160Y1401750D01*
X5120200Y1393280D01*
X5123420Y1376350D01*
X5120200Y1359420D01*
X5110550Y1348830D01*
X5099290Y1342480D01*
X5059080D01*
G01X5099290D02*
X5123420Y1281100D01*
G01X5240050D02*
Y1408100D01*
X5180540Y1317080D01*
X5260960D01*
G01X5059080Y2043100D02*
Y2170100D01*
X5099290D01*
X5112160Y2163750D01*
X5120200Y2155280D01*
X5123420Y2138350D01*
X5120200Y2121420D01*
X5110550Y2110830D01*
X5099290Y2104480D01*
X5059080D01*
G01X5099290D02*
X5123420Y2043100D01*
G01X5190190Y2148930D02*
X5199840Y2161630D01*
X5211100Y2167980D01*
X5223970Y2170100D01*
X5240050Y2165870D01*
X5251310Y2155280D01*
X5254530Y2142590D01*
X5252920Y2129880D01*
X5246480Y2119300D01*
X5214320Y2098130D01*
X5199840Y2083320D01*
X5190190Y2062150D01*
X5186970Y2043100D01*
X5254530D01*
G01X5376580Y3948100D02*
Y4075100D01*
X5416790D01*
X5429660Y4068750D01*
X5437700Y4060280D01*
X5440920Y4043350D01*
X5437700Y4026420D01*
X5428050Y4015830D01*
X5416790Y4009480D01*
X5376580D01*
G01X5416790D02*
X5440920Y3948100D01*
G01X5510910Y3962910D02*
X5522170Y3952330D01*
X5535030Y3948100D01*
X5547900Y3952330D01*
X5559160Y3965030D01*
X5567200Y3984080D01*
X5570420Y4003130D01*
Y4026420D01*
X5567200Y4045470D01*
X5559160Y4062400D01*
X5549510Y4070870D01*
X5538250Y4075100D01*
X5525380Y4070870D01*
X5515730Y4062400D01*
X5509300Y4049700D01*
X5506080Y4032760D01*
X5509300Y4017950D01*
X5517340Y4003130D01*
X5526990Y3994660D01*
X5538250Y3992550D01*
X5551120Y3996780D01*
X5560770Y4007370D01*
X5570420Y4026420D01*
G01X6373620Y636400D02*
X6365570Y649100D01*
X6355930Y657570D01*
X6344670Y661800D01*
X6331800Y657570D01*
X6322150Y649100D01*
X6312500Y636400D01*
X6309280Y619470D01*
Y534800D01*
G01X6211950Y661800D02*
Y534800D01*
X6231250Y560200D01*
G01Y661800D02*
X6192650D01*
G01X6682430Y1175320D02*
X6672780Y1181670D01*
X6661530Y1185900D01*
X6648660D01*
X6634180Y1179550D01*
X6622930Y1168970D01*
X6614880Y1156270D01*
X6608450Y1135100D01*
X6606840Y1116050D01*
X6610060Y1097000D01*
X6614880Y1084300D01*
X6624530Y1071600D01*
X6635790Y1063130D01*
X6647050Y1058900D01*
X6658310D01*
X6669570Y1063130D01*
X6679220Y1069480D01*
X6687260Y1077950D01*
G01X6776550Y1058900D02*
Y1185900D01*
X6757250Y1160500D01*
G01Y1058900D02*
X6795850D01*
G01X6906050Y1185900D02*
X6893180Y1181670D01*
X6883530Y1171080D01*
X6877100Y1158390D01*
X6872270Y1141450D01*
X6870670Y1122400D01*
X6872270Y1103350D01*
X6877100Y1086410D01*
X6883530Y1073710D01*
X6893180Y1063130D01*
X6906050Y1058900D01*
X6918920Y1063130D01*
X6928570Y1073710D01*
X6935000Y1086410D01*
X6939830Y1103350D01*
X6941430Y1122400D01*
X6939830Y1141450D01*
X6935000Y1158390D01*
X6928570Y1171080D01*
X6918920Y1181670D01*
X6906050Y1185900D01*
G01X6754100Y3855550D02*
Y3816950D01*
G01Y3836250D02*
X6627100D01*
G01Y3855550D02*
Y3816950D01*
G01X6743520Y3671370D02*
X6749870Y3681020D01*
X6754100Y3692270D01*
Y3705140D01*
X6747750Y3719620D01*
X6737170Y3730870D01*
X6724470Y3738920D01*
X6703300Y3745350D01*
X6684250Y3746960D01*
X6665200Y3743740D01*
X6652500Y3738920D01*
X6639800Y3729270D01*
X6631330Y3718010D01*
X6627100Y3706750D01*
Y3695490D01*
X6631330Y3684230D01*
X6637680Y3674580D01*
X6646150Y3666540D01*
G01X6627100Y3577250D02*
X6754100D01*
X6728700Y3596550D01*
G01X6627100D02*
Y3557950D01*
G01X7380930Y1619820D02*
X7371280Y1626170D01*
X7360030Y1630400D01*
X7347160D01*
X7332680Y1624050D01*
X7321430Y1613470D01*
X7313380Y1600770D01*
X7306950Y1579600D01*
X7305340Y1560550D01*
X7308560Y1541500D01*
X7313380Y1528800D01*
X7323030Y1516100D01*
X7334290Y1507630D01*
X7345550Y1503400D01*
X7356810D01*
X7368070Y1507630D01*
X7377720Y1513980D01*
X7385760Y1522450D01*
G01X7471830Y1503400D02*
X7475050Y1530910D01*
X7479880Y1554200D01*
X7486310Y1575370D01*
X7494350Y1598650D01*
X7507220Y1630400D01*
X7442880D01*
G01X8021450Y1576400D02*
Y1519250D01*
X8053620Y1449400D01*
G01X7989280D02*
X8021450Y1519250D01*
G01X7891950Y1576400D02*
Y1449400D01*
X7911250Y1474800D01*
G01Y1576400D02*
X7872650D01*
G01X8700900Y801880D02*
X8713600Y809930D01*
X8722070Y819570D01*
X8726300Y830830D01*
X8722070Y843700D01*
X8713600Y853350D01*
X8700900Y863000D01*
X8683970Y866220D01*
X8599300D01*
G01X8726300Y982850D02*
X8599300D01*
X8690320Y923340D01*
Y1003760D01*
G01X8079430Y1619820D02*
X8069780Y1626170D01*
X8058530Y1630400D01*
X8045660D01*
X8031180Y1624050D01*
X8019930Y1613470D01*
X8011880Y1600770D01*
X8005450Y1579600D01*
X8003840Y1560550D01*
X8007060Y1541500D01*
X8011880Y1528800D01*
X8021530Y1516100D01*
X8032790Y1507630D01*
X8044050Y1503400D01*
X8055310D01*
X8066570Y1507630D01*
X8076220Y1513980D01*
X8084260Y1522450D01*
G01X8173550Y1503400D02*
X8184810Y1505520D01*
X8197670Y1511860D01*
X8205720Y1522450D01*
X8208930Y1537270D01*
X8205720Y1552080D01*
X8196070Y1564780D01*
X8181590Y1571130D01*
X8165510D01*
X8155860Y1575370D01*
X8147810Y1585950D01*
X8144600Y1600770D01*
X8149430Y1615580D01*
X8160680Y1626170D01*
X8173550Y1630400D01*
X8186420Y1626170D01*
X8197670Y1615580D01*
X8202500Y1600770D01*
X8199280Y1585950D01*
X8191240Y1575370D01*
X8181590Y1571130D01*
X8165510D01*
X8151030Y1564780D01*
X8141380Y1552080D01*
X8138170Y1537270D01*
X8141380Y1522450D01*
X8149430Y1511860D01*
X8162290Y1505520D01*
X8173550Y1503400D01*
G01X8103870Y3852900D02*
Y3979900D01*
X8136030D01*
X8148900Y3973550D01*
X8158550Y3965080D01*
X8166590Y3952390D01*
X8173030Y3937560D01*
X8174630Y3916400D01*
X8173030Y3895230D01*
X8166590Y3880410D01*
X8158550Y3867710D01*
X8148900Y3859250D01*
X8136030Y3852900D01*
X8103870D01*
G01X8268750D02*
Y3979900D01*
X8249450Y3954500D01*
G01Y3852900D02*
X8288050D01*
G01X9186580Y2424100D02*
Y2551100D01*
X9226790D01*
X9239660Y2544750D01*
X9247700Y2536280D01*
X9250920Y2519350D01*
X9247700Y2502420D01*
X9238050Y2491830D01*
X9226790Y2485480D01*
X9186580D01*
G01X9226790D02*
X9250920Y2424100D01*
G01X9348250D02*
Y2551100D01*
X9328950Y2525700D01*
G01Y2424100D02*
X9367550D01*
G01X9442370Y2443150D02*
X9452010Y2432560D01*
X9463270Y2426220D01*
X9477750Y2424100D01*
X9492230Y2428330D01*
X9503480Y2436800D01*
X9511530Y2451610D01*
X9513130Y2468550D01*
X9509920Y2485480D01*
X9501870Y2496070D01*
X9490620Y2504530D01*
X9479360Y2506650D01*
X9468100Y2504530D01*
X9453630Y2496070D01*
X9458450Y2551100D01*
X9501870D01*
G01X9186580Y2805100D02*
Y2932100D01*
X9226790D01*
X9239660Y2925750D01*
X9247700Y2917280D01*
X9250920Y2900350D01*
X9247700Y2883420D01*
X9238050Y2872830D01*
X9226790Y2866480D01*
X9186580D01*
G01X9226790D02*
X9250920Y2805100D01*
G01X9348250D02*
Y2932100D01*
X9328950Y2906700D01*
G01Y2805100D02*
X9367550D01*
G01X9442370Y2830500D02*
X9452010Y2815680D01*
X9464880Y2807220D01*
X9479360Y2805100D01*
X9492230Y2807220D01*
X9505090Y2817800D01*
X9513130Y2830500D01*
X9514740Y2843200D01*
X9511530Y2858010D01*
X9500270Y2868600D01*
X9489010Y2872830D01*
X9474530D01*
G01X9489010D02*
X9498660Y2879180D01*
X9506700Y2889760D01*
X9509920Y2902470D01*
X9506700Y2915170D01*
X9498660Y2925750D01*
X9484180Y2932100D01*
X9469710Y2929980D01*
X9455230Y2921520D01*
G01X9186580Y3186100D02*
Y3313100D01*
X9226790D01*
X9239660Y3306750D01*
X9247700Y3298280D01*
X9250920Y3281350D01*
X9247700Y3264420D01*
X9238050Y3253830D01*
X9226790Y3247480D01*
X9186580D01*
G01X9226790D02*
X9250920Y3186100D01*
G01X9348250D02*
Y3313100D01*
X9328950Y3287700D01*
G01Y3186100D02*
X9367550D01*
G01X9447190Y3291930D02*
X9456840Y3304630D01*
X9468100Y3310980D01*
X9480970Y3313100D01*
X9497050Y3308870D01*
X9508310Y3298280D01*
X9511530Y3285590D01*
X9509920Y3272880D01*
X9503480Y3262300D01*
X9471320Y3241130D01*
X9456840Y3226320D01*
X9447190Y3205150D01*
X9443970Y3186100D01*
X9511530D01*
G01X9186580Y3567100D02*
Y3694100D01*
X9226790D01*
X9239660Y3687750D01*
X9247700Y3679280D01*
X9250920Y3662350D01*
X9247700Y3645420D01*
X9238050Y3634830D01*
X9226790Y3628480D01*
X9186580D01*
G01X9226790D02*
X9250920Y3567100D01*
G01X9348250D02*
Y3694100D01*
X9328950Y3668700D01*
G01Y3567100D02*
X9367550D01*
G01X9477750D02*
Y3694100D01*
X9458450Y3668700D01*
G01Y3567100D02*
X9497050D01*
G01X9186580Y3948100D02*
Y4075100D01*
X9226790D01*
X9239660Y4068750D01*
X9247700Y4060280D01*
X9250920Y4043350D01*
X9247700Y4026420D01*
X9238050Y4015830D01*
X9226790Y4009480D01*
X9186580D01*
G01X9226790D02*
X9250920Y3948100D01*
G01X9348250D02*
Y4075100D01*
X9328950Y4049700D01*
G01Y3948100D02*
X9367550D01*
G01X9477750Y4075100D02*
X9464880Y4070870D01*
X9455230Y4060280D01*
X9448800Y4047590D01*
X9443970Y4030650D01*
X9442370Y4011600D01*
X9443970Y3992550D01*
X9448800Y3975610D01*
X9455230Y3962910D01*
X9464880Y3952330D01*
X9477750Y3948100D01*
X9490620Y3952330D01*
X9500270Y3962910D01*
X9506700Y3975610D01*
X9511530Y3992550D01*
X9513130Y4011600D01*
X9511530Y4030650D01*
X9506700Y4047590D01*
X9500270Y4060280D01*
X9490620Y4070870D01*
X9477750Y4075100D01*
G01X10501120Y2477900D02*
X10493070Y2490600D01*
X10483430Y2499070D01*
X10472170Y2503300D01*
X10459300Y2499070D01*
X10449650Y2490600D01*
X10440000Y2477900D01*
X10436780Y2460970D01*
Y2376300D01*
G01X10374830Y2477900D02*
X10365190Y2492720D01*
X10352320Y2501180D01*
X10337840Y2503300D01*
X10324970Y2501180D01*
X10312110Y2490600D01*
X10304070Y2477900D01*
X10302460Y2465200D01*
X10305670Y2450390D01*
X10316930Y2439800D01*
X10328190Y2435570D01*
X10342670D01*
G01X10328190D02*
X10318540Y2429220D01*
X10310500Y2418640D01*
X10307280Y2405930D01*
X10310500Y2393230D01*
X10318540Y2382650D01*
X10333020Y2376300D01*
X10347490Y2378420D01*
X10361970Y2386880D01*
M02*
