G04 ================== begin FILE IDENTIFICATION RECORD ==================*
G04 Layout Name:  C:/Users/user/Desktop/workspace/avrusb/allegro/AVRUSB500.brd*
G04 Film Name:    SolderT*
G04 File Format:  Gerber RS274X*
G04 File Origin:  Cadence Allegro 16.6-S034*
G04 Origin Date:  Fri Jul 19 14:13:03 2019*
G04 *
G04 Layer:  VIA CLASS/SOLDERMASK_TOP*
G04 Layer:  PIN/SOLDERMASK_TOP*
G04 Layer:  PACKAGE GEOMETRY/SOLDERMASK_TOP*
G04 Layer:  BOARD GEOMETRY/SOLDERMASK_TOP*
G04 *
G04 Offset:    (0.0000 0.0000)*
G04 Mirror:    No*
G04 Mode:      Positive*
G04 Rotation:  0*
G04 FullContactRelief:  No*
G04 UndefLineWidth:     0.0000*
G04 ================== end FILE IDENTIFICATION RECORD ====================*
%FSLAX55Y55*MOMM*%
%IR0*IPPOS*OFA0.00000B0.00000*MIA0B0*SFA1.00000B1.00000*%
%ADD11O,1.8999X1.1999*%
%ADD12R,1.7201X.4*%
%ADD17O,.4569X1.778*%
%ADD16O,1.778X.4569*%
%ADD18R,.4569X1.778*%
%ADD19R,1.778X.4569*%
%ADD10R,1.7X1.1001*%
%ADD14C,1.3211*%
%ADD15C,1.118*%
%ADD13R,1.3211X1.3211*%
%ADD20C,1.5751*%
%ADD21R,1.5751X1.5751*%
%LPD*%
G75*
G54D10*
X1068500Y1103500D03*
Y1563500D03*
G54D20*
X6286500Y1079500D03*
Y1841500D03*
Y1587500D03*
Y1333500D03*
X9398000Y889000D03*
X9144000D03*
X9906000D03*
X9652000D03*
X10414000Y3429000D03*
Y3175000D03*
Y2921000D03*
Y3683000D03*
G54D11*
X1068500Y821000D03*
X698500D03*
X1068500Y1846000D03*
X698500D03*
G54D21*
X6286500Y825500D03*
X8890000Y889000D03*
X10414000Y2667000D03*
G54D12*
X1068500Y1203500D03*
Y1268500D03*
Y1333500D03*
Y1398500D03*
Y1463500D03*
G54D13*
X762000Y2413000D03*
Y3048000D03*
Y3746500D03*
X2349500Y762000D03*
X2540000Y2984500D03*
X3175000D03*
X3810000D03*
X6731000Y762000D03*
X7429500Y1206500D03*
X8128000D03*
Y3556000D03*
G54D14*
X1016000Y2413000D03*
Y3048000D03*
Y3746500D03*
X1651000Y1587500D03*
Y1206500D03*
Y1968500D03*
Y2349500D03*
X1778000Y3873500D03*
X2095500Y762000D03*
X2667000Y1587500D03*
Y1206500D03*
Y1968500D03*
Y2349500D03*
X3429000Y2984500D03*
X2794000D03*
Y3873500D03*
X3429000Y3746500D03*
X4064000Y2984500D03*
X4191000Y3746500D03*
X4762500Y762000D03*
Y1143000D03*
Y1905000D03*
Y1524000D03*
X5080000Y3810000D03*
X5778500Y762000D03*
Y1143000D03*
Y1905000D03*
Y1524000D03*
X6096000Y3810000D03*
X6985000Y762000D03*
X7683500Y1206500D03*
X7429500Y1841500D03*
X8382000Y1206500D03*
X8191500Y1841500D03*
X8445500Y3556000D03*
X8890000Y2667000D03*
Y2286000D03*
Y3429000D03*
Y3048000D03*
Y3810000D03*
X9906000Y2667000D03*
Y2286000D03*
Y3429000D03*
Y3048000D03*
Y3810000D03*
G54D15*
X3365500Y1460500D03*
Y1270000D03*
X4405600Y1753900D03*
X5080000Y2984500D03*
X6286500Y3175000D03*
G54D16*
X3556000Y1090900D03*
Y1571000D03*
Y1491000D03*
Y1411000D03*
Y1331000D03*
Y1251000D03*
Y1170900D03*
X4405600Y1090900D03*
Y1170900D03*
Y1251000D03*
Y1411000D03*
Y1491000D03*
Y1571000D03*
Y1651000D03*
X6667500Y3158500D03*
Y3078500D03*
Y2998500D03*
Y2918500D03*
Y2838500D03*
Y2758400D03*
Y2678400D03*
X7517100D03*
Y2758400D03*
Y2838500D03*
Y2998500D03*
Y3078500D03*
Y3158500D03*
Y3238500D03*
G54D17*
X3700800Y946200D03*
X3860800D03*
X3940800D03*
X4020800D03*
X4100800D03*
Y1795800D03*
X4020800D03*
X3940800D03*
X3780800D03*
X3700800D03*
X4180800Y946200D03*
X4260800D03*
Y1795800D03*
X4180800D03*
X6812300Y2533700D03*
X6972300D03*
X7052300D03*
X7132300D03*
X7212300D03*
Y3383300D03*
X7132300D03*
X7052300D03*
X6892300D03*
X6812300D03*
X7292300Y2533700D03*
X7372300D03*
Y3383300D03*
X7292300D03*
G54D18*
X3780800Y946200D03*
X3860800Y1795800D03*
X6892300Y2533700D03*
X6972300Y3383300D03*
G54D19*
X3556000Y1651000D03*
X4405600Y1331000D03*
X6667500Y3238500D03*
X7517100Y2918500D03*
M02*
