G04 ================== begin FILE IDENTIFICATION RECORD ==================*
G04 Layout Name:  C:/Users/user/Desktop/workspace/avrusb/allegro/AVRUSB500_0.brd*
G04 Film Name:    TOP*
G04 File Format:  Gerber RS274X*
G04 File Origin:  Cadence Allegro 17.2-P019*
G04 Origin Date:  Mon Jul 29 16:04:46 2019*
G04 *
G04 Layer:  ETCH/TOP*
G04 Layer:  PIN/TOP*
G04 Layer:  VIA CLASS/TOP*
G04 *
G04 Offset:    (0.0000 0.0000)*
G04 Mirror:    No*
G04 Mode:      Positive*
G04 Rotation:  0*
G04 FullContactRelief:  No*
G04 UndefLineWidth:     0.0000*
G04 ================== end FILE IDENTIFICATION RECORD ====================*
%FSLAX55Y55*MOMM*%
%IR0*IPPOS*OFA0.00000B0.00000*MIA0B0*SFA1.00000B1.00000*%
%ADD12O,1.8999X1.1999*%
%ADD13R,1.7201X.4*%
%ADD17C,.61*%
%ADD10C,.635*%
%ADD19O,.4569X1.778*%
%ADD18O,1.778X.4569*%
%ADD20R,.4569X1.778*%
%ADD21R,1.778X.4569*%
%ADD11R,1.7X1.1001*%
%ADD15C,1.3211*%
%ADD14R,1.3211X1.3211*%
%ADD22C,1.5751*%
%ADD23R,1.5751X1.5751*%
%ADD16R,1.4986X2.8448*%
%ADD24C,.254*%
%ADD25C,.381*%
%ADD26C,.382*%
%ADD27R,5.0804X5.0804*%
%ADD28C,1.5756*%
%ADD29C,1.8296*%
G75*
%LPD*%
G75*
G36*
G01X-2412980Y-3499990D02*
Y-3009920D01*
X-2260580D01*
Y-2689720D01*
X-2116950D01*
Y-2809240D01*
G03X-2106930Y-2819260I10020J0D01*
G01X-1957070D01*
G03X-1947050Y-2809240I0J10020D01*
G01Y-2524760D01*
G03X-1957070Y-2514740I-10020J0D01*
G01X-2106930D01*
G03X-2116950Y-2524760I0J-10020D01*
G01Y-2644280D01*
X-2260580D01*
Y-2314490D01*
X-2206710Y-2260620D01*
X-2132350D01*
Y-2364740D01*
G03X-2106930Y-2390160I25420J0D01*
G01X-1957070D01*
G03X-1931650Y-2364740I0J25420D01*
G01Y-2080260D01*
G03X-1957070Y-2054840I-25420J0D01*
G01X-2106930D01*
G03X-2132350Y-2080260I0J-25420D01*
G01Y-2184380D01*
X-2202360D01*
G02X-2205950Y-2175710I4J5080D01*
G01X-2199180Y-2168940D01*
Y-2168800D01*
X-2184380Y-2154000D01*
Y-1857290D01*
X-2143210Y-1816120D01*
X-2132350D01*
Y-1920240D01*
G03X-2106930Y-1945660I25420J0D01*
G01X-1957070D01*
G03X-1931650Y-1920240I0J25420D01*
G01Y-1635760D01*
G03X-1957070Y-1610340I-25420J0D01*
G01X-2106930D01*
G03X-2132350Y-1635760I0J-25420D01*
G01Y-1739880D01*
X-2174790D01*
X-2243240Y-1808330D01*
G02X-2260580Y-1801140I-7180J7188D01*
G01Y-1562080D01*
X-2939990D01*
Y-100010D01*
X5459990D01*
Y-126980D01*
X4952980D01*
Y-620040D01*
G02X4935640Y-627230I-10160J-2D01*
G01X4927620Y-619210D01*
Y-301710D01*
X4841790Y-215880D01*
X2079710D01*
X1978630Y-316960D01*
Y-533380D01*
X1670070D01*
Y-429260D01*
G03X1644650Y-403840I-25420J0D01*
G01X1494790D01*
G03X1469370Y-429260I0J-25420D01*
G01Y-713740D01*
G03X1494790Y-739160I25420J0D01*
G01X1644650D01*
G03X1670070Y-713740I0J25420D01*
G01Y-609620D01*
X2000960D01*
X2024230Y-632890D01*
G02X2017050Y-650240I-7182J-7189D01*
G01X2006600D01*
G03X1981180Y-675660I0J-25420D01*
G01Y-721340D01*
G03X1981980Y-727690I25422J-23D01*
G02X1972150Y-740380I-9838J-2532D01*
G01X1818910D01*
G03Y-816620I-40910J-38120D01*
G01X1835440D01*
G02X1842630Y-833960I2J-10160D01*
G01X1762210Y-914380D01*
X1310910D01*
G03Y-990620I-40910J-38120D01*
G01X1793790D01*
X1887790Y-896620D01*
X1980380D01*
G02X1988910Y-912300I1J-10160D01*
G03X1994270Y-971540I40536J-26195D01*
G02Y-985460I-7410J-6960D01*
G03Y-1051540I35175J-33040D01*
G02Y-1065460I-7410J-6960D01*
G03X1985990Y-1119500I35176J-33044D01*
G02X1976840Y-1134080I-9149J-4420D01*
G01X1260540D01*
X1187520Y-1061060D01*
Y-739160D01*
X1217930D01*
G03X1243350Y-713740I0J25420D01*
G01Y-429260D01*
G03X1217930Y-403840I-25420J0D01*
G01X1187520D01*
Y-362560D01*
X1097940Y-272980D01*
X-970940D01*
X-1047110Y-349150D01*
X-1123280Y-272980D01*
X-1923440D01*
X-2013020Y-362560D01*
Y-416520D01*
X-2034560D01*
G03X-2059980Y-441940I5J-25425D01*
G01Y-574060D01*
G03X-2034560Y-599480I25425J5D01*
G01X-2013020D01*
Y-1074490D01*
G02X-2030360Y-1081680I-10160J-2D01*
G01X-2077060Y-1034980D01*
X-2558440D01*
X-2638490Y-1115020D01*
X-2733060D01*
G03X-2758480Y-1140440I5J-25425D01*
G01Y-1272560D01*
G03X-2733060Y-1297980I25425J5D01*
G01X-2600940D01*
G03X-2575520Y-1272560I-5J25425D01*
G01Y-1177990D01*
X-2521560Y-1124020D01*
X-2464770D01*
G02X-2458860Y-1142440I-1J-10159D01*
G03X-2367140I45860J-64060D01*
G02X-2361230Y-1124020I5911J8261D01*
G01X-2113940D01*
X-2059980Y-1177990D01*
Y-1272560D01*
G03X-2034560Y-1297980I25425J5D01*
G01X-1939990D01*
X-1886020Y-1351940D01*
Y-2558430D01*
X-1732930Y-2711520D01*
X-1705630D01*
Y-2809240D01*
G03X-1680210Y-2834660I25420J0D01*
G01X-1530350D01*
G03X-1504930Y-2809240I0J25420D01*
G01Y-2711520D01*
X-1303840D01*
G03Y-2622480I33840J44520D01*
G01X-1504930D01*
Y-2524760D01*
G03X-1530350Y-2499340I-25420J0D01*
G01X-1680210D01*
G03X-1705630Y-2524760I0J-25420D01*
G01Y-2588370D01*
G02X-1722970Y-2595560I-10160J-2D01*
G01X-1796980Y-2521550D01*
Y-1315060D01*
X-1877020Y-1235010D01*
Y-1140440D01*
G03X-1902440Y-1115020I-25425J-5D01*
G01X-1923980D01*
Y-599480D01*
X-1902440D01*
G03X-1877020Y-574060I-5J25425D01*
G01Y-441940D01*
G03X-1902440Y-416520I-25425J-5D01*
G01X-1923980D01*
Y-399440D01*
X-1886560Y-362020D01*
X-1160160D01*
X-1127010Y-395170D01*
G02X-1130600Y-403840I-3594J-3590D01*
G01X-1136650D01*
G03X-1162070Y-429260I0J-25420D01*
G01Y-713740D01*
G03X-1136650Y-739160I25420J0D01*
G01X-986790D01*
G03X-961370Y-713740I0J25420D01*
G01Y-429260D01*
G03X-968870Y-411230I-25422J0D01*
G02X-968890Y-396850I7168J7200D01*
G01X-934060Y-362020D01*
X1061060D01*
X1085540Y-386500D01*
G02X1078350Y-403840I-7188J-7180D01*
G01X1068070D01*
G03X1042650Y-429260I0J-25420D01*
G01Y-713740D01*
G03X1068070Y-739160I25420J0D01*
G01X1098480D01*
Y-1097940D01*
X1223660Y-1223120D01*
X1991370D01*
G02X1999830Y-1238910I2J-10160D01*
G03X2029440Y-1294160I29616J-19687D01*
G01X2161560D01*
G03X2191170Y-1238910I-6J35563D01*
G02X2199630Y-1223120I8458J5630D01*
G01X2332340D01*
X2492440Y-1063020D01*
X2826390D01*
G02X2835550Y-1077580I2J-10160D01*
G03X2843900Y-1131590I43495J-20926D01*
G02Y-1145510I-7393J-6960D01*
G03X2843870Y-1211640I35145J-33081D01*
G02Y-1225560I-7410J-6960D01*
G03X2879040Y-1306860I35180J-33039D01*
G01X3011160D01*
G03X3040760Y-1296720I3J48264D01*
G01X3782810D01*
X3835380Y-1349290D01*
Y-1768390D01*
X3946610Y-1879620D01*
X4106050D01*
Y-1983740D01*
G03X4116070Y-1993760I10020J0D01*
G01X4265930D01*
G03X4275950Y-1983740I0J10020D01*
G01Y-1903290D01*
G02X4293290Y-1896100I10160J2D01*
G01X4343380Y-1946190D01*
Y-2752810D01*
X4276810Y-2819380D01*
X4007550D01*
X3835380Y-2991550D01*
Y-3014540D01*
G03X3928980Y-3023320I38117J-96959D01*
G02X3927210Y-3007540I5414J8597D01*
G01X4039130Y-2895620D01*
X4150640D01*
G02X4157830Y-2912960I2J-10160D01*
G01X4089380Y-2981410D01*
Y-3014540D01*
G03X4177150Y-3019910I38117J-96959D01*
G02X4174810Y-3003800I4846J8929D01*
G01X4219490Y-2959120D01*
X4325440D01*
X4326040Y-2958520D01*
G02X4343380Y-2965710I7180J-7188D01*
G01Y-3014540D01*
G03X4419620I38120J-96960D01*
G01Y-2936790D01*
X4533940Y-2822470D01*
Y-2453430D01*
X4539340D01*
X4539650Y-2453470D01*
G03X4542790Y-2453660I3103J25232D01*
G01X4579600D01*
Y-2665010D01*
X4683210Y-2768620D01*
X4810210D01*
X4851380Y-2809790D01*
Y-3260810D01*
X4848310Y-3263880D01*
X3660690D01*
X3657620Y-3260810D01*
Y-3215680D01*
X3698260D01*
G03X3723680Y-3190260I-5J25425D01*
G01Y-3032740D01*
G03X3698260Y-3007320I-25425J-5D01*
G01X3540740D01*
G03X3515320Y-3032740I5J-25425D01*
G01Y-3190260D01*
G03X3540740Y-3215680I25425J5D01*
G01X3581380D01*
Y-3292390D01*
X3629110Y-3340120D01*
X4879890D01*
X4927620Y-3292390D01*
Y-2778210D01*
X4841790Y-2692380D01*
X4714790D01*
X4655840Y-2633430D01*
Y-2453660D01*
X4692650D01*
G03X4718070Y-2428240I0J25420D01*
G01Y-2324120D01*
X4733840D01*
X4987840Y-2070120D01*
X5102820D01*
Y-2110760D01*
G03X5128240Y-2136180I25425J5D01*
G01X5285760D01*
G03X5311180Y-2110760I-5J25425D01*
G01Y-2070120D01*
X5326950D01*
X5435620Y-1961450D01*
Y-771610D01*
X5324390Y-660380D01*
X4968790D01*
X4960770Y-652360D01*
G02X4967960Y-635020I7188J7180D01*
G01X5459990D01*
Y-2984480D01*
X4952980D01*
Y-3499990D01*
X-2412980D01*
G37*
G36*
G01Y-2984500D02*
Y-2984480D01*
X-2921000D01*
Y-2847860D01*
G02X-2902140Y-2842620I10159J-4D01*
G03X-2829000Y-2883920I73140J44113D01*
G01X-2759000D01*
G03Y-2713080I0J85420D01*
G01X-2829000D01*
G03X-2902140Y-2754380I0J-85413D01*
G02X-2921000Y-2749140I-8701J5244D01*
G01Y-1822860D01*
G02X-2902140Y-1817620I10159J-4D01*
G03X-2829000Y-1858920I73140J44113D01*
G01X-2759000D01*
G03Y-1688080I0J85420D01*
G01X-2829000D01*
G03X-2902140Y-1729380I0J-85413D01*
G02X-2921000Y-1724140I-8701J5244D01*
G01Y-1587500D01*
X-2286000D01*
Y-1755260D01*
X-2288930Y-1758190D01*
G02X-2305990Y-1753390I-7183J7187D01*
G03X-2389000Y-1688080I-83010J-20098D01*
G01X-2459000D01*
G03Y-1858920I0J-85420D01*
G01X-2389000D01*
G03X-2345820Y-1847190I-20J85415D01*
G02X-2330520Y-1855960I5138J-8767D01*
G01Y-1975770D01*
X-2335880D01*
X-2336170Y-1975730D01*
G03X-2339000Y-1975580I-2758J-25269D01*
G01X-2509000D01*
G03X-2534420Y-2001000I0J-25420D01*
G01Y-2111000D01*
G03X-2531610Y-2122610I25418J7D01*
G03X-2535420Y-2136000I21606J-13385D01*
G01Y-2306000D01*
G03X-2522410Y-2328190I25429J0D01*
G03X-2522720Y-2331000I12407J-2791D01*
G01Y-2371000D01*
G03X-2522410Y-2373810I12717J-19D01*
G03X-2535420Y-2396000I12419J-22190D01*
G01Y-2436000D01*
G03X-2531610Y-2449390I25416J-5D01*
G03X-2534420Y-2461000I22608J-11617D01*
G01Y-2571000D01*
G03X-2509000Y-2596420I25420J0D01*
G01X-2339000D01*
G03X-2313580Y-2571000I0J25420D01*
G01Y-2461000D01*
G03X-2316390Y-2449390I-25418J-7D01*
G03X-2312580Y-2436000I-21606J13385D01*
G01Y-2396000D01*
G03X-2325590Y-2373810I-25429J0D01*
G03X-2325280Y-2371000I-12407J2791D01*
G01Y-2331000D01*
G03X-2325590Y-2328190I-12717J19D01*
G03X-2320170Y-2324120I-12418J22180D01*
G01X-2286000D01*
Y-2984500D01*
X-2412980D01*
G37*
G36*
G01X4735410Y-2214730D02*
G02X4718070Y-2207540I-7180J7188D01*
G01Y-2143760D01*
G03X4692650Y-2118340I-25420J0D01*
G01X4542790D01*
G03X4539650Y-2118530I-37J-25422D01*
G01X4539340Y-2118570D01*
X4533940D01*
Y-2008930D01*
X4539340D01*
X4539650Y-2008970D01*
G03X4542790Y-2009160I3103J25232D01*
G01X4692650D01*
G03X4718070Y-1983740I0J25420D01*
G01Y-1879620D01*
X4841790D01*
X4905290Y-1816120D01*
X5110040D01*
G03Y-1739880I96960J38120D01*
G01X4873710D01*
X4810210Y-1803380D01*
X4718070D01*
Y-1699260D01*
G03X4692650Y-1673840I-25420J0D01*
G01X4542790D01*
G03X4539650Y-1674030I-37J-25422D01*
G01X4539340Y-1674070D01*
X4533940D01*
Y-1564430D01*
X4539340D01*
X4539650Y-1564470D01*
G03X4542790Y-1564660I3103J25232D01*
G01X4692650D01*
G03X4718070Y-1539240I0J25420D01*
G01Y-1435120D01*
X4873710D01*
X5000710Y-1562120D01*
X5110040D01*
G03Y-1485880I96960J38120D01*
G01X5032290D01*
X4905290Y-1358880D01*
X4718070D01*
Y-1254760D01*
G03X4692650Y-1229340I-25420J0D01*
G01X4542790D01*
G03X4539650Y-1229530I-37J-25422D01*
G01X4539340Y-1229570D01*
X4533940D01*
Y-1119930D01*
X4539340D01*
X4539650Y-1119970D01*
G03X4542790Y-1120160I3103J25232D01*
G01X4692650D01*
G03X4718070Y-1094740I0J25420D01*
G01Y-990620D01*
X4784810D01*
X4787880Y-993690D01*
Y-1158790D01*
X4937210Y-1308120D01*
X5110040D01*
G03Y-1231880I96960J38120D01*
G01X4968790D01*
X4864120Y-1127210D01*
Y-962110D01*
X4816390Y-914380D01*
X4718070D01*
Y-810260D01*
G03X4692650Y-784840I-25420J0D01*
G01X4542790D01*
G03X4517370Y-810260I0J-25420D01*
G01Y-1009930D01*
G02X4500030Y-1017120I-10160J-2D01*
G01X4397290Y-914380D01*
X4275950D01*
Y-810260D01*
G03X4275860Y-808940I-10019J-20D01*
G01X4275530Y-806460D01*
X4500030Y-581960D01*
G02X4517370Y-589150I7180J-7188D01*
G01Y-650240D01*
G03X4542790Y-675660I25420J0D01*
G01X4692650D01*
G03X4718070Y-650240I0J25420D01*
G01Y-365760D01*
G03X4692650Y-340340I-25420J0D01*
G01X4542790D01*
G03X4517370Y-365760I0J-25420D01*
G01Y-463480D01*
X4492590D01*
X4296340Y-659730D01*
X4291100Y-654480D01*
X4291280Y-652160D01*
G03X4291350Y-650240I-25351J1886D01*
G01Y-517780D01*
X4291500Y-517180D01*
G03Y-498820I-37000J9180D01*
G01X4291350Y-498220D01*
Y-365760D01*
G03X4265930Y-340340I-25420J0D01*
G01X4116070D01*
G03X4090650Y-365760I0J-25420D01*
G01Y-469880D01*
X3946610D01*
X3898880Y-517610D01*
Y-682710D01*
X3857710Y-723880D01*
X3759080D01*
Y-695940D01*
G03X3749060Y-685920I-10025J-5D01*
G01X3616940D01*
G03X3606920Y-695940I5J-10025D01*
G01Y-828060D01*
G03X3616940Y-838080I10025J5D01*
G01X3749060D01*
G03X3759080Y-828060I-5J10025D01*
G01Y-800120D01*
X3889290D01*
X3975120Y-714290D01*
Y-549190D01*
X3978190Y-546120D01*
X4090650D01*
Y-650240D01*
G03X4116070Y-675660I25420J0D01*
G01X4265930D01*
G03X4267850Y-675590I34J25421D01*
G01X4270170Y-675410D01*
X4275420Y-680650D01*
X4238590Y-717480D01*
X4045560D01*
X3789060Y-973980D01*
X3063810D01*
G02X3054650Y-959420I-2J10160D01*
G03X3038350Y-898630I-43495J20918D01*
G02X3036760Y-883180I5724J8396D01*
G03Y-833820I-25605J24680D01*
G02X3038350Y-818370I7314J7054D01*
G03X3040760Y-816620I-27140J39910D01*
G01X3312540D01*
G03X3293650Y-736970I52958J54625D01*
G01X3292470Y-740380D01*
X3060220D01*
G02X3051690Y-724700I-1J10160D01*
G03X3011160Y-650240I-40535J26197D01*
G01X2879040D01*
G03X2843870Y-731540I10J-48261D01*
G02Y-745460I-7410J-6960D01*
G03X2851850Y-818370I35178J-33042D01*
G02X2853440Y-833820I-5724J-8396D01*
G03Y-883180I25605J-24680D01*
G02X2851850Y-898630I-7314J-7054D01*
G03X2835550Y-959420I27195J-39872D01*
G02X2826390Y-973980I-9158J-4400D01*
G01X2455560D01*
X2295460Y-1134080D01*
X2214160D01*
G02X2205010Y-1119500I-1J10160D01*
G03X2196730Y-1065460I-43456J20996D01*
G02Y-1051540I7410J6960D01*
G03Y-985460I-35175J33040D01*
G02Y-971540I7410J6960D01*
G03Y-905460I-35175J33040D01*
G02Y-891540I7410J6960D01*
G03Y-825460I-35175J33040D01*
G02Y-811540I7410J6960D01*
G03X2199320Y-748450I-35177J33042D01*
G02X2200150Y-741300I3977J3162D01*
G03X2209820Y-721340I-15751J19953D01*
G01Y-675660D01*
G03X2209810Y-674850I-25421J91D01*
G02X2223500Y-665000I10154J326D01*
G03X2273340Y-654930I16796J45246D01*
G02X2287260I6960J-7410D01*
G03X2350350Y-657520I33042J35177D01*
G02X2357500Y-658350I3162J-3977D01*
G03X2377460Y-668020I19953J15751D01*
G01X2423140D01*
G03X2443100Y-658350I7J25421D01*
G02X2450250Y-657520I3988J-3147D01*
G03X2513340Y-654930I30048J37767D01*
G02X2527260I6960J-7410D01*
G03X2593340I33040J35175D01*
G02X2607260I6960J-7410D01*
G03X2673340I33040J35175D01*
G02X2687260I6960J-7410D01*
G03X2753340I33040J35175D01*
G02X2767260I6960J-7410D01*
G03X2848560Y-619760I33039J35180D01*
G01Y-487640D01*
G03X2767260Y-452470I-48261J-10D01*
G02X2753340I-6960J7410D01*
G03X2687260I-33040J-35175D01*
G02X2673340I-6960J7410D01*
G03X2607260I-33040J-35175D01*
G02X2593340I-6960J7410D01*
G03X2527260I-33040J-35175D01*
G02X2513340I-6960J7410D01*
G03X2450250Y-449880I-33042J-35177D01*
G02X2443100Y-449050I-3162J3977D01*
G03X2423140Y-439380I-19953J-15751D01*
G01X2377460D01*
G03X2357500Y-449050I-7J-25421D01*
G02X2350350Y-449880I-3988J3147D01*
G03X2287260Y-452470I-30048J-37767D01*
G02X2273340I-6960J7410D01*
G03X2192040Y-487640I-33039J-35180D01*
G01Y-619760D01*
G03X2195050Y-636560I48265J-22D01*
G02X2185210Y-650250I-9523J-3536D01*
G03X2184400Y-650240I-719J-25406D01*
G01X2133620D01*
Y-634460D01*
X2054870Y-555710D01*
Y-348540D01*
X2111290Y-292120D01*
X4810210D01*
X4851380Y-333290D01*
Y-650790D01*
X4937210Y-736620D01*
X5292810D01*
X5359380Y-803190D01*
Y-1929870D01*
X5328520Y-1960730D01*
G02X5311180Y-1953550I-7182J7184D01*
G01Y-1953240D01*
G03X5285760Y-1927820I-25425J-5D01*
G01X5128240D01*
G03X5102820Y-1953240I5J-25425D01*
G01Y-1993880D01*
X4956260D01*
X4735410Y-2214730D01*
G37*
%LPC*%
G75*
G36*
G01X2960350Y-2618740D02*
Y-2334260D01*
G02X2973070Y-2321540I12720J0D01*
G01X3122930D01*
G02X3135650Y-2334260I0J-12720D01*
G01Y-2618740D01*
G02X3122930Y-2631460I-12720J0D01*
G01X2973070D01*
G02X2960350Y-2618740I0J12720D01*
G37*
G36*
G01X2198350D02*
Y-2334260D01*
G02X2211070Y-2321540I12720J0D01*
G01X2360930D01*
G02X2373650Y-2334260I0J-12720D01*
G01Y-2618740D01*
G02X2360930Y-2631460I-12720J0D01*
G01X2211070D01*
G02X2198350Y-2618740I0J12720D01*
G37*
G36*
G01Y-3253740D02*
Y-2969260D01*
G02X2211070Y-2956540I12720J0D01*
G01X2360930D01*
G02X2373650Y-2969260I0J-12720D01*
G01Y-3253740D01*
G02X2360930Y-3266460I-12720J0D01*
G01X2211070D01*
G02X2198350Y-3253740I0J12720D01*
G37*
G36*
G01X229850Y-1221740D02*
Y-937260D01*
G02X242570Y-924540I12720J0D01*
G01X392430D01*
G02X405150Y-937260I0J-12720D01*
G01Y-1221740D01*
G02X392430Y-1234460I-12720J0D01*
G01X242570D01*
G02X229850Y-1221740I0J12720D01*
G37*
G36*
G01X229660Y-3183860D02*
G02X163940I-32860J5D01*
G01Y-3051740D01*
G02X229660I32860J-5D01*
G01Y-3183860D01*
G37*
G36*
G01X149660D02*
G02X83940I-32860J5D01*
G01Y-3051740D01*
G02X149660I32860J-5D01*
G01Y-3183860D01*
G37*
G36*
G01X-532150Y-1221740D02*
Y-937260D01*
G02X-519430Y-924540I12720J0D01*
G01X-369570D01*
G02X-356850Y-937260I0J-12720D01*
G01Y-1221740D01*
G02X-369570Y-1234460I-12720J0D01*
G01X-519430D01*
G02X-532150Y-1221740I0J12720D01*
G37*
G36*
G01X-1294150D02*
Y-937260D01*
G02X-1281430Y-924540I12720J0D01*
G01X-1131570D01*
G02X-1118850Y-937260I0J-12720D01*
G01Y-1221740D01*
G02X-1131570Y-1234460I-12720J0D01*
G01X-1281430D01*
G02X-1294150Y-1221740I0J12720D01*
G37*
G36*
G01X-2101870Y-3253740D02*
Y-2969260D01*
G02X-2089150Y-2956540I12720J0D01*
G01X-1939290D01*
G02X-1926570Y-2969260I0J-12720D01*
G01Y-3253740D01*
G02X-1939290Y-3266460I-12720J0D01*
G01X-2089150D01*
G02X-2101870Y-3253740I0J12720D01*
G37*
G36*
G01X3657620Y-2143210D02*
X3762290Y-2247880D01*
X4090650D01*
Y-2143760D01*
G02X4116070Y-2118340I25420J0D01*
G01X4265930D01*
G02X4291350Y-2143760I0J-25420D01*
G01Y-2428240D01*
G02X4265930Y-2453660I-25420J0D01*
G01X4116070D01*
G02X4090650Y-2428240I0J25420D01*
G01Y-2324120D01*
X3730710D01*
X3581380Y-2174790D01*
Y-1589870D01*
X3432930Y-1441420D01*
X2848560D01*
Y-1469360D01*
G02X2767260Y-1504530I-48261J10D01*
G03X2753340I-6960J-7410D01*
G02X2687260I-33040J35175D01*
G03X2673340I-6960J-7410D01*
G02X2607260I-33040J35175D01*
G03X2593340I-6960J-7410D01*
G02X2527260I-33040J35175D01*
G03X2513340I-6960J-7410D01*
G02X2447260I-33040J35175D01*
G03X2433340I-6960J-7410D01*
G02X2370250Y-1507120I-33042J35177D01*
G03X2363100Y-1507950I-3162J-3977D01*
G02X2358420Y-1512520I-19953J15752D01*
G01Y-1669510D01*
X2365290Y-1676380D01*
X2809790D01*
X2952610Y-1819200D01*
X2955590Y-1818210D01*
G02X3022620Y-1988160I28908J-86792D01*
G01Y-2143210D01*
X3063790Y-2184380D01*
X3303820D01*
X3428280Y-2308840D01*
X3549650D01*
G02X3575070Y-2334260I0J-25420D01*
G01Y-2618740D01*
G02X3549650Y-2644160I-25420J0D01*
G01X3399790D01*
G02X3374370Y-2618740I0J25420D01*
G01Y-2362750D01*
X3272240Y-2260620D01*
X3032210D01*
X2946380Y-2174790D01*
Y-1988160D01*
G02X2897710Y-1876090I38121J83158D01*
G01X2898700Y-1873110D01*
X2778210Y-1752620D01*
X2333710D01*
X2295760Y-1714670D01*
G03X2278420Y-1721860I-7180J-7188D01*
G01Y-1811530D01*
X2274650Y-1815300D01*
G03X2275910Y-1830730I7188J-7179D01*
G02X2305660Y-1866880I-53409J-74270D01*
G01X2555790D01*
X2750840Y-2061930D01*
Y-2308840D01*
X2787650D01*
G02X2813070Y-2334260I0J-25420D01*
G01Y-2618740D01*
G02X2787650Y-2644160I-25420J0D01*
G01X2637790D01*
G02X2612370Y-2618740I0J25420D01*
G01Y-2334260D01*
G02X2637790Y-2308840I25420J0D01*
G01X2674600D01*
Y-2093510D01*
X2524210Y-1943120D01*
X2305660D01*
G02X2184380Y-1821840I-83160J38120D01*
G01Y-1797750D01*
X2202180Y-1779950D01*
Y-1498960D01*
G02X2192040Y-1469360I38124J29597D01*
G01Y-1337240D01*
G02X2270350Y-1299480I48262J-7D01*
G03X2277500Y-1298650I3162J3977D01*
G02X2297460Y-1288980I19953J-15751D01*
G01X2343140D01*
G02X2363100Y-1298650I7J-25421D01*
G03X2370250Y-1299480I3988J3147D01*
G02X2433340Y-1302070I30048J-37767D01*
G03X2447260I6960J7410D01*
G02X2513340I33040J-35175D01*
G03X2527260I6960J7410D01*
G02X2593340I33040J-35175D01*
G03X2607260I6960J7410D01*
G02X2673340I33040J-35175D01*
G03X2687260I6960J7410D01*
G02X2753340I33040J-35175D01*
G03X2767260I6960J7410D01*
G02X2848560Y-1337240I33039J-35180D01*
G01Y-1365180D01*
X3464510D01*
X3657620Y-1558290D01*
Y-2143210D01*
G37*
G36*
G01X1730290Y-2692380D02*
X1744540D01*
G02Y-2768620I96960J-38120D01*
G01X1698710D01*
X1571710Y-2641620D01*
X1416070D01*
Y-2745740D01*
G02X1390650Y-2771160I-25420J0D01*
G01X1240790D01*
G02X1215370Y-2745740I0J25420D01*
G01Y-2461260D01*
G02X1240790Y-2435840I25420J0D01*
G01X1390650D01*
G02X1416070Y-2461260I0J-25420D01*
G01Y-2565380D01*
X1603290D01*
X1730290Y-2692380D01*
G37*
G36*
G01X459240Y-2976820D02*
G03X442190Y-2981580I-7183J-7187D01*
G02X407660Y-3008660I-34536J8482D01*
G01X275540D01*
G02Y-2937540I5J35560D01*
G01X407690D01*
G03X411280Y-2928860I2J5082D01*
G01X408380Y-2925960D01*
X275540D01*
G02Y-2860240I5J32860D01*
G01X407660D01*
G02X440500Y-2891900I-2J-32864D01*
G01X440570Y-2893890D01*
X571960Y-3025280D01*
X804050D01*
Y-2905760D01*
G02X814070Y-2895740I10020J0D01*
G01X963930D01*
G02X973950Y-2905760I0J-10020D01*
G01Y-3190240D01*
G02X963930Y-3200260I-10020J0D01*
G01X814070D01*
G02X804050Y-3190240I0J10020D01*
G01Y-3070720D01*
X553140D01*
X459240Y-2976820D01*
G37*
G36*
G01X1416070Y-3190240D02*
G02X1390650Y-3215660I-25420J0D01*
G01X1240790D01*
G02X1215370Y-3190240I0J25420D01*
G01Y-2905760D01*
G02X1240790Y-2880340I25420J0D01*
G01X1390650D01*
G02X1416070Y-2905760I0J-25420D01*
G01Y-3009880D01*
X1571710D01*
X1635210Y-2946380D01*
X1737320D01*
Y-2905740D01*
G02X1762740Y-2880320I25425J-5D01*
G01X1920260D01*
G02X1945680Y-2905740I-5J-25425D01*
G01Y-3063260D01*
G02X1920260Y-3088680I-25425J5D01*
G01X1762740D01*
G02X1737320Y-3063260I5J25425D01*
G01Y-3022620D01*
X1666790D01*
X1603290Y-3086120D01*
X1416070D01*
Y-3190240D01*
G37*
G36*
G01X2674600Y-2919010D02*
X2587710Y-2832120D01*
X2168610D01*
X2057380Y-2720890D01*
Y-2301790D01*
X2016210Y-2260620D01*
X1938460D01*
G02X1744540I-96960J38120D01*
G01X1707060D01*
X1706460Y-2260020D01*
G03X1689120Y-2267210I-7180J-7188D01*
G01Y-2397210D01*
X1730290Y-2438380D01*
X1744540D01*
G02Y-2514620I96960J-38120D01*
G01X1698710D01*
X1612880Y-2428790D01*
Y-2238290D01*
X1571710Y-2197120D01*
X1416070D01*
Y-2301240D01*
G02X1390650Y-2326660I-25420J0D01*
G01X1240790D01*
G02X1215370Y-2301240I0J25420D01*
G01Y-2016760D01*
G02X1240790Y-1991340I25420J0D01*
G01X1390650D01*
G02X1416070Y-2016760I0J-25420D01*
G01Y-2120880D01*
X1603290D01*
X1604210Y-2121800D01*
G03X1612880Y-2118210I3590J3594D01*
G01Y-1793790D01*
X1571710Y-1752620D01*
X1416070D01*
Y-1856740D01*
G02X1390650Y-1882160I-25420J0D01*
G01X1240790D01*
G02X1215370Y-1856740I0J25420D01*
G01Y-1572260D01*
G02X1240790Y-1546840I25420J0D01*
G01X1390650D01*
G02X1416070Y-1572260I0J-25420D01*
G01Y-1676380D01*
X1603290D01*
X1689120Y-1762210D01*
Y-2134860D01*
X1738640Y-2184380D01*
X1744490D01*
X1745810Y-2181310D01*
G02X1938460Y-2184380I95693J-41189D01*
G01X2047790D01*
X2133620Y-2270210D01*
Y-2689310D01*
X2200190Y-2755880D01*
X2619290D01*
X2750840Y-2887430D01*
Y-2943840D01*
X2787650D01*
G02X2813070Y-2969260I0J-25420D01*
G01Y-3253740D01*
G02X2787650Y-3279160I-25420J0D01*
G01X2637790D01*
G02X2612370Y-3253740I0J25420D01*
G01Y-2969260D01*
G02X2637790Y-2943840I25420J0D01*
G01X2674600D01*
Y-2919010D01*
G37*
G36*
G01X407660Y-2845860D02*
X275540D01*
G02Y-2780140I5J32860D01*
G01X336800D01*
Y-2771030D01*
X332880Y-2770110D01*
G02X322290Y-2765860I8742J37101D01*
G01X252700D01*
G02X242680Y-2755840I0J10020D01*
G01Y-2710160D01*
G02X252700Y-2700140I10020J0D01*
G01X322290D01*
G02X327200Y-2697700I19375J-32828D01*
G03Y-2688300I-1916J4700D01*
G02X322290Y-2685860I14465J35268D01*
G01X275540D01*
G02Y-2620140I5J32860D01*
G01X322290D01*
G02X332880Y-2615890I19332J-32851D01*
G01X336800Y-2614970D01*
Y-2605860D01*
X275540D01*
G02Y-2540140I5J32860D01*
G01X407660D01*
G02X429860Y-2597230I-6J-32864D01*
G03X436720Y-2614880I6863J-7491D01*
G01X506210D01*
X533380Y-2587710D01*
Y-1897560D01*
X754560Y-1676380D01*
X788650D01*
Y-1572260D01*
G02X814070Y-1546840I25420J0D01*
G01X963930D01*
G02X989350Y-1572260I0J-25420D01*
G01Y-1856740D01*
G02X963930Y-1882160I-25420J0D01*
G01X814070D01*
G02X788650Y-1856740I0J25420D01*
G01Y-1774640D01*
G03X771310Y-1767450I-10160J2D01*
G01X609620Y-1929140D01*
Y-2194840D01*
G03X626960Y-2202030I10160J-2D01*
G01X708110Y-2120880D01*
X788650D01*
Y-2016760D01*
G02X814070Y-1991340I25420J0D01*
G01X963930D01*
G02X989350Y-2016760I0J-25420D01*
G01Y-2301240D01*
G02X963930Y-2326660I-25420J0D01*
G01X814070D01*
G02X788650Y-2301240I0J25420D01*
G01Y-2197120D01*
X739690D01*
X673120Y-2263690D01*
Y-2597620D01*
G03X690460Y-2604810I10160J-2D01*
G01X714490Y-2580780D01*
X804050D01*
Y-2461260D01*
G02X814070Y-2451240I10020J0D01*
G01X963930D01*
G02X973950Y-2461260I0J-10020D01*
G01Y-2745740D01*
G02X963930Y-2755760I-10020J0D01*
G01X814070D01*
G02X804050Y-2745740I0J10020D01*
G01Y-2626220D01*
X733310D01*
X721220Y-2638310D01*
Y-2803410D01*
X688910Y-2835720D01*
X431400D01*
G02X407660Y-2845860I-23741J22723D01*
G37*
G36*
G01X-1512570Y-3279160D02*
X-1662430D01*
G02X-1687850Y-3253740I0J25420D01*
G01Y-2969260D01*
G02X-1662430Y-2943840I25420J0D01*
G01X-1512570D01*
G02X-1487150Y-2969260I0J-25420D01*
G01Y-3073380D01*
X-1441880D01*
Y-3081880D01*
X-913290D01*
X-881420Y-3050010D01*
Y-3047910D01*
G02X-876680Y-3025470I55920J-91D01*
G03X-885980Y-3011220I-9300J4090D01*
G01X-1081290D01*
X-1181120Y-2911390D01*
Y-2301790D01*
X-1222290Y-2260620D01*
X-1504930D01*
Y-2364740D01*
G02X-1530350Y-2390160I-25420J0D01*
G01X-1680210D01*
G02X-1705630Y-2364740I0J25420D01*
G01Y-2080260D01*
G02X-1680210Y-2054840I25420J0D01*
G01X-1530350D01*
G02X-1504930Y-2080260I0J-25420D01*
G01Y-2184380D01*
X-1190710D01*
X-1104880Y-2270210D01*
Y-2879810D01*
X-1049710Y-2934980D01*
X-991560D01*
G03X-984370Y-2917640I2J10160D01*
G01X-1054120Y-2847890D01*
Y-2238290D01*
X-1117620Y-2174790D01*
Y-1945660D01*
X-1154430D01*
G02X-1179850Y-1920240I0J25420D01*
G01Y-1816120D01*
X-1504930D01*
Y-1920240D01*
G02X-1530350Y-1945660I-25420J0D01*
G01X-1680210D01*
G02X-1705630Y-1920240I0J25420D01*
G01Y-1635760D01*
G02X-1680210Y-1610340I25420J0D01*
G01X-1530350D01*
G02X-1504930Y-1635760I0J-25420D01*
G01Y-1739880D01*
X-1179850D01*
Y-1635760D01*
G02X-1154430Y-1610340I25420J0D01*
G01X-1004570D01*
G02X-979150Y-1635760I0J-25420D01*
G01Y-1920240D01*
G02X-1004570Y-1945660I-25420J0D01*
G01X-1041380D01*
Y-2143210D01*
X-977880Y-2206710D01*
Y-2816310D01*
X-939210Y-2854980D01*
X-867740D01*
G03X-861240Y-2837010I4J10159D01*
G02X-784590Y-2755880I35737J43011D01*
G01X-751560D01*
G03X-744370Y-2738540I2J10160D01*
G01X-805230Y-2677680D01*
Y-2148320D01*
X-690900Y-2033990D01*
Y-1945660D01*
X-727710D01*
G02X-753130Y-1920240I0J25420D01*
G01Y-1635760D01*
G02X-727710Y-1610340I25420J0D01*
G01X-577850D01*
G02X-552430Y-1635760I0J-25420D01*
G01Y-1920240D01*
G02X-577850Y-1945660I-25420J0D01*
G01X-614660D01*
Y-2065570D01*
X-728990Y-2179900D01*
Y-2540620D01*
G03X-715710Y-2550290I10159J-2D01*
G02X-643340Y-2594370I17200J-53210D01*
G01X-643070Y-2595970D01*
X-630570Y-2608480D01*
X-626710D01*
G03X-617550Y-2593920I2J10160D01*
G02X-609230Y-2539960I43496J20915D01*
G03Y-2526040I-7410J6960D01*
G02X-611820Y-2462950I35177J33042D01*
G03X-612650Y-2455800I-3977J3162D01*
G02X-622320Y-2435840I15751J19953D01*
G01Y-2390160D01*
G02X-596900Y-2364740I25420J0D01*
G01X-419100D01*
G02X-418290Y-2364750I91J-25416D01*
G03X-408450Y-2351060I317J10154D01*
G02X-411460Y-2334260I45255J16778D01*
G01Y-2202140D01*
G02X-323330Y-2174950I48262J-9D01*
G03X-307880Y-2176540I8396J5724D01*
G02X-263700Y-2172410I24677J-25607D01*
G03X-248960Y-2168300I5574J8497D01*
G02X-241320Y-2158980I22919J-10996D01*
G01Y-1488990D01*
X-295190Y-1435120D01*
X-714290D01*
X-817900Y-1331510D01*
Y-1247160D01*
X-854710D01*
G02X-880130Y-1221740I0J25420D01*
G01Y-937260D01*
G02X-854710Y-911840I25420J0D01*
G01X-817900D01*
Y-868130D01*
X-697600Y-747830D01*
G03X-701190Y-739160I-3594J3590D01*
G01X-709930D01*
G02X-735350Y-713740I0J25420D01*
G01Y-429260D01*
G02X-709930Y-403840I25420J0D01*
G01X-560070D01*
G02X-534650Y-429260I0J-25420D01*
G01Y-713740D01*
G02X-560070Y-739160I-25420J0D01*
G01X-596880D01*
Y-754930D01*
X-741660Y-899710D01*
Y-911840D01*
X-704850D01*
G02X-679430Y-937260I0J-25420D01*
G01Y-1221740D01*
G02X-704850Y-1247160I-25420J0D01*
G01X-741660D01*
Y-1299930D01*
X-682710Y-1358880D01*
X-263610D01*
X-165080Y-1457410D01*
Y-2158980D01*
G02X-157440Y-2168300I-15279J-20316D01*
G03X-142700Y-2172410I9166J4387D01*
G02X-98520Y-2176540I19503J-29737D01*
G03X-83070Y-2174950I7054J7314D01*
G02X-81320Y-2172540I39910J-27140D01*
G01Y-1360910D01*
X-55900Y-1335490D01*
Y-1247160D01*
X-92710D01*
G02X-118130Y-1221740I0J25420D01*
G01Y-937260D01*
G02X-92710Y-911840I25420J0D01*
G01X-83970D01*
G03X-80380Y-903170I-4J5080D01*
G01X-101620Y-881930D01*
Y-654660D01*
G02X-25380I38120J83160D01*
G01Y-850350D01*
X20340Y-896070D01*
Y-911840D01*
X57150D01*
G02X82570Y-937260I0J-25420D01*
G01Y-1221740D01*
G02X57150Y-1247160I-25420J0D01*
G01X20340D01*
Y-1367070D01*
X-5080Y-1392490D01*
Y-1476040D01*
G03X12260Y-1483230I10160J-2D01*
G01X73110Y-1422380D01*
X515070D01*
X681620Y-1255830D01*
G03X678030Y-1247160I-3594J3590D01*
G01X669290D01*
G02X643870Y-1221740I0J25420D01*
G01Y-937260D01*
G02X669290Y-911840I25420J0D01*
G01X706100D01*
Y-823510D01*
X660380Y-777790D01*
Y-654660D01*
G02X736620I38120J83160D01*
G01Y-746210D01*
X782340Y-791930D01*
Y-911840D01*
X819150D01*
G02X844570Y-937260I0J-25420D01*
G01Y-1221740D01*
G02X819150Y-1247160I-25420J0D01*
G01X782340D01*
Y-1262930D01*
X767230Y-1278040D01*
G03X774420Y-1295380I7188J-7180D01*
G01X901150D01*
X977880Y-1218650D01*
Y-993410D01*
G02X1054120I38120J40910D01*
G01Y-1250230D01*
X1026310Y-1278040D01*
G03X1033500Y-1295380I7188J-7180D01*
G01X1229090D01*
G02Y-1371620I40910J-38120D01*
G01X1031790D01*
X904790Y-1498620D01*
X777790D01*
X379720Y-1896690D01*
Y-2380140D01*
X407660D01*
G02Y-2445860I-5J-32860D01*
G01X360910D01*
G02X350320Y-2450110I-19332J32851D01*
G01X346400Y-2451030D01*
Y-2460140D01*
X407660D01*
G02Y-2525860I-5J-32860D01*
G01X275540D01*
G02Y-2460140I5J32860D01*
G01X336800D01*
Y-2451030D01*
X332880Y-2450110D01*
G02X322290Y-2445860I8742J37101D01*
G01X275540D01*
G02Y-2380140I5J32860D01*
G01X303480D01*
Y-1865110D01*
X746210Y-1422380D01*
X873210D01*
X906630Y-1388960D01*
G03X899440Y-1371620I-7188J7180D01*
G01X777790D01*
X234920Y-1914490D01*
Y-2172540D01*
G02X245060Y-2202140I-38124J-29597D01*
G01Y-2334260D01*
G02X175880Y-2377750I-48263J5D01*
G03X161320Y-2386910I-4400J-9158D01*
G01Y-2407300D01*
X-48900Y-2617520D01*
X-335330D01*
G03X-342520Y-2634860I-2J-10160D01*
G01X1320Y-2978700D01*
Y-3013670D01*
G03X17110Y-3022130I10160J-2D01*
G02X72360Y-3051740I19687J-29616D01*
G01Y-3183860D01*
G02X12120Y-3209460I-35563J7D01*
G03X-3330Y-3211050I-7054J-7314D01*
G02X-76240Y-3219030I-39868J27198D01*
G03X-90160I-6960J-7410D01*
G02X-156240I-33040J35175D01*
G03X-170160I-6960J-7410D01*
G02X-233250Y-3221620I-33042J35177D01*
G03X-240400Y-3222450I-3162J-3977D01*
G02X-260360Y-3232120I-19953J15751D01*
G01X-306040D01*
G02X-328960Y-3217700I-4J25419D01*
G03X-343700Y-3213590I-9166J-4387D01*
G02X-398760Y-3183860I-19499J29739D01*
G01Y-3051740D01*
G02X-343700Y-3022010I35561J-9D01*
G03X-328960Y-3017900I5574J8497D01*
G02X-306040Y-3003480I22916J-10999D01*
G01X-260360D01*
G02X-240400Y-3013150I7J-25421D01*
G03X-233250Y-3013980I3988J3147D01*
G02X-170160Y-3016570I30048J-37767D01*
G03X-156240I6960J7410D01*
G02X-124140Y-3003490I33047J-35173D01*
G03X-117150Y-2986150I-197J10158D01*
G01X-376350Y-2726950D01*
G03X-393690Y-2733940I-7182J-7187D01*
G02X-406770Y-2766040I-48253J947D01*
G03Y-2779960I7410J-6960D01*
G02X-406800Y-2846090I-35175J-33049D01*
G03Y-2860010I7393J-6960D01*
G02X-406770Y-2926140I-35145J-33081D01*
G03Y-2940060I7410J-6960D01*
G02X-441940Y-3021360I-35180J-33039D01*
G01X-574060D01*
G02X-603660Y-3011220I-3J48264D01*
G01X-765020D01*
G03X-774320Y-3025470I0J-10160D01*
G02X-825410Y-3103920I-51180J-22530D01*
G01X-827510D01*
X-881710Y-3158120D01*
X-1487150D01*
Y-3253740D01*
G02X-1512570Y-3279160I-25420J0D01*
G37*
G36*
G01X-2459000Y-2868520D02*
G02Y-2728480I0J70020D01*
G01X-2389000D01*
G02Y-2868520I0J-70020D01*
G01X-2459000D01*
G37*
G54D27*
X-2667000Y-381000D03*
G54D28*
X-1714500Y-1206500D03*
Y-508000D03*
G54D29*
X1841500Y-1968500D03*
X4635500Y-3111500D03*
X5207000Y-1016000D03*
%LPD*%
G75*
G36*
G01X-389290Y-2528480D02*
G02X-398450Y-2513920I-2J10160D01*
G03X-404180Y-2462950I-43495J20917D01*
G02X-403350Y-2455800I3977J3162D01*
G03X-393680Y-2435840I-15751J19953D01*
G01Y-2390160D01*
G03X-393690Y-2389350I-25421J91D01*
G02X-380000Y-2379500I10154J326D01*
G03X-323330Y-2361450I16798J45246D01*
G02X-307880Y-2359860I8396J-5724D01*
G03X-263700Y-2363990I24677J25607D01*
G02X-248960Y-2368100I5574J-8497D01*
G03X-226040Y-2382520I22916J10999D01*
G01X-180360D01*
G03X-157440Y-2368100I4J25419D01*
G02X-142700Y-2363990I9166J-4387D01*
G03X-98520Y-2359860I19503J29737D01*
G02X-83070Y-2361450I7054J-7314D01*
G03X-10160Y-2369430I39868J27198D01*
G02X3760I6960J-7410D01*
G03X35860Y-2382510I33047J35173D01*
G02X42850Y-2399850I-197J-10158D01*
G01X-85780Y-2528480D01*
X-389290D01*
G37*
G54D10*
X-2667000Y-3238500D03*
Y-381000D03*
X5207000Y-3238500D03*
Y-381000D03*
G54D11*
X-2424000Y-2516000D03*
Y-2056000D03*
G54D20*
X-283200Y-3117800D03*
X-203200Y-2268200D03*
X2320300Y-1403300D03*
X2400300Y-553700D03*
G54D21*
X-508000Y-2413000D03*
X341600Y-2733000D03*
X2095500Y-698500D03*
X2945100Y-1018500D03*
G54D12*
X-2424000Y-2798500D03*
X-2794000D03*
X-2424000Y-1773500D03*
X-2794000D03*
G54D22*
X1841500Y-2476500D03*
Y-2730500D03*
Y-1968500D03*
Y-2222500D03*
X3873500Y-3111500D03*
X4635500D03*
X4381500D03*
X4127500D03*
X5207000Y-1778000D03*
Y-1016000D03*
Y-1270000D03*
Y-1524000D03*
G54D13*
X-2424000Y-2416000D03*
Y-2351000D03*
Y-2286000D03*
Y-2221000D03*
Y-2156000D03*
G54D23*
X1841500Y-2984500D03*
X3619500Y-3111500D03*
X5207000Y-2032000D03*
G54D14*
X-2667000Y-1206500D03*
X-1968500D03*
Y-508000D03*
X3683000Y-762000D03*
G54D24*
G01X-2032000Y-2667000D02*
X-2349500D01*
G01X-2540000Y-2349500D02*
X-2538500Y-2351000D01*
G01D02*
X-2424000D01*
G01X-2032000Y-1778000D02*
X-2159000D01*
X-2222500Y-1841500D01*
Y-2138210D01*
X-2237300Y-2153010D01*
Y-2153150D01*
X-2296860Y-2212710D01*
X-2296930D01*
X-2297420Y-2213200D01*
X-2297490D01*
X-2305290Y-2221000D01*
X-2424000D01*
G01X-2032000Y-2222500D02*
X-2222500D01*
X-2286000Y-2286000D01*
X-2424000D01*
G01X-2014220Y-3271540D02*
Y-3111500D01*
G01D02*
X-1921490D01*
G01X-2106950D02*
X-2014220D01*
G01D02*
Y-2951460D01*
G01X-1587500Y-3111500D02*
X-1480000D01*
Y-3120000D01*
X-897500D01*
X-825500Y-3048000D01*
G01X-1605280Y-1778000D02*
X-1079500D01*
G01X-1605280Y-2222500D02*
X-1206500D01*
X-1143000Y-2286000D01*
Y-2895600D01*
X-1065500Y-2973100D01*
X-508000D01*
G01Y-2893100D02*
X-955000D01*
X-1016000Y-2832100D01*
Y-2222500D01*
X-1079500Y-2159000D01*
Y-1778000D01*
G01X-825500Y-2794000D02*
X-641300D01*
X-622300Y-2813000D01*
X-508000D01*
G01Y-2733000D02*
X-696000D01*
X-767110Y-2661890D01*
Y-2164110D01*
X-652780Y-2049780D01*
Y-1778000D01*
G01X-203200Y-2268200D02*
Y-1473200D01*
X-279400Y-1397000D01*
X-698500D01*
X-779780Y-1315720D01*
Y-1079500D01*
G01D02*
Y-883920D01*
X-635000Y-739140D01*
Y-571500D01*
G01X-17780Y-1079500D02*
Y-1351280D01*
X-43200Y-1376700D01*
Y-2268200D01*
G01X-63500Y-571500D02*
Y-866140D01*
X-17780Y-911860D01*
Y-1079500D01*
G01X36800Y-3224500D02*
Y-3117800D01*
G01D02*
Y-3011100D01*
G01X234900Y-2973100D02*
X341600D01*
G01Y-3013750D02*
Y-2973100D01*
G01X889000Y-1714500D02*
X770350D01*
X571500Y-1913350D01*
Y-2603500D01*
X522000Y-2653000D01*
X341600D01*
G01X889000Y-2159000D02*
X723900D01*
X635000Y-2247900D01*
Y-2667000D01*
X569000Y-2733000D01*
X341600D01*
G01X889000Y-2603500D02*
X723900D01*
X698500Y-2628900D01*
Y-2794000D01*
X679500Y-2813000D01*
X341600D01*
G01X889000Y-3048000D02*
X562550D01*
X407650Y-2893100D01*
X341600D01*
G01X196800Y-2268200D02*
Y-1898700D01*
X762000Y-1333500D01*
X916940D01*
X1016000Y-1234440D01*
Y-952500D01*
G01X341600Y-2413000D02*
Y-1880900D01*
X762000Y-1460500D01*
X889000D01*
X1016000Y-1333500D01*
X1270000D01*
G01X744220Y-1079500D02*
Y-1247140D01*
X530860Y-1460500D01*
X88900D01*
X36800Y-1512600D01*
Y-2268200D01*
G01X744220Y-1079500D02*
Y-807720D01*
X698500Y-762000D01*
Y-571500D01*
G01X1841500Y-2984500D02*
X1651000D01*
X1587500Y-3048000D01*
X1315720D01*
G01X1841500Y-2730500D02*
X1714500D01*
X1587500Y-2603500D01*
X1315720D01*
G01X1841500Y-2222500D02*
X1722850D01*
X1651000Y-2150650D01*
Y-1778000D01*
X1587500Y-1714500D01*
X1315720D01*
G01X1841500Y-2476500D02*
X1714500D01*
X1651000Y-2413000D01*
Y-2222500D01*
X1587500Y-2159000D01*
X1315720D01*
G01X1270000Y-952500D02*
X1778000D01*
X1872000Y-858500D01*
X2095500D01*
G01X2712720Y-3111500D02*
Y-2903220D01*
X2603500Y-2794000D01*
X2184400D01*
X2095500Y-2705100D01*
Y-2286000D01*
X2032000Y-2222500D01*
X1841500D01*
G01X2240300Y-1403300D02*
Y-1795740D01*
X2222500Y-1813540D01*
Y-1905000D01*
G01X2712720Y-2476500D02*
Y-2077720D01*
X2540000Y-1905000D01*
X2222500D01*
G01X2984500D02*
X2794000Y-1714500D01*
X2349500D01*
X2320300Y-1685300D01*
Y-1403300D01*
G01X1778000Y-778500D02*
X2095500D01*
G01X1569720Y-571500D02*
X2016750D01*
G01D02*
Y-332750D01*
X2095500Y-254000D01*
X4826000D01*
X4889500Y-317500D01*
Y-635000D01*
X4953000Y-698500D01*
X5308600D01*
X5397500Y-787400D01*
Y-1945660D01*
X5311160Y-2032000D01*
X5207000D01*
G01X2016750Y-571500D02*
X2095500Y-650250D01*
Y-698500D01*
G01X3474720Y-2476500D02*
Y-2409190D01*
X3288030Y-2222500D01*
X3048000D01*
X2984500Y-2159000D01*
Y-1905000D01*
G01X2945100Y-1258600D02*
X3798600D01*
X3873500Y-1333500D01*
Y-1752600D01*
X3962400Y-1841500D01*
X4191000D01*
G01X2945100Y-1178600D02*
X3782110D01*
X4000510Y-1397000D01*
X4191000D01*
G01X2945100Y-1098500D02*
X3854490D01*
X4000490Y-952500D01*
X4191000D01*
G01Y-2286000D02*
X3746500D01*
X3619500Y-2159000D01*
Y-1574080D01*
X3448720Y-1403300D01*
X2800300D01*
G01X3365500Y-762000D02*
X3349000Y-778500D01*
X2945100D01*
G01X4617720Y-2286000D02*
Y-2649220D01*
X4699000Y-2730500D01*
X4826000D01*
X4889500Y-2794000D01*
Y-3276600D01*
X4864100Y-3302000D01*
X3644900D01*
X3619500Y-3276600D01*
Y-3111500D01*
G01X4191000Y-508000D02*
X3962400D01*
X3937000Y-533400D01*
Y-698500D01*
X3873500Y-762000D01*
X3683000D01*
G01X4191000Y-1841500D02*
X4292600D01*
X4381500Y-1930400D01*
Y-2768600D01*
X4292600Y-2857500D01*
X4023340D01*
X3873500Y-3007340D01*
Y-3111500D01*
G01X4127500D02*
Y-2997200D01*
X4203700Y-2921000D01*
X4309650D01*
X4432300Y-2798350D01*
Y-1447800D01*
X4381500Y-1397000D01*
X4191000D01*
G01Y-952500D02*
X4381500D01*
X4495820Y-1066820D01*
Y-2806680D01*
X4381500Y-2921000D01*
Y-3111500D01*
G01X4203700Y-2286000D02*
X4191000D01*
G01X4254500Y-508000D02*
X4191000D01*
G01X5207000Y-2032000D02*
X4972050D01*
X4718050Y-2286000D01*
X4617720D01*
G01X5207000Y-1778000D02*
X4889500D01*
X4826000Y-1841500D01*
X4617720D01*
G01X5207000Y-1524000D02*
X5016500D01*
X4889500Y-1397000D01*
X4617720D01*
G01X5207000Y-1270000D02*
X4953000D01*
X4826000Y-1143000D01*
Y-977900D01*
X4800600Y-952500D01*
X4617720D01*
G54D15*
X-2413000Y-1206500D03*
X-1714500D03*
Y-508000D03*
X-63500Y-571500D03*
X698500D03*
X2222500Y-1905000D03*
X2984500D03*
X3365500Y-762000D03*
G54D25*
G01X-2413000Y-1206500D02*
X-2329140D01*
G01X-2496860D02*
X-2413000D01*
G01Y-1290360D02*
Y-1206500D01*
G01X-1714500D02*
X-1630640D01*
G01X-1798360D02*
X-1714500D01*
G01D02*
Y-1122640D01*
G01Y-1290360D02*
Y-1206500D01*
G01Y-508000D02*
X-1630640D01*
G01X-1798360D02*
X-1714500D01*
G01D02*
Y-424140D01*
G01Y-591860D02*
Y-508000D01*
G01X-1206500Y-1079500D02*
X-1113770D01*
G01X-1299230D02*
X-1206500D01*
G01D02*
Y-919460D01*
G01Y-1239540D02*
Y-1079500D01*
G01X-363200Y-3224500D02*
Y-3117800D01*
G01X-403850D02*
X-363200D01*
G01D02*
Y-3011100D01*
G01X-123200Y-2268200D02*
Y-2161500D01*
G01Y-2374900D02*
Y-2268200D01*
G01X-283200D02*
Y-2161500D01*
G01Y-2374900D02*
Y-2268200D01*
G01X-444500Y-1079500D02*
X-351770D01*
G01X-537230D02*
X-444500D01*
G01D02*
Y-919460D01*
G01Y-1239540D02*
Y-1079500D01*
G01X317500D02*
X410230D01*
G01X224770D02*
X317500D01*
G01D02*
Y-919460D01*
G01Y-1239540D02*
Y-1079500D01*
G01X2286000Y-3271540D02*
Y-3111500D01*
G01D02*
X2378730D01*
G01X2193270D02*
X2286000D01*
G01D02*
Y-2951460D01*
G01Y-2476500D02*
X2378730D01*
G01X2193270D02*
X2286000D01*
G01D02*
Y-2316460D01*
G01Y-2636540D02*
Y-2476500D01*
G01X1841500Y-1968500D02*
X1938060D01*
G01X1744940D02*
X1841500D01*
G01D02*
Y-1871940D01*
G01Y-2065060D02*
Y-1968500D01*
G01X1988800Y-1258600D02*
X2095500D01*
G01Y-1299250D02*
Y-1258600D01*
G01D02*
X2360900D01*
G01X3048000Y-2476500D02*
X3140730D01*
G01X2955270D02*
X3048000D01*
G01D02*
Y-2316460D01*
G01Y-2636540D02*
Y-2476500D01*
G01X2360900Y-1258600D02*
X2476500Y-1143000D01*
G01Y-889000D02*
X2559000D01*
X2589500Y-858500D01*
G01D02*
X2945100D01*
G01X4538940Y-3111500D02*
X4635500D01*
G01Y-3208060D02*
Y-3111500D01*
G01D02*
X4732060D01*
G01X4635500D02*
Y-3014940D01*
G01X5207000Y-1016000D02*
X5303560D01*
G01X5110440D02*
X5207000D01*
G01D02*
Y-919440D01*
G01Y-1112560D02*
Y-1016000D01*
G54D16*
X-1587500Y-3111500D03*
X-2014220D03*
X-2032000Y-2667000D03*
X-1605280D03*
X-2032000Y-1778000D03*
X-1605280D03*
X-2032000Y-2222500D03*
X-1605280D03*
X-1079500Y-1778000D03*
X-1206500Y-1079500D03*
X-779780D03*
X-1061720Y-571500D03*
X-652780Y-1778000D03*
X-444500Y-1079500D03*
X-17780D03*
X-635000Y-571500D03*
X317500Y-1079500D03*
X744220D03*
X889000Y-3048000D03*
X1315720D03*
X889000Y-2603500D03*
X1315720D03*
X889000Y-2159000D03*
X1315720D03*
X889000Y-1714500D03*
X1315720D03*
X1143000Y-571500D03*
X1569720D03*
X2286000Y-3111500D03*
Y-2476500D03*
X2712720Y-3111500D03*
Y-2476500D03*
X3048000D03*
X3474720D03*
X4191000Y-1841500D03*
X4617720D03*
X4191000Y-2286000D03*
X4617720D03*
X4191000Y-952500D03*
X4617720D03*
X4191000Y-1397000D03*
X4617720D03*
X4191000Y-508000D03*
X4617720D03*
G54D26*
G01X-2222500Y-1754720D02*
X-2286000Y-1818220D01*
Y-2120950D01*
X-2320560Y-2155510D01*
X-2320630D01*
X-2321120Y-2156000D01*
X-2424000D01*
G01X-1968500Y-1206500D02*
X-2095500Y-1079500D01*
X-2540000D01*
X-2667000Y-1206500D01*
G01X-1270000Y-2667000D02*
X-1605280D01*
G01D02*
X-1714490D01*
X-1841500Y-2539990D01*
Y-1333500D01*
X-1968500Y-1206500D01*
G01X-2222500Y-1714500D02*
Y-1754720D01*
G01X-1968500Y-508000D02*
Y-1206500D01*
G01Y-508000D02*
Y-381000D01*
X-1905000Y-317500D01*
X-1141720D01*
X-1061720Y-397500D01*
G01Y-571500D02*
Y-397500D01*
G01D02*
X-1032500D01*
X-952500Y-317500D01*
X1079500D01*
X1143000Y-381000D01*
Y-571500D01*
G01X-508000Y-2653000D02*
Y-2573000D01*
G01D02*
X-67340D01*
X-25500Y-2531160D01*
X116800Y-2388860D01*
Y-2358000D01*
Y-2268200D01*
G01X-698510Y-2603500D02*
X-649010Y-2653000D01*
X-508000D01*
G01D02*
X-387340D01*
X-43200Y-2997140D01*
Y-3117800D01*
G01X2095500Y-1178600D02*
X1242100D01*
X1143000Y-1079500D01*
Y-571500D01*
G01X2945100Y-1018500D02*
X2474000D01*
X2313900Y-1178600D01*
X2095500D01*
G01X2945100Y-1018500D02*
X3807500D01*
X4064000Y-762000D01*
X4257030D01*
X4511030Y-508000D01*
X4617720D01*
G54D17*
X-1270000Y-2667000D03*
X-698510Y-2603500D03*
X-825500Y-3048000D03*
Y-2794000D03*
X1016000Y-952500D03*
X1270000D03*
Y-1333500D03*
X1778000Y-778500D03*
X2476500Y-1143000D03*
Y-889000D03*
G54D18*
X-508000Y-2493000D03*
Y-2573000D03*
Y-2653000D03*
Y-2733000D03*
Y-2813000D03*
Y-2893100D03*
Y-2973100D03*
X341600D03*
Y-2893100D03*
Y-2813000D03*
Y-2653000D03*
Y-2573000D03*
Y-2493000D03*
Y-2413000D03*
X2095500Y-938500D03*
Y-1018500D03*
Y-1098500D03*
Y-1178600D03*
Y-1258600D03*
Y-778500D03*
Y-858500D03*
X2945100Y-1258600D03*
Y-1178600D03*
Y-1098500D03*
Y-938500D03*
Y-858500D03*
Y-778500D03*
Y-698500D03*
G54D19*
X-363200Y-3117800D03*
X-203200D03*
X-123200D03*
X-43200D03*
X36800D03*
Y-2268200D03*
X-43200D03*
X-123200D03*
X-283200D03*
X-363200D03*
X116800Y-3117800D03*
X196800D03*
Y-2268200D03*
X116800D03*
X2240300Y-1403300D03*
X2320300Y-553700D03*
X2240300D03*
X2400300Y-1403300D03*
X2480300D03*
X2560300D03*
X2640300D03*
X2720300D03*
X2800300D03*
Y-553700D03*
X2720300D03*
X2640300D03*
X2560300D03*
X2480300D03*
M02*
